<svg xmlns="http://www.w3.org/2000/svg" width="217" height="222" fill="none"><path fill="#00503A" d="M215.181 199.741v-.352l.004-.351v-1.047l-.004-.352q0-.361.016-.722l.016-.348.015-.351q.015-.34.016-.68l.004-.352v-.347l-.039-.637-.043-.348-.047-.351a8 8 0 0 1-.059-.743l-.015-.351-.012-.348q-.015-.395.039-.789l.047-.351.051-.348q.04-.298.015-.594l-.027-.347-.028-.352q-.028-.36-.042-.723l-.016-.347-.012-.352q-.014-.36-.012-.723l.004-.347.004-.352q.003-.342-.004-.683l-.015-.703a9 9 0 0 1 .011-.739l.02-.351.02-.348q.02-.34.027-.68l.015-.703q.007-.355.024-.711l.031-.703q.018-.369.067-.738l.043-.352.046-.347q.036-.277-.011-.555l-.063-.348-.058-.351q-.062-.368-.098-.735l-.035-.351-.031-.348a2.8 2.8 0 0 1 .043-.851l.074-.348.07-.352q.051-.248 0-.496l-.07-.351-.074-.352a3 3 0 0 1-.051-.84l.027-.351.027-.348q.029-.346.051-.691l.024-.352.019-.351q.021-.333.02-.664v-.348l-.004-.352a7 7 0 0 0-.035-.652l-.036-.352-.035-.347a2.6 2.6 0 0 1 .059-.867l.086-.352.082-.348a.9.9 0 0 0-.008-.457l-.094-.347-.09-.352a3.4 3.4 0 0 1-.117-.82l-.004-.352-.007-.351a3 3 0 0 1 .113-.84l.098-.352.097-.347q.072-.261.043-.512l-.039-.348-.039-.351a7 7 0 0 1-.043-.754l-.004-.348v-.351a10 10 0 0 1 .024-.739l.027-.351.023-.348a2.5 2.5 0 0 0-.027-.582l-.059-.352-.058-.347a2.9 2.9 0 0 1-.012-.848l.043-.351.047-.352a2 2 0 0 0 0-.563l-.051-.351-.051-.348a3 3 0 0 1 .004-.843l.051-.352.051-.348a1.8 1.8 0 0 0-.004-.547l-.059-.351-.058-.348a6 6 0 0 1-.071-.769l-.011-.348-.008-.352a19 19 0 0 1-.004-.718l.008-.703a4.4 4.4 0 0 1 .086-.789l.07-.352.07-.348q.062-.315.079-.629l.019-.351.016-.348a3.5 3.5 0 0 0-.02-.613l-.086-.703a18 18 0 0 1-.07-.719l-.027-.352-.028-.347a3.2 3.2 0 0 1 .043-.832l.063-.352.066-.347q.046-.247-.012-.497l-.082-.351-.082-.348a3 3 0 0 1-.074-.844l.024-.347.019-.352a5 5 0 0 0-.008-.629l-.031-.351-.027-.352a3.5 3.5 0 0 1 .027-.812l.055-.352.05-.347q.049-.323.059-.645l.012-.352.011-.347a3 3 0 0 0-.039-.598l-.058-.351-.063-.352a3.6 3.6 0 0 1-.043-.813l.02-.351.023-.348q.02-.341.028-.683l.011-.352.008-.348q.012-.357.031-.714l.02-.352.016-.348q.018-.316-.008-.632l-.031-.348-.032-.352a4.5 4.5 0 0 1 .004-.789l.031-.347.032-.352a2.7 2.7 0 0 0-.012-.59l-.043-.347-.047-.352a4.5 4.5 0 0 1-.035-.789l.02-.348.015-.351q.016-.352.035-.703l.039-.704q.022-.359.059-.718l.035-.352.031-.347q.033-.311.016-.622l-.023-.351-.02-.348a9 9 0 0 0-.066-.668l-.043-.347-.047-.352a6 6 0 0 1-.051-.762l-.004-.347-.004-.352a6 6 0 0 1 .047-.766l.043-.351.043-.348q.04-.322.043-.644l.004-.348v-.352q.003-.33-.02-.66l-.023-.351-.024-.348a7 7 0 0 1-.015-.754l.015-.351.012-.348q.011-.336.004-.672l-.008-.351-.004-.348a5 5 0 0 1 .043-.777l.094-.704a3.5 3.5 0 0 0 .031-.613l-.011-.351-.012-.348a7 7 0 0 0-.055-.656l-.047-.348-.043-.352a3.4 3.4 0 0 1-.007-.82l.039-.348.039-.351a2.5 2.5 0 0 0-.008-.582l-.043-.348-.043-.351a12 12 0 0 1-.074-.731l-.024-.347-.023-.352a5 5 0 0 1 .012-.777l.031-.348.027-.352q.03-.316.016-.632l-.016-.352-.019-.348q-.019-.405.05-.808l.059-.348.062-.351q.056-.321.071-.641l.015-.352.016-.347q.016-.328.004-.657l-.012-.351-.015-.352q-.012-.353-.016-.707l-.016-.703a4 4 0 0 0-.054-.625l-.059-.347-.062-.352a2.9 2.9 0 0 1-.016-.844l.086-.703a2.3 2.3 0 0 0 0-.574l-.043-.352-.043-.347q-.046-.375-.055-.75l-.008-.352-.011-.347-.016-.704-.008-.347-.008-.352q-.008-.365.004-.73l.016-.352.016-.348q.016-.38.078-.761l.054-.352.059-.348q.045-.285.016-.57l-.035-.347-.04-.352a10 10 0 0 1-.046-.738l-.008-.352-.008-.347a6 6 0 0 1 .031-.77l.039-.348.039-.351q.037-.315.028-.63l-.012-.347-.012-.351a7 7 0 0 1 .02-.758l.027-.352.031-.347q.024-.3-.011-.602l-.078-.703a8 8 0 0 1-.051-.746l-.008-.348-.008-.351a26 26 0 0 0-.019-.688l-.016-.348-.02-.351a3.3 3.3 0 0 1 .071-.824l.07-.352.074-.348q.055-.269.02-.535l-.086-.703a4 4 0 0 1-.02-.797l.024-.351.027-.352a8 8 0 0 0 .02-.652l-.004-.352-.008-.347a3.4 3.4 0 0 0-.063-.614l-.07-.347-.07-.352a2.4 2.4 0 0 1-.008-.883l.125-.703q.055-.31.059-.617l.003-.348.004-.351a3.4 3.4 0 0 0-.046-.614l-.059-.347-.059-.352a5 5 0 0 1-.062-.781v-1.75l-.004-.352q0-.369.031-.738l.055-.703q.03-.353.066-.707l.032-.352.035-.347q.034-.345.058-.688l.028-.351.023-.348q.024-.332.023-.664v-.7a5 5 0 0 0-.042-.636l-.047-.348-.047-.351q-.049-.367-.071-.735l-.039-.703a5 5 0 0 1 .016-.777l.031-.348.035-.351q.033-.336.047-.672l.012-.352.016-.347a7 7 0 0 0-.004-.653l-.02-.347-.019-.352a8 8 0 0 0-.067-.66l-.047-.352-.05-.347a2.5 2.5 0 0 1 .039-.88l.078-.347.078-.351q.062-.282.043-.559l-.024-.348-.023-.351a8 8 0 0 0-.074-.66l-.051-.348-.055-.352a4 4 0 0 1-.039-.8l.016-.352.019-.348q.021-.35.039-.699l.016-.351.02-.348a5 5 0 0 0-.008-.64l-.024-.348-.027-.352a3.2 3.2 0 0 1 .047-.828l.066-.352.067-.347a1.4 1.4 0 0 0 0-.516l-.067-.351-.062-.348a4.5 4.5 0 0 1-.082-.785l-.008-.703a28 28 0 0 1 0-.711l.004-.352.004-.348q.005-.395.082-.789l.066-.351.071-.352q.052-.274.019-.547l-.039-.347-.039-.352a5.5 5.5 0 0 1-.035-.77l.012-.35.007-.352.02-.696.008-.351.007-.348q.009-.341.004-.684l-.004-.351-.003-.348a9 9 0 0 1 .023-.746l.027-.348.028-.351a3 3 0 0 0-.02-.594l-.047-.348-.05-.351a3.3 3.3 0 0 1-.008-.824l.078-.703a7 7 0 0 0 .047-.653l.008-.351.007-.348a7 7 0 0 0-.019-.652l-.028-.348-.027-.352a25 25 0 0 1-.043-.714l-.015-.352-.016-.348q-.016-.347-.035-.695l-.039-.703q-.02-.345-.043-.691l-.024-.352-.023-.348a4.5 4.5 0 0 1 .019-.793l.039-.347.039-.352.079-.7.039-.347.039-.351a2.7 2.7 0 0 0 0-.59l-.039-.348-.039-.351a3.6 3.6 0 0 1 0-.813l.039-.347.039-.352q.036-.329.043-.656l.011-.348.008-.352a10 10 0 0 0-.008-.667l-.015-.348-.016-.352a9 9 0 0 0-.051-.664l-.078-.703c-.018-.16-.058-.176-.039-.16l-.187-.149-.184-.148q0 .001-.012-.004l-.031-.012a.6.6 0 0 0-.172-.015l-.703.015q-.373.01-.746-.02l-.352-.023-.351-.027a8 8 0 0 0-.656-.023l-.352.004h-.351a8 8 0 0 1-.747-.028l-.347-.031-.352-.031a7 7 0 0 0-.652-.024l-.348.004h-.351q-.33.005-.66.035l-.352.032-.348.03q-.34.03-.679.075l-.352.047-.348.047c-.294.039-.588.02-.879-.047l-.351-.078-.348-.082a1.8 1.8 0 0 0-.547-.043l-.347.031-.352.031q-.362.03-.722.043l-.352.012-.348.016q-.35.011-.699.027l-.348.016-.351.015a6 6 0 0 1-.766-.015l-.351-.032-.348-.03a8 8 0 0 0-.66-.028l-.348-.004h-.351l-.7-.004h-.699q-.324 0-.648.031l-.352.035-.347.036a3 3 0 0 1-.836-.032l-.352-.058-.348-.063a2 2 0 0 0-.566-.02l-.348.036-.351.039a22 22 0 0 1-.715.058l-.352.028-.351.023a6 6 0 0 1-.766 0l-.351-.023-.352-.028a11 11 0 0 0-.668-.023l-.351-.004-.348-.004a11 11 0 0 0-.672.016l-.348.02-.351.015q-.358.02-.715.027l-.352.008-.347.008a9 9 0 0 0-.664.039l-.348.035-.352.031a5 5 0 0 1-.773.02l-.348-.016-.351-.015a6 6 0 0 1-.766-.09l-.351-.063-.348-.066a2.2 2.2 0 0 0-.57-.027l-.704.054a6 6 0 0 1-.765.008l-.348-.02-.351-.019a2.4 2.4 0 0 0-.578.043l-.352.063-.352.066q-.395.077-.793.078l-.347-.004h-.352q-.389 0-.777-.062l-.352-.055-.347-.055a2.7 2.7 0 0 0-.59-.027l-.352.02-.347.023a3.6 3.6 0 0 1-.817-.04l-.347-.058-.352-.058a1.5 1.5 0 0 0-.527.004l-.352.062-.352.066a4 4 0 0 1-.8.06l-.352-.009-.351-.011a10 10 0 0 0-.664.003l-.348.016-.352.012q-.35.016-.703.027l-.351.012-.352.008a4.4 4.4 0 0 1-.789-.047l-.348-.051-.351-.055a1.7 1.7 0 0 0-.543.008l-.352.059-.347.058a3.2 3.2 0 0 1-.829.028l-.703-.063a3.6 3.6 0 0 0-.613-.004l-.352.024-.347.027q-.38.03-.762.012l-.351-.016-.348-.016a6 6 0 0 1-.766-.085l-.703-.125a1.4 1.4 0 0 0-.515.003l-.348.067-.352.07a7 7 0 0 1-.758.102l-.351.023-.348.028a2.8 2.8 0 0 1-.855-.07l-.352-.087-.347-.086a2 2 0 0 0-.563-.054l-.351.015-.348.012a5 5 0 0 0-.637.07l-.348.063-.351.058a3.8 3.8 0 0 1-.809.055l-.347-.016-.352-.015q-.347-.016-.695-.028l-.348-.007-.351-.012a9 9 0 0 1-.743-.059l-.703-.086a5 5 0 0 0-.633-.03l-.347.003-.352.004q-.357.003-.715-.004l-.351-.004-.352-.008q-.346-.006-.691-.007l-.348-.004h-.351a4.4 4.4 0 0 0-.629.043l-.352.046-.347.047a7 7 0 0 1-.754.067l-.352.008-.348.011q-.345.01-.691.028l-.348.02-.351.015a4.3 4.3 0 0 1-.793-.031l-.352-.047-.347-.047a2 2 0 0 0-.567 0l-.347.05-.352.047a3 3 0 0 1-.836.004l-.348-.046-.351-.047a3.4 3.4 0 0 0-.61-.028l-.351.016-.348.016q-.351.017-.703.035l-.348.015-.351.016a3.3 3.3 0 0 1-.824-.066l-.348-.075-.352-.07a1.6 1.6 0 0 0-.535-.023l-.347.046-.352.043a5 5 0 0 1-.773.043l-.352-.004-.348-.007a5 5 0 0 0-.632.03l-.348.044-.352.039a2.5 2.5 0 0 1-.875-.05l-.351-.083-.348-.086a1.1 1.1 0 0 0-.48-.004l-.348.075-.352.074a2.3 2.3 0 0 1-.89.023l-.348-.062-.351-.059a3 3 0 0 0-.602-.043l-.348.012-.351.012-.703.02-.348.007-.352.012a10 10 0 0 0-.664.039l-.351.03-.352.036a5.5 5.5 0 0 1-.769.016l-.348-.016-.351-.016q-.342-.017-.684-.023l-.352-.004-.347-.004a7 7 0 0 1-.754-.05l-.352-.044-.347-.043a2.2 2.2 0 0 0-.571.008l-.347.051-.352.05a5.4 5.4 0 0 1-.769.06h-.7q-.367 0-.734-.024l-.352-.023-.347-.024a4 4 0 0 0-.617.012l-.704.07q-.363.036-.726.05l-.352.017-.347.015a4 4 0 0 1-.801-.043l-.352-.058-.347-.055a3.3 3.3 0 0 0-.606-.04l-.703.024q-.365.012-.73 0l-.348-.011-.352-.008-.699-.024-.351-.011-.348-.008a2.4 2.4 0 0 0-.578.054l-.352.075-.351.078a2.1 2.1 0 0 1-.91 0l-.352-.078-.348-.075a3 3 0 0 0-.601-.07l-.352-.004-.347-.004a9 9 0 0 0-.664.016l-.352.02-.348.023q-.369.02-.738.016l-.348-.004-.351-.004q-.367-.005-.735-.035l-.351-.028-.352-.031a3 3 0 0 0-.594.012l-.703.086q-.356.043-.71.078l-.352.031-.348.035q-.36.034-.718.055l-.704.039a9 9 0 0 1-.738.016l-.352-.008-.347-.008a4 4 0 0 1-.797-.098l-.352-.074-.347-.078a1.3 1.3 0 0 0-.508-.012l-.348.063-.351.062q-.39.067-.781.07l-.348.004-.352.008a5 5 0 0 1-.773-.05l-.352-.047-.347-.047a10 10 0 0 0-.668-.067l-.348-.023-.352-.024a8 8 0 0 0-.656-.015l-.351.008-.348.004c-.22.004-.444.018-.664.039l-.348.03-.351.036q-.391.037-.782.012l-.347-.024-.352-.023a5 5 0 0 0-.636 0l-.348.023-.352.02a4.6 4.6 0 0 1-.785-.016l-.348-.039-.351-.035a2.7 2.7 0 0 0-.59 0l-.703.078q-.356.04-.711.07l-.352.032-.347.027q-.37.031-.739.035l-.351.004-.348.004-.703.008H65.8l-.352.004a5 5 0 0 1-.781-.059l-.352-.055-.348-.054a7 7 0 0 0-.652-.07l-.352-.024-.347-.02a10 10 0 0 0-.664-.011l-.703.008a3 3 0 0 0-.594.07l-.352.078-.347.082q-.406.092-.817.086l-.703-.008-.699-.012-.352-.003-.351-.008q-.375-.007-.75-.051l-.348-.043-.351-.043a4 4 0 0 0-.622-.023l-.703.023q-.38.015-.761-.02l-.348-.03-.352-.032a2.6 2.6 0 0 0-.586.012l-.351.05-.352.047a2.8 2.8 0 0 1-.851-.015l-.352-.059-.347-.062a3.5 3.5 0 0 0-.614-.051l-.347.004h-.352q-.347.002-.695.008l-.352.007-.347.004q-.367.005-.735-.015l-.351-.02-.352-.016a6 6 0 0 0-.64 0l-.704.04q-.356.02-.71.03l-.352.013-.348.011q-.337.011-.676.04l-.347.03-.352.032q-.365.03-.73.039l-.352.008-.351.004-.704.011-.347.004-.352.008a6 6 0 0 1-.765-.043l-.348-.039-.352-.04a3 3 0 0 0-.597-.007l-.348.031-.352.032a4 4 0 0 1-.8-.008l-.348-.04-.352-.038a4 4 0 0 0-.625-.024l-.703.024q-.361.014-.722.011l-.348-.004-.352-.003a3.4 3.4 0 0 0-.609.046l-.351.063-.348.059q-.436.074-.871 0l-.348-.059-.351-.059a2.5 2.5 0 0 0-.586-.03l-.348.019-.351.023q-.387.022-.774-.012l-.351-.027-.348-.031a9 9 0 0 0-.664-.031l-.352-.004-.348-.004a7 7 0 0 0-.652.02l-.351.03-.352.028q-.36.029-.719.043l-.351.015-.348.016q-.367.014-.734.004l-.352-.012-.348-.008a6 6 0 0 0-.648.016l-.348.027-.351.032a3.4 3.4 0 0 1-.82-.036l-.348-.054-.352-.055a6 6 0 0 0-.64-.066l-.703-.032a2 2 0 0 0-.559.055l-.352.086-.351.082q-.428.103-.863.063l-.348-.036-.352-.03a6 6 0 0 0-.648-.028l-.348.004-.351.004a6 6 0 0 1-.766-.043l-.348-.043-.351-.043a4 4 0 0 0-.617-.028l-.703.032q-.343.014-.684.039l-.348.027-.351.027c-.26.02-.521.015-.782-.007l-.347-.032-.352-.027q-.341-.031-.683-.05l-.352-.02-.348-.02a4 4 0 0 0-.62.016l-.352.035-.348.039-1.055.105-.347.036a4 4 0 0 1-.801-.004l-.352-.035-.101-.012c-.003.15-.02.32-.05.488l-.067.348-.063.351a1.6 1.6 0 0 0-.008.532l.051.351.055.348q.058.382.066.765l.008.352.008.348.015.699.016.703q.01.377-.023.754l-.032.352-.035.351c-.02.214-.024.427-.02.64l.016.704.012.699.008.348.008.351q.007.375-.024.75l-.054.703a3.2 3.2 0 0 0 .003.606l.04.348.039.351q.038.371.046.742l.008.348.012.351q.009.36.004.72l-.004.347-.004.351a14 14 0 0 1-.031.727l-.024.352-.02.347a9 9 0 0 0-.023.664l.004.352v.348q.003.346.012.69l.012.352.008.348q.008.344.027.688l.02.347.019.352q.021.384-.012.77l-.03.35-.032.349a6 6 0 0 0-.016.64l.024.703q.013.38-.02.758l-.031.352-.031.347q-.03.327-.028.653l.004.351.004.348q.004.331.031.664l.032.352.027.347q.03.375.023.75L1.216 30l-.003.347q-.006.34.003.68l.008.352.012.347q.009.332.043.664l.035.352.035.348q.041.418-.031.836l-.059.351-.062.352q-.049.278-.016.554l.043.348.04.352q.045.38.042.761v.352l-.004.348q-.001.345.004.69l.004.349.004.351q.005.369-.02.738l-.019.352-.023.352q-.025.345-.043.691l-.016.352-.02.347q-.016.345-.023.688l-.008.347-.008.352q-.008.318.024.637l.035.351.04.348c.026.258.028.518.015.777l-.016.352-.02.351q-.016.31.012.621l.07.703q.04.387.02.774l-.02.352-.019.347q-.016.327 0 .653l.016.347.015.352q.02.373.004.746l-.015.348-.016.351q-.014.353-.035.707l-.024.352-.02.351c-.011.198-.006.395.024.594l.055.352.05.347q.069.452-.042.899l-.09.347-.086.352a2.3 2.3 0 0 0-.07.574v.7q.002.356-.004.714l-.008.352-.012.347c-.004.187.019.38.067.57l.086.348.09.352q.109.447.038.898l-.054.348-.055.352q-.05.336-.082.671l-.035.352-.035.348a6 6 0 0 0-.032.648l.004.348.004.351q.002.286.078.578l.09.348.094.352q.12.46.027.925l-.07.348-.07.352a2.3 2.3 0 0 0-.043.574l.02.351.019.348q.02.375.004.75l-.016.352-.016.347q-.016.36-.046.719l-.028.352-.027.347q-.024.304.008.61l.039.347.035.352q.04.375.043.75l.004.347.004.352q.002.351 0 .703l.004.348v.351q-.001.335.02.668l.023.352.023.348q.025.359.035.718l.008.352.012.352q.009.362 0 .726l-.012.348-.008.351q-.009.33.008.66l.016.352.02.348q.016.355.027.71l.011.352.008.348q.013.386-.031.773l-.043.352-.04.347q-.034.308-.015.614l.04.703q.019.345.042.691l.047.703q.03.429-.074.852l-.086.351-.086.348q-.071.294-.07.582v.7q0 .337.015.675l.032.703q.016.374 0 .746l-.016.352-.016.348q-.014.308.024.617l.039.347.043.352q.05.415-.004.828l-.047.348-.047.351q-.039.294-.012.586l.036.352.03.347q.035.374.036.747v.351l.004.348q-.001.363-.02.726l-.015.352-.02.348q-.014.289.043.582l.067.351.066.348c.058.303.052.609-.02.91l-.086.352-.082.347a1.9 1.9 0 0 0-.046.555l.02.351.023.348q.022.381 0 .762l-.02.351-.023.348q-.019.316.007.633l.028.348.027.351.059.695.027.352.031.348q.032.363.047.726l.012.348.015.351q.014.362.012.723l-.004.348v.351q-.002.338.012.676l.016.348.02.351a3.4 3.4 0 0 1-.067.821l-.07.351-.07.348a3.3 3.3 0 0 0-.067.609l-.004.348-.008.351q-.004.29.062.582l.083.352.078.348q.093.41.086.824l-.008.348-.004.351a6 6 0 0 1-.067.762l-.054.351-.051.352a4 4 0 0 0-.047.621l.004.348.004.351q.002.337.023.672l.024.348.023.351q.025.344.059.688l.031.348.031.351q.04.428-.05.852l-.079.351-.074.348a2.4 2.4 0 0 0-.058.582l.011.351.008.348q.01.342.031.684l.024.347.023.352q.021.342.051.684l.035.351.035.348q.037.394.004.789l-.031.351-.027.348q-.029.334-.035.668l-.008.352-.004.351-.012.695-.004.352-.008.348-.007.703-.004.347-.008.352a10 10 0 0 1-.035.738l-.035.348-.032.351q-.03.333-.035.665l-.008.347-.004.352q-.005.285.063.574l.086.352.082.347c.066.278.092.562.078.844l-.016.348-.015.351a6 6 0 0 1-.09.766l-.067.351-.066.348a2.6 2.6 0 0 0-.043.59l.016.348.015.351q.017.367.008.734l-.008.348-.007.352q-.007.33.011.66l.02.347.02.352q.019.328.066.656l.101.703q.06.43-.015.86l-.067.347-.062.352a4 4 0 0 0-.063.621l-.011.352-.008.351q-.007.302.043.606l.11.703q.06.376.077.754l.02.347.015.352q.018.365.012.73l-.008.704q-.005.365-.035.73l-.027.352-.031.347a21 21 0 0 0-.043.684l-.016.351-.016.348q-.014.313.02.625l.035.352.04.347q.038.376.042.75v.352l.004.347q.003.4-.07.797l-.063.348-.066.352a3.3 3.3 0 0 0-.055.605l.004.352v.347q.001.313.05.625l.055.352.059.347q.062.4.043.801l-.031.703a10 10 0 0 0-.008.664l.008.352.008.348q.007.361 0 .722l-.004.348-.008.352q-.005.357-.024.714l-.02.352-.015.352q-.016.287.04.578l.066.351.07.348q.078.41.055.824l-.024.352-.02.347q-.02.354-.046.707l-.024.352-.027.351q-.026.36-.066.719l-.04.352-.042.347a9 9 0 0 0-.051.664l-.012.348-.016.352q-.011.326.008.652l.02.352.02.347q.02.373.007.746l-.012.352-.011.348q-.011.32.015.64l.032.352.03.347q.031.357.052.715l.02.348.023.351q.023.4-.032.797l-.047.352-.046.348a2 2 0 0 0 0 .566l.046.348.047.351q.057.408.016.817l-.031.351-.035.348q-.03.293.007.586l.094.703q.052.397.027.793l-.019.348-.02.351q-.021.36-.054.719l-.032.347-.035.352q-.024.271.035.547l.075.351.074.348a3.4 3.4 0 0 1 .078.824l-.012.348-.011.352q-.012.333 0 .668l.011.347.012.352a4 4 0 0 1-.059.804l-.062.348-.063.352a5 5 0 0 0-.074.64l-.023.352-.02.348q-.016.295.032.593l.058.348.055.351q.071.436-.008.872l-.063.347-.066.352q-.054.296-.043.59l.012.351.015.352c.01.243.007.487 0 .73l-.007.352-.012.347q-.009.304.039.61l.055.351.058.348a2.8 2.8 0 0 1 0 .852l-.05.351-.051.348a2 2 0 0 0-.008.562l.047.352.047.348q.051.405.011.812l-.03.352-.036.351q-.03.327-.031.653l-.004.347v.352q0 .333.02.668l.023.351.02.348q.023.362.03.723l.004.351.008.348q.006.337.028.676l.023.351.02.352q.023.365.023.73v.699q-.001.378-.043.754l-.039.352-.035.348q-.038.343-.067.687l-.03.352-.028.351a2.1 2.1 0 0 0 .031.567l.063.347.066.352q.063.328.137.566l.078.27.031.105.258-.051.348-.07q.434-.085.87-.019l.352.05.348.051q.315.047.629.047h.699q.314 0 .629-.047l.348-.051.351-.054q.386-.056.774-.055h.699q.42 0 .832.113l.347.098.352.094q.268.074.527.054l.704-.054q.372-.03.746-.024l.703.016a4 4 0 0 0 .625-.035l.347-.047.352-.047q.378-.05.758-.055l.347-.004.352-.004q.397-.005.793.063l.348.059.351.058q.317.054.633.067l.351.011.348.012c.185.006.373-.011.563-.059l.347-.089.352-.086q.466-.118.934-.012l.347.078.352.082c.189.043.376.056.562.047l.352-.016.347-.019q.377-.018.754.004l.352.019.348.02q.273.014.554-.055l.352-.086.348-.086c.292-.072.59-.087.886-.047l.352.047.347.047q.327.043.653.055l.351.015.348.012q.333.013.668.004l.352-.008.347-.012a7 7 0 0 1 .754.02l.352.031.347.028q.301.022.602-.012l.351-.043.352-.039q.404-.048.809-.004l.351.035.352.039q.328.036.656.043l.351.008.348.008q.352.007.703.015l.348.008.351.012a4 4 0 0 0 .625-.035l.348-.043.352-.043q.384-.05.77-.047l.347.004.351.004q.363.004.727.027l.348.02.351.023q.298.017.598-.027l.348-.051.351-.051a3 3 0 0 1 .836-.008l.352.047.347.047q.296.038.59.012l1.406-.125.348-.031.352-.028q.386-.032.773-.008l.352.024.347.019q.323.022.645.008l.351-.015.348-.02q.416-.018.828.07l.352.075.351.078q.274.058.543.031l.352-.035.347-.035q.346-.034.692-.075l.351-.043.348-.043q.436-.05.867.043l.352.079.347.074q.276.06.547.035l.352-.031.348-.036q.383-.037.77-.019l.35.019.352.016q.304.013.61-.027l.351-.047.348-.047q.4-.053.8-.027l.348.023.352.024q.308.022.617-.008l.352-.039.347-.035q.367-.036.735-.047l.351-.012.348-.012q.39-.013.781.035l.352.047.347.047q.315.04.63.035l.35-.008.348-.003q.367-.006.735.011l.347.016.352.019q.304.014.61-.027l.35-.043.349-.047q.374-.05.75-.062l.351-.008.352-.012a3.2 3.2 0 0 1 .828.086l.351.086.352.082q.246.058.488.012l.352-.063.351-.066q.394-.074.79-.078l.347-.004h.352q.403-.004.804.078l.348.074.352.071q.294.059.585.05l.348-.007.352-.008q.33-.01.664-.043l.351-.035.348-.036q.371-.036.742-.043l.352-.003.347-.008q.392-.005.782.054l.351.051.352.055q.267.039.535-.012l.348-.062.351-.063q.386-.072.774-.086l.347-.011.352-.012a7 7 0 0 1 .758.015l.347.028.352.027q.32.027.64.016l.352-.016.348-.012q.392-.016.785.036l.351.046.348.047q.283.037.567-.004l.347-.05.352-.047q.367-.054.734-.082l.348-.024.351-.027q.387-.03.774 0l.703.055q.363.026.726.074l.348.043.352.047q.291.037.582.007l.703-.07q.36-.036.719-.058l.351-.024.348-.019q.38-.023.761 0l.348.019.352.02q.343.02.687.031l.348.012.351.011.7.024.347.008.352.011q.362.01.722.035l.352.028.348.027q.332.024.664.024l.351.004h.348q.297 0 .598-.063l.351-.074.348-.071q.391-.08.785-.093l.703-.024q.402-.011.801.059l.351.058.348.063q.323.056.645.074l.347.02.352.019q.334.018.668.016h.351l.352-.004q.302 0 .605-.059l.348-.066.352-.07q.422-.082.847-.035l.352.035 1.055.117.347.039.352.043q.3.035.597.008l.348-.035.352-.032q.353-.031.707-.058l.351-.028.348-.023q.36-.028.719-.043l.351-.012.348-.015a3.3 3.3 0 0 1 .824.07l.352.074.347.074q.262.057.52.016l.348-.059.351-.054q.41-.067.82-.035l.348.027.352.031q.306.023.613-.008l.348-.031.351-.035q.396-.038.793 0l.352.031.347.031q.33.031.66.036l.352.007.352.004q.34.004.683 0l.352-.004.347-.007q.35-.004.7-.008l.351-.008.348-.004q.328-.006.656-.043l.352-.039.347-.039q.365-.04.731-.055l.703-.031q.371-.016.742 0l.352.012.347.015q.338.016.676.016l.352-.004h.351q.36-.002.719.012l.352.012.347.011q.361.014.723.043l.351.028.348.031q.327.026.652.019l.352-.004.348-.007q.327-.006.656-.039l.703-.071q.386-.04.773-.023l.348.015.352.016q.358.017.714.043l.348.027.352.024q.292.021.586-.024l.351-.05.352-.055a3.2 3.2 0 0 1 .828-.02l.351.043.352.039q.336.037.672.055l.351.024.348.019.699.039.348.02.352.015q.331.02.664.016l.351-.008.352-.004q.305-.005.613-.062l.352-.067.347-.066c.266-.05.537-.072.805-.067l.348.008.351.004q.338.006.676-.004l.348-.011.351-.008q.354-.013.707-.02l.348-.004.351-.008q.42-.006.832.098l.348.09.352.086q.252.063.5.023l.351-.054.348-.055q.421-.065.844-.008l.351.047.348.043q.279.038.558-.004l.352-.055.348-.05a3.5 3.5 0 0 1 .816-.032l.352.028.351.031q.355.029.711.066l.352.039.347.036q.315.034.629.023l.348-.016.351-.011q.346-.015.692-.035l.351-.02.348-.02q.332-.016.664-.058l.348-.047.351-.047a2.5 2.5 0 0 1 .875.039l.352.082.348.078q.297.067.589.067h.7q.29 0 .586-.071l.351-.082.348-.082a2.1 2.1 0 0 1 .922-.011l.347.074.352.074q.248.055.496.004l.352-.07.347-.075c.301-.061.606-.057.906.008l.704.157q.244.052.488 0l.348-.075.351-.074q.424-.09.852-.051l.351.032.348.035q.324.03.648.027l.352-.004h.348q.327-.005.656-.039l.347-.035.352-.035q.427-.042.852.047l.351.07.348.074q.281.058.558.035l.352-.027.348-.027q.378-.03.757-.02l.348.012.352.008q.34.01.679.007l.348-.003.352-.004q.373-.003.746.027l.347.027.352.028q.318.023.637.008l.351-.012.352-.016q.375-.016.75.008l.351.02.352.023a9 9 0 0 0 .664.019l.348-.003.351-.004q.296-.002.594-.071l.347-.078.352-.078q.402-.091.809-.094l.347-.004h.352q.4-.002.797.075l.351.066.348.066q.251.05.504-.003l.351-.075.348-.074c.271-.057.547-.078.82-.07l.348.008.352.011q.383.012.765.075l.348.058.351.055q.312.05.622.051l.351.004h.348q.344 0 .687-.008l.348-.008.351-.008q.318-.009.637-.058l.348-.055.351-.055q.39-.059.782-.055l.351.004.348.004.703.008.348.004.351.004.699.012.352.004.348.003a7 7 0 0 0 .656-.023l.351-.027.348-.028q.387-.029.774-.004l.347.024.352.023q.341.022.683.032l.696.015.054-.133.094-.234c.022-.055.04-.161.02-.344l-.078-.703a3 3 0 0 1 .027-.84l.125-.703q.053-.298.043-.594l-.012-.351-.012-.348a7 7 0 0 0-.054-.656l-.043-.352-.043-.347a4 4 0 0 1-.024-.793l.024-.352.019-.351a8 8 0 0 1 .09-.747l.055-.351.058-.352q.05-.29.028-.578l-.028-.351-.027-.348a8 8 0 0 0-.082-.66l-.055-.352-.054-.347a2.3 2.3 0 0 1 .035-.899l.086-.347.086-.352q.064-.276.043-.547l-.024-.351-.027-.348q-.025-.35-.051-.699l-.027-.348-.028-.352q-.028-.373-.019-.75l.008-.351.008-.348q.01-.341.007-.683l-.004-.352-.003-.348a28 28 0 0 1 0-.711l.007-.703q.004-.346.004-.691m1.199-147q.003.368-.023.734l-.027.352-.024.348a29 29 0 0 1-.062.714l-.035.352-.036.348q-.031.345-.058.691l-.031.352-.028.347q-.027.33-.027.66l.004.352v1.75q0 .307.051.617l.058.352.055.347q.066.394.062.79l-.004.347-.003.352a4.7 4.7 0 0 1-.075.78l-.062.352-.063.348q-.044.258.008.516l.067.351.07.352q.076.393.082.789l.008.348.004.351q.007.373-.02.746l-.027.348-.028.352q-.022.297.016.597l.086.703q.054.433-.035.864l-.07.347-.075.352q-.06.288-.047.574l.032.703q.015.355.023.711l.008.352.008.347q.006.326.043.653l.078.703q.047.397.015.797l-.031.351-.027.348a6 6 0 0 0-.016.644l.012.348.012.352q.012.384-.032.77l-.078.702a5 5 0 0 0-.027.63l.016.702q.008.33.043.66l.035.348.039.352q.041.416-.028.832l-.054.351-.059.348a5 5 0 0 0-.062.64l-.016.352-.016.348q-.012.333-.004.668l.008.351.008.348.016.7.011.35.008.352q.008.324.047.649l.043.351.047.348q.049.412-.004.824l-.086.703q-.035.277.012.555l.058.348.059.351q.064.385.07.774l.008.351.008.348q.004.346.016.691l.015.348.012.351q.014.371-.004.743l-.016.351-.019.348a6 6 0 0 1-.082.762l-.059.347-.058.352a2.7 2.7 0 0 0-.039.594l.015.347.02.352q.016.383-.02.765l-.027.352-.031.351a4 4 0 0 0-.008.622l.023.351.024.348q.021.335.062.672l.047.347.043.352q.053.41.008.82l-.039.348-.039.351q-.033.29.004.579l.093.703q.049.373.063.746l.012.347.011.352q.015.393-.039.785l-.047.348-.046.351q-.043.312-.036.621l.004.352.008.352q.008.363-.004.726l-.015.352-.012.347q-.011.324.012.649l.023.351.023.348q.026.369.024.738v.352l-.004.348q-.004.378-.051.757l-.086.703q-.04.318-.039.633l.004.352.004.347q.002.32.043.641l.047.348.043.351q.048.368.07.735l.024.351.019.348q.024.39-.016.781l-.035.348-.035.351q-.032.34-.051.68l-.019.348-.02.351q-.021.348-.039.696l-.015.351-.016.348a3.5 3.5 0 0 0 .027.613l.047.348.043.351q.054.406.016.813l-.031.347-.032.352a3.5 3.5 0 0 0-.004.609l.032.352.031.348q.033.386.012.773l-.02.348-.019.351q-.02.342-.028.684l-.008.351-.011.352q-.01.357-.032.715l-.019.351-.024.348q-.016.291.036.586l.058.352.059.347c.045.266.064.537.054.805l-.011.348-.012.351a7 7 0 0 1-.07.758l-.051.348-.055.351a2.6 2.6 0 0 0-.019.586l.027.348.031.351q.031.385.008.77l-.019.348-.02.351q-.015.276.051.559l.082.347.078.352q.106.452.023.906l-.066.348-.062.351q-.054.285-.032.567l.055.703q.028.34.07.68l.039.347.043.352q.049.392.028.785l-.02.352-.015.347a5.5 5.5 0 0 1-.098.774l-.07.347-.071.352q-.06.306-.066.609l-.004.352-.004.347q-.005.34.004.68l.008.352.011.347q.009.316.059.633l.059.352.054.351q.07.426.008.852l-.051.351-.05.348a1.9 1.9 0 0 0 0 .559l.046.347.051.352q.06.417.004.836l-.047.351-.047.348a1.9 1.9 0 0 0 .012.555l.059.347.058.352q.068.407.039.816l-.027.352-.023.348q-.025.331-.024.664v.347l.004.352q.002.323.039.648l.039.348.039.351q.05.45-.074.891l-.102.348-.097.351a2 2 0 0 0-.074.559l.007.348.004.351q.004.286.082.578l.094.352.094.347c.083.313.087.631.012.946l-.082.351-.086.348a1.6 1.6 0 0 0-.036.535l.036.348.035.351q.037.374.039.746l.004.352v.352q.003.366-.02.734l-.023.348-.024.351q-.022.354-.05.707l-.028.352-.027.347q-.023.278.035.559l.07.352.075.351q.092.452 0 .903l-.071.347-.074.352a1.8 1.8 0 0 0-.031.551l.035.347.035.352q.033.331.09.664l.058.351.059.348q.073.422.02.848l-.047.351-.043.348a9 9 0 0 0-.059.66l-.015.352-.02.351c-.011.228-.015.456-.02.684l-.007.351-.008.348q-.007.362-.027.723l-.02.347-.02.352q-.018.33-.011.66l.008.348.003.351q.01.357.008.715l-.004.352-.004.347q0 .34.012.68l.012.348.016.351q.011.34.039.68l.027.348.027.351q.033.405-.023.809l-.047.347-.051.352q-.042.307-.031.613l.016.348.011.351q.013.328.055.657l.047.347.043.352q.048.382.047.766v.351l-.004.348a19 19 0 0 1-.016.718l-.031.704q-.016.337-.016.675l.004.352v1.051l-.004.347v.352q0 .354-.004.707l-.004.348-.003.351q-.004.344 0 .688l.003.351.004.348q.002.36-.007.719l-.008.347-.008.352q-.008.324.016.648l.054.703q.028.35.055.7l.023.351.028.352q.029.428-.075.851l-.082.352-.085.348q-.06.254-.02.503l.055.352.054.348q.06.37.09.742l.028.348.027.351q.032.411-.035.82l-.059.352-.058.348a7 7 0 0 0-.075.652l-.023.348-.024.351a3.3 3.3 0 0 0 .02.606l.043.351.043.348q.048.373.062.746l.012.352.012.347q.013.404-.059.805l-.062.351-.063.348a2 2 0 0 0-.015.559l.039.351.039.348c.031.283.014.565-.086.82l-.09.235-.094.234a.8.8 0 0 1-.394.434c-.173.087-.36.11-.528.105l-.347-.012-.352-.007q-.359-.012-.719-.036l-.347-.023-.352-.024a5 5 0 0 0-.629.004l-.347.028-.352.027q-.373.03-.746.027l-.348-.003-.351-.004-.699-.012-.352-.004-.348-.004-.699-.008-.703-.008a4 4 0 0 0-.617.043l-.348.055-.351.055a6 6 0 0 1-.766.07l-.348.008-.351.008q-.358.008-.715.008h-.348l-.351-.004a5 5 0 0 1-.778-.063l-.351-.058-.348-.055a5 5 0 0 0-.637-.063l-.347-.011-.352-.008a2.5 2.5 0 0 0-.582.051l-.351.074-.348.07q-.449.094-.899.008l-.351-.066-.348-.067a3 3 0 0 0-.601-.058l-.703.007a2.8 2.8 0 0 0-.59.067l-.352.082-.348.078a3.8 3.8 0 0 1-.808.094l-.352.004-.347.003q-.368.002-.735-.023l-.351-.019-.352-.024a6 6 0 0 0-.644-.008l-.352.016-.348.016a6 6 0 0 1-.761-.012l-.352-.028-.348-.027a7 7 0 0 0-.656-.023l-.351.004-.348.003q-.362.004-.723-.007l-.347-.008-.352-.012a6 6 0 0 0-.644.016l-.352.027-.348.031a3 3 0 0 1-.843-.054l-.352-.075-.348-.074a1.8 1.8 0 0 0-.546-.027l-.704.07a8 8 0 0 1-.746.039l-.347.004-.352.004q-.375.004-.75-.031l-.351-.035-.348-.032a1.8 1.8 0 0 0-.551.032l-.348.074-.351.074a2.1 2.1 0 0 1-.91 0l-.352-.078-.347-.078a1.2 1.2 0 0 0-.497-.004l-.347.07-.352.074q-.451.09-.902-.007l-.352-.075-.347-.074q-.24-.05-.481.008l-.703.164q-.404.096-.812.098h-.7q-.408 0-.812-.09l-.352-.082-.347-.078a1.5 1.5 0 0 0-.524-.024l-.351.047-.352.043a9 9 0 0 1-.738.07l-.348.02-.351.02q-.354.017-.707.031l-.352.015-.348.012q-.386.016-.773-.023l-.352-.039-.347-.039q-.344-.036-.688-.063l-.351-.031-.348-.028a2.6 2.6 0 0 0-.586.024l-.348.051-.351.054q-.42.064-.84.008l-.703-.094a2 2 0 0 0-.555.008l-.351.055-.348.055a2.25 2.25 0 0 1-.902-.043l-.348-.086-.352-.09a2.2 2.2 0 0 0-.57-.067l-.348.008-.351.004a53 53 0 0 0-.692.016l-.351.012-.348.011q-.364.012-.726.004l-.352-.004-.348-.008a3 3 0 0 0-.597.051l-.352.067-.351.062q-.39.075-.782.082l-.351.004-.352.008q-.367.005-.734-.016l-.348-.019-1.054-.059-.348-.019-.352-.02a14 14 0 0 1-.726-.062l-.348-.039-.351-.04a2.2 2.2 0 0 0-.571.012l-.347.055-.352.051a3.6 3.6 0 0 1-.813.035l-.347-.028-.352-.027a23 23 0 0 0-.687-.039l-.348-.016-.351-.015a4 4 0 0 0-.625.015l-.352.039-.348.036a9 9 0 0 1-.746.043l-.347.007-.352.004a8 8 0 0 1-.746-.023l-.352-.027-.351-.032a15 15 0 0 0-.676-.039l-.352-.011-.347-.012a17 17 0 0 0-.68-.012h-.351l-.348.004q-.363.001-.727-.016l-.347-.015-.352-.016a8 8 0 0 0-.656.004l-.348.016-.351.015q-.335.015-.668.051l-.352.039-.348.039a8 8 0 0 1-.746.047l-.351.004-.348.008q-.351.004-.703.008l-.352.007-.347.004q-.357.006-.715 0l-.352-.004-.347-.007a10 10 0 0 1-.739-.039l-.703-.063a3.2 3.2 0 0 0-.605 0l-.348.031-.351.035a4.4 4.4 0 0 1-.789.008l-.348-.027-.352-.027a2.4 2.4 0 0 0-.578.023l-.351.055-.352.058q-.442.071-.883-.023l-.347-.074-.352-.075a2.3 2.3 0 0 0-.578-.05l-.348.011-.351.016q-.34.013-.68.039l-.352.027-.351.024q-.345.026-.691.058l-.348.032-.352.031a4 4 0 0 1-.8-.008l-.352-.039-.352-.043q-.347-.038-.695-.074l-.351-.039-.348-.039a1.8 1.8 0 0 0-.551.023l-.351.07-.348.067a4.3 4.3 0 0 1-.797.078l-.348.004h-.351a12 12 0 0 1-.731-.02l-.347-.019-.352-.02a7 7 0 0 1-.758-.086l-.347-.062-.352-.059a3 3 0 0 0-.598-.043l-.351.012-.348.012a3.5 3.5 0 0 0-.617.074l-.348.07-.351.074a4 4 0 0 1-.801.083h-.352l-.347-.004a10 10 0 0 1-.739-.028l-.351-.027-.348-.024q-.337-.024-.676-.035l-.351-.011-.352-.008-.699-.024-.703-.023a28 28 0 0 1-.71-.031l-.352-.024-.348-.019a5 5 0 0 0-.64 0l-.352.023-.348.02q-.34.02-.68.054l-.351.039-.352.036q-.406.04-.812-.012l-.352-.047-.351-.043a13 13 0 0 0-.672-.07l-.352-.028-.347-.027a4 4 0 0 0-.626 0l-.351.027-.348.028q-.333.024-.668.07l-.351.051-.348.051a3 3 0 0 1-.836.003l-.351-.046-.348-.047a4 4 0 0 0-.617-.028l-.352.012-.347.012a7 7 0 0 1-.758-.016l-.703-.054a6 6 0 0 0-.641-.016l-.352.016-.347.011a4.4 4.4 0 0 0-.63.067l-.35.066-.348.063a2.6 2.6 0 0 1-.864.015l-.351-.055-.352-.05a3.7 3.7 0 0 0-.617-.043l-.348.008-.351.003q-.33.006-.66.04l-.348.035-.352.035q-.367.036-.734.047l-.352.008-.347.007a3.6 3.6 0 0 1-.817-.07l-.347-.074-.352-.071q-.3-.06-.597-.058h-.348l-.352.004a3.4 3.4 0 0 0-.609.058l-.352.067-.347.066c-.303.057-.61.049-.91-.023l-.352-.082-.348-.086a2.2 2.2 0 0 0-.57-.059l-.348.012-.351.008a7 7 0 0 0-.649.054l-.351.043-.352.047a4.4 4.4 0 0 1-.789.032l-.347-.016-.352-.016q-.334-.016-.668-.011l-.348.003-.351.008a5 5 0 0 1-.774-.043l-.347-.047-.352-.046a4 4 0 0 0-.617-.028l-.703.024q-.332.01-.664.043l-.352.035-.347.035a5 5 0 0 1-.786.016l-.347-.024-.352-.023a3 3 0 0 0-.601.019l-.352.047-.348.047a4.4 4.4 0 0 1-.789.031l-.351-.015-.348-.016a4.5 4.5 0 0 0-.633.016l-.347.035-.352.031q-.428.04-.852-.055l-.351-.074-.352-.078a1.6 1.6 0 0 0-.53-.027l-.352.043-.348.043q-.356.042-.711.078l-.352.035-.347.031a2.7 2.7 0 0 1-.856-.047l-.351-.074-.348-.074a2.2 2.2 0 0 0-.574-.051l-.348.016-.351.019a7 7 0 0 1-.754-.008l-.352-.023-.348-.024a4.4 4.4 0 0 0-.628.008l-.348.028-.352.031q-.347.028-.695.058l-.352.036-.347.031q-.407.036-.813-.016l-.347-.047-.352-.047a2 2 0 0 0-.562.004l-.352.051-.348.051a4 4 0 0 1-.804.035l-.348-.019-.352-.024q-.337-.02-.675-.023l-.348-.004-.352-.004a5 5 0 0 0-.632.035l-.348.047-.352.043a5 5 0 0 1-.773.039l-.703-.016-.695-.015-.704-.016a8 8 0 0 1-.742-.051l-.347-.035-.352-.039a2.6 2.6 0 0 0-.586.004l-.351.039-.352.043a4 4 0 0 1-.797.016l-.351-.028-.348-.027a6 6 0 0 0-.648-.02l-.348.008-.352.012q-.365.01-.73-.004l-.352-.016-.351-.011a8 8 0 0 1-.746-.063l-.352-.051-.348-.046a1.4 1.4 0 0 0-.515.031l-.352.086-.348.086q-.42.101-.847.078l-.348-.02-.351-.019a6 6 0 0 0-.649 0l-.347.019-.352.016q-.421.02-.836-.074l-.351-.078-.348-.079a1 1 0 0 0-.469.004l-.348.09-.351.086q-.417.105-.84.09l-.351-.012-.348-.011a6 6 0 0 1-.766-.079l-.351-.062-.352-.059a3.4 3.4 0 0 0-.605-.047l-.703.008a6 6 0 0 0-.641.047l-.352.047-.347.047a5 5 0 0 1-.778.039l-.347-.004-.352-.008a7 7 0 0 0-.648.02l-.704.054a2.5 2.5 0 0 1-.87-.086l-.348-.097-.352-.094a2.2 2.2 0 0 0-.566-.078h-.7q-.313 0-.628.047l-.352.051-.348.05a5 5 0 0 1-.773.059h-.7q-.386.001-.773-.055l-.351-.054-.348-.051a1.5 1.5 0 0 0-.531.012l-.348.07-.351.07a.95.95 0 0 1-.59-.051.78.78 0 0 1-.418-.496l-.164-.539q-.089-.3-.156-.672l-.067-.351-.066-.348a3.1 3.1 0 0 1-.043-.836l.027-.347.031-.352q.029-.355.067-.711l.039-.352.039-.347q.035-.325.035-.649v-.699q.001-.333-.02-.668l-.023-.351-.023-.348a16 16 0 0 1-.028-.723l-.008-.351-.003-.352q-.007-.337-.028-.676l-.023-.351-.02-.348q-.023-.367-.023-.734v-.348l.004-.351q-.001-.374.035-.746l.035-.352.035-.348a2.6 2.6 0 0 0-.012-.59l-.046-.347-.043-.352a3 3 0 0 1 .007-.836l.102-.703a1.8 1.8 0 0 0 0-.547l-.055-.351-.054-.348a4.3 4.3 0 0 1-.055-.793l.012-.351.007-.348q.011-.335 0-.668l-.011-.352-.016-.347c-.01-.27.014-.541.063-.809l.062-.351.063-.348q.05-.266.007-.531l-.058-.352-.055-.348a3.7 3.7 0 0 1-.043-.808l.04-.703q.021-.38.09-.758l.062-.348.062-.351q.054-.3.043-.598l-.012-.348-.011-.351a11 11 0 0 1 0-.731l.023-.703a2.4 2.4 0 0 0-.055-.578l-.074-.348-.074-.351a2.8 2.8 0 0 1-.055-.852l.035-.347.032-.352q.03-.342.05-.684l.02-.347.023-.352a3.2 3.2 0 0 0-.023-.605l-.047-.352-.043-.347a3.6 3.6 0 0 1-.016-.817l.036-.347.035-.352a2.5 2.5 0 0 0-.012-.582l-.047-.352-.05-.347a3 3 0 0 1 0-.836l.046-.352.047-.347q.041-.304.024-.606l-.02-.348-.023-.351c-.014-.229-.027-.459-.047-.688l-.031-.347-.032-.352a6 6 0 0 1-.02-.762l.012-.347.012-.352a7 7 0 0 0-.008-.652l-.039-.703a8 8 0 0 1-.008-.746l.016-.352.012-.348q.016-.368.058-.738l.04-.351.042-.348q.038-.34.063-.68l.023-.351.028-.348q.026-.347.047-.695l.02-.348.019-.352a2.3 2.3 0 0 0-.04-.574l-.132-.703a3.4 3.4 0 0 1-.059-.82l.02-.348.015-.351q.018-.343.024-.684l.008-.348.004-.351q.006-.34 0-.68l-.008-.351-.008-.348q-.009-.368.008-.734l.015-.352.016-.348q.015-.298-.031-.597l-.059-.352-.055-.351a5 5 0 0 1-.062-.774v-.351l-.004-.352a4.3 4.3 0 0 1 .07-.793l.067-.348.062-.351q.058-.304.055-.606l-.004-.347v-.352a7 7 0 0 0-.039-.652l-.035-.348-.04-.351a5 5 0 0 1-.023-.778l.02-.347.015-.352q.016-.357.043-.715l.028-.351.031-.348q.027-.334.031-.668l.008-.703q.005-.334-.012-.668l-.015-.348-.016-.351a6 6 0 0 0-.066-.645l-.059-.351-.055-.348a4.3 4.3 0 0 1-.054-.793l.011-.348.008-.351a5 5 0 0 1 .078-.778l.063-.347.066-.352a1.7 1.7 0 0 0 .008-.539l-.047-.352-.05-.351a9 9 0 0 1-.075-.738l-.02-.352-.023-.351a9 9 0 0 1-.011-.739l.007-.351.008-.348a10 10 0 0 0-.004-.668l-.015-.352-.016-.347a3.6 3.6 0 0 1 .055-.813l.133-.703q.058-.317.074-.633l.015-.347.02-.352q.013-.276-.055-.558l-.082-.352-.086-.348a3.3 3.3 0 0 1-.09-.824l.004-.351.008-.352q.006-.368.04-.734l.03-.352.036-.348q.028-.331.03-.664l.009-.347.004-.352.007-.699.008-.352.004-.347q.005-.352.012-.703l.004-.352.008-.348q.007-.367.039-.734l.027-.348.031-.351a3.4 3.4 0 0 0-.004-.61l-.035-.351-.031-.352a24 24 0 0 1-.059-.715l-.023-.347-.024-.352a19 19 0 0 1-.03-.719l-.009-.351-.011-.348a3.4 3.4 0 0 1 .082-.82l.074-.352.078-.347q.058-.276.031-.547l-.062-.703a28 28 0 0 1-.059-.711l-.023-.352-.024-.347a12 12 0 0 1-.027-.731l-.004-.351-.004-.348q-.001-.39.059-.777l.05-.352.055-.352q.048-.317.055-.632l.004-.352.008-.352a2.4 2.4 0 0 0-.059-.578l-.082-.347-.078-.352a3.5 3.5 0 0 1-.09-.816l.008-.352.004-.348q.005-.397.086-.792l.14-.704q.06-.29.047-.578l-.015-.347-.016-.352-.016-.723v-.351l.004-.352q.002-.337-.012-.676l-.015-.351-.012-.348a15 15 0 0 0-.043-.679l-.031-.348-.027-.352-.059-.703-.027-.347-.032-.352a5.5 5.5 0 0 1-.004-.77l.02-.351.02-.348a5 5 0 0 0 0-.64l-.02-.348-.023-.352a2.9 2.9 0 0 1 .074-.847l.082-.348.086-.351q.06-.248.011-.493l-.066-.347-.07-.352a3.4 3.4 0 0 1-.055-.816l.016-.352.02-.351q.015-.336.015-.672l-.004-.352v-.347q0-.33-.031-.657L.09 95.84l-.035-.352q-.038-.406.016-.812l.047-.352.047-.348q.038-.286.004-.574l-.043-.351-.043-.348a4.7 4.7 0 0 1-.028-.785l.016-.352.02-.347q.015-.327 0-.653l-.02-.351-.016-.352q-.016-.36-.015-.723v-.699q-.002-.413.097-.82l.09-.348.086-.351q.067-.277.047-.547l-.023-.348-.024-.351q-.025-.353-.047-.707l-.02-.348-.019-.352a4.5 4.5 0 0 1 .024-.785l.039-.351.043-.348q.036-.315.027-.629l-.012-.352-.011-.347q-.01-.346-.028-.692l-.015-.347-.02-.352a10 10 0 0 1-.008-.738l.008-.352.012-.347q.009-.339 0-.676l-.012-.348-.008-.351a18 18 0 0 0-.031-.68l-.023-.352-.024-.347q-.023-.367-.023-.735v-.347l-.004-.352q.002-.347 0-.695l-.004-.352-.004-.347a7 7 0 0 0-.035-.653l-.04-.351-.038-.348a4.2 4.2 0 0 1-.008-.793l.055-.703q.027-.34.042-.68l.016-.351.02-.348a7 7 0 0 0-.004-.652l-.02-.348-.02-.352a3.3 3.3 0 0 1 .06-.824l.14-.703a1 1 0 0 0-.016-.472l-.09-.352-.093-.348a3.3 3.3 0 0 1-.11-.824l-.004-.352-.004-.347q-.002-.377.036-.754l.035-.348.035-.351q.036-.366.094-.73l.05-.348.055-.352q.04-.247-.023-.5L.2 59.51l-.086-.347a3.1 3.1 0 0 1-.098-.836l.012-.348.008-.351q.006-.342.004-.684v-.703a3.3 3.3 0 0 1 .101-.824l.086-.348.09-.352c.043-.17.048-.337.023-.503l-.05-.348-.055-.352a4 4 0 0 1-.035-.804l.023-.352.02-.347q.02-.346.035-.692l.016-.352.015-.347q.015-.328 0-.656l-.02-.352-.015-.348q-.017-.375.004-.75l.016-.351.02-.348q.015-.313-.017-.625l-.03-.351-.036-.348a5 5 0 0 1-.02-.777l.02-.352.02-.348a4 4 0 0 0-.016-.625l-.035-.347-.035-.352a6 6 0 0 1-.032-.761l.008-.348.008-.352q.006-.357.023-.715l.02-.351.02-.348q.017-.353.039-.707l.023-.351.023-.348q.022-.33.016-.66l-.008-.703-.004-.707.004-.352v-.352A5 5 0 0 0 .271 36l-.043-.352L.19 35.3a3 3 0 0 1 .024-.844l.058-.352.063-.351a2 2 0 0 0 .02-.563l-.036-.351-.035-.348a10 10 0 0 1-.047-.738l-.008-.348-.012-.352q-.009-.361-.003-.722l.003-.348.004-.351a7 7 0 0 0-.02-.649l-.03-.351-.028-.352q-.03-.368-.035-.734l-.004-.352-.004-.348q-.002-.375.031-.75l.032-.351.027-.348q.03-.32.02-.64l-.012-.352-.012-.348a7 7 0 0 1 .02-.757l.031-.352.027-.352q.028-.315.012-.628l-.02-.352-.019-.348a25 25 0 0 1-.027-.715L.2 20.203l-.012-.348q-.009-.355-.012-.71v-.352l-.004-.348q0-.369.024-.738l.023-.348.024-.351q.023-.336.027-.672l.004-.352.004-.348q.005-.342-.004-.683l-.012-.348-.008-.351a8 8 0 0 0-.042-.66l-.04-.348-.035-.352a4.2 4.2 0 0 1-.011-.793l.03-.351.028-.348q.026-.325.02-.648l-.016-.703q-.006-.35-.012-.7L.17 9.003.162 8.65q-.01-.379.023-.758l.035-.347.032-.352c.02-.214.024-.427.02-.64L.254 5.85.24 5.151.232 4.8l-.008-.348a5 5 0 0 0-.054-.637l-.055-.347-.05-.352a2.6 2.6 0 0 1 .01-.867l.067-.352.067-.347c.02-.108.029-.194.035-.258.006-.067.004-.094.004-.094L.232 1.05.212.897a.59.59 0 0 1 .41-.633C.786.21.962.216 1.093.23l.703.07q.298.03.597 0l.703-.07.696-.07.351-.035.348-.035q.39-.04.781-.02l.348.02.351.015c.239.013.477.034.715.055l.352.027.351.032q.31.027.617.003l.352-.023.348-.027q.359-.027.718-.043l.348-.012.352-.016q.39-.015.78.032l.349.043.351.039q.32.039.637.039l.348-.004.351-.004q.375-.005.75.031l.352.035.351.032q.265.025.535-.04l.348-.082.352-.086q.416-.1.84-.082l.347.016.352.016q.379.016.758.078l.347.055.352.058q.29.047.578.024l.351-.032.352-.027a7 7 0 0 1 .754-.02l.348.008.351.012q.332.01.664-.004l.352-.016.351-.011q.34-.016.68-.043l.348-.028.351-.03q.374-.03.746-.024l.352.004.348.004q.368.003.738.035l.347.03.352.028q.312.027.625.008l.351-.02.348-.023q.41-.026.817.043l.351.063.348.058q.265.045.531 0l.352-.062.347-.059c.263-.045.53-.065.793-.062l.348.003.351.004q.339.004.676-.007l.352-.016.347-.012a5 5 0 0 1 .774.031l.703.079q.3.032.598.004l.351-.032.348-.031q.402-.038.805.008l.347.043.352.039q.319.038.636.035l.348-.008.352-.004.695-.011.352-.004.347-.008A10 10 0 0 0 41.6.21l.352-.032.347-.03q.363-.033.727-.044l.703-.023q.344-.012.688-.031l.347-.02.352-.02q.376-.02.754 0l.703.04q.332.017.664.011l.348-.004.351-.007q.352-.006.703-.008h.352l.351-.004q.394-.002.786.066l.351.059.352.062q.273.047.547.008l.347-.047.352-.047q.405-.055.812-.02l.348.032.352.031q.318.029.636.016l.352-.012.347-.011q.39-.015.778.03l.703.087q.325.038.648.043l.348.008.352.003q.349.008.699.012l.347.004.352.004q.289.004.582-.063l.352-.078.347-.082q.401-.09.805-.093l.352-.004.347-.004q.369-.005.738.015l.348.02.352.02q.375.022.75.081l.347.055.352.055q.31.048.617.047l.352-.004h.347l.7-.008.351-.004.348-.004q.331-.003.664-.031l.351-.027.348-.032q.344-.028.688-.066l.351-.04.348-.038q.405-.046.808-.004l.352.039.348.039q.309.032.617.012l.347-.024.352-.023q.382-.023.766.004l.347.023.352.02q.31.02.62-.008l.349-.031.351-.035q.369-.037.738-.043l.348-.004.352-.008q.371-.006.742.02l.351.023.348.023q.367.023.734.07l.352.051.348.047q.315.043.629.04l.347-.009.352-.003q.31-.003.62-.055l.349-.063.351-.062a2.3 2.3 0 0 1 .895.02l.347.078.352.074q.303.067.601.074l.703.016q.33.006.66-.012l.348-.02.352-.023q.34-.02.68-.05l.351-.032.348-.035q.344-.032.687-.075l.352-.042.347-.043q.403-.05.805-.016l.352.027.347.032q.332.027.665.03l.351.005.348.004q.331.003.664-.016l.351-.02.352-.023q.368-.022.734-.016l.352.004.348.004q.401.007.8.094l.348.074.352.074q.243.054.488 0l.351-.074.348-.078q.409-.087.82-.074l.352.012.351.007.7.024.351.008.348.011q.333.01.668 0l.351-.011.352-.008q.396-.014.793.047l.348.058.351.055q.302.048.602.035l.347-.016.352-.015q.336-.016.672-.05l.347-.036.352-.035a5 5 0 0 1 .781-.012l.352.023.351.02q.333.023.664.023h.7q.313 0 .629-.046l.351-.051.352-.055q.415-.059.832-.008l.347.043.352.043q.323.039.644.043l.704.008q.357.006.714.023l.352.016.348.016q.314.017.629-.012l.351-.035.352-.031q.367-.034.734-.043l.348-.012.351-.008q.348-.009.696-.02l.351-.011.348-.012q.401-.011.801.059l.351.058.348.059q.254.044.512-.012l.347-.074.352-.078q.462-.1.922.012l.351.085.348.082q.266.063.527.032l.348-.04.351-.042a6 6 0 0 1 .77-.04l.348.008.351.004q.312.006.625-.035l.352-.043.347-.047q.436-.055.868.036l.351.074.348.07q.29.06.578.047l.348-.016.351-.015q.35-.015.699-.032l.348-.015.352-.02q.395-.018.789.035l.351.047.348.047q.283.038.566 0l.352-.05.347-.047q.419-.06.836-.004l.352.046.348.047q.305.042.609.028l.348-.02.351-.02q.355-.017.711-.027l.352-.011.347-.008q.324-.01.649-.055l.347-.05.352-.048a5.5 5.5 0 0 1 .77-.05h.351l.348.004q.355 0 .711.007l.347.008.352.008q.341.005.684 0l.347-.004.352-.004q.382-.006.765.04l.352.042.348.043q.328.04.656.051l1.406.047.352.015.347.016q.296.013.594-.039l.352-.062.347-.06q.383-.064.766-.081l.351-.016.348-.015q.423-.017.84.086l.352.082.347.086q.276.067.547.046l.348-.027.351-.027q.32-.024.641-.086l.351-.067.348-.07q.443-.084.887-.004l.347.063.352.062q.317.056.633.07l.351.016.348.02q.32.014.641-.012l.351-.027.348-.028q.393-.029.785.008l.352.031.347.035q.285.026.571-.023l.703-.117q.427-.072.855-.008l.352.055.347.05q.306.048.61.04l.703-.024q.347-.012.695-.027l.348-.012.351-.016q.368-.014.735-.003l.351.011.348.008q.297.01.598-.043l.347-.062.352-.067q.435-.078.871-.008l.348.059.351.059q.294.049.586.03l.352-.023.347-.023q.407-.025.813.039l.351.055.348.058q.311.048.621.047h.352l.347.004q.304 0 .61-.059l.347-.066.352-.066q.408-.078.82-.055l.348.02.352.015q.315.017.632-.008l.703-.054a3.2 3.2 0 0 1 .829.043l.347.066.352.062q.316.059.633.075l.351.015.352.02q.312.015.625-.016l.351-.035.348-.035q.37-.036.738-.043l.703-.016q.343-.006.684-.023l.348-.02.351-.02q.365-.018.731-.015l.351.004.348.004q.365.002.73.027l.352.024.348.023q.316.023.632 0l.348-.023.352-.024q.34-.023.683-.058l.352-.035.347-.036q.42-.043.836.028l.352.062.348.059q.284.048.566.02l.352-.036.347-.035q.377-.037.754-.035h.699q.35.001.7.004h.351l.348.004q.371 0 .742.031l.352.031.347.032q.319.028.637.015l.348-.015 1.054-.047.352-.012.347-.016q.338-.011.676-.039l.352-.031.347-.031a2.8 2.8 0 0 1 .86.062l.347.082.352.082q.262.061.52.028l.351-.047.348-.047q.361-.047.722-.078l.352-.031.348-.032q.37-.034.742-.039h.348l.351-.004q.374-.004.746.028l.352.03.347.032q.33.027.657.024h.347l.352-.004q.371-.001.742.027l.348.023.351.028q.325.023.649.015l.703-.015c.296-.007.605.052.855.25l.188.148.187.145c.271.214.381.533.414.836l.039.351.039.348q.041.367.055.734l.016.352.015.348q.017.367.008.734l-.011.351-.008.348a9 9 0 0 1-.051.746l-.039.348-.039.351a2.6 2.6 0 0 0 0 .59l.039.348.039.352q.045.404 0 .808l-.035.352-.039.351-.078.7-.043.351-.039.348a3.4 3.4 0 0 0-.012.609l.047.703q.023.352.043.703l.039.703q.019.353.035.704l.016.351.015.348q.016.341.043.683l.024.352.027.351q.03.374.023.747l-.015.703a9 9 0 0 1-.051.746l-.043.347-.039.352q-.033.287.008.574l.047.348.05.351q.055.402.024.805l-.028.352-.023.351a8 8 0 0 0-.023.657l.003.347.004.352q.005.36-.004.718l-.007.348-.008.352-.02.703-.011.348-.008.351q-.009.315.027.629l.039.348.043.351q.048.427-.035.852l-.07.351-.067.348q-.059.307-.062.613l-.004.348-.004.351a26 26 0 0 0 0 .688l.004.348.004.351q.005.306.062.613l.133.704q.083.441 0 .882l-.066.352-.067.348a2.2 2.2 0 0 0-.031.574l.023.347.024.352q.027.381.008.762l-.016.347-.019.352-.036.7-.039.702q-.015.298.032.598l.054.348.051.351q.058.371.082.742l.024.348.023.352q.028.425-.066.843l-.075.348-.078.352q-.059.264-.023.523l.047.348.05.351q.05.369.071.739l.019.351.02.348q.022.375.008.75l-.032.703q-.013.364-.046.726l-.036.348-.035.352q-.028.31-.008.62l.02.352.019.348q.02.331.063.664l.094.703q.05.381.05.762z"/><g clip-path="url(#clip0_177_30133)"><path fill="#DBD0B9" stroke="#00503A" stroke-linejoin="round" stroke-width="1.75" d="M166.699 29.735H49.687a.9.9 0 0 0-.9.9v160.217a.9.9 0 0 0 .9.9h117.012a.9.9 0 0 0 .9-.9V30.635a.9.9 0 0 0-.9-.9Z"/><path fill="#DBD0B9" stroke="#00503A" stroke-width=".594" d="M54.785 176.016h9.602c.167 0 .302.135.302.302v4.202a.3.3 0 0 1-.302.302h-9.602a.3.3 0 0 1-.303-.302v-4.202c0-.167.136-.302.303-.302Z"/><path fill="#FF681D" stroke="#00503A" stroke-width=".594" d="M135.785 122.016h9.601c.168 0 .303.135.303.302v4.202a.3.3 0 0 1-.303.302h-9.601a.303.303 0 0 1-.303-.302v-4.202c0-.167.136-.302.303-.302Z"/><mask id="path-7-inside-1_177_30133" fill="#fff"><path d="M151.393 122.011a.3.3 0 0 1 .3-.3h10.2a.3.3 0 0 1 .3.3v5.1h-10.8z"/></mask><path fill="#00503A" d="M151.393 122.011a.3.3 0 0 1 .3-.3h10.2a.3.3 0 0 1 .3.3v5.1h-10.8z"/><path stroke="#00503A" stroke-width="1.188" d="M151.393 122.011a.3.3 0 0 1 .3-.3h10.2a.3.3 0 0 1 .3.3v5.1h-10.8z" mask="url(#path-7-inside-1_177_30133)"/><mask id="path-8-inside-2_177_30133" fill="#fff"><path d="M135.193 138.211a.3.3 0 0 1 .3-.3h10.2a.3.3 0 0 1 .3.3v5.1h-10.8z"/></mask><path fill="#DBD0B9" d="M135.193 138.211a.3.3 0 0 1 .3-.3h10.2a.3.3 0 0 1 .3.3v5.1h-10.8z"/><path stroke="#00503A" stroke-width="1.188" d="M135.193 138.211a.3.3 0 0 1 .3-.3h10.2a.3.3 0 0 1 .3.3v5.1h-10.8z" mask="url(#path-8-inside-2_177_30133)"/><path fill="#DBD0B9" stroke="#00503A" stroke-width=".594" d="M54.785 132.811h9.602c.167 0 .302.135.302.303v4.201a.3.3 0 0 1-.302.302h-9.602a.3.3 0 0 1-.303-.302v-4.201c0-.168.136-.303.303-.303Z"/><mask id="path-10-inside-3_177_30133" fill="#fff"><path d="M70.393 105.811a.3.3 0 0 1 .3-.3h10.2a.3.3 0 0 1 .3.3v5.1h-10.8z"/></mask><path fill="#DBD0B9" d="M70.393 105.811a.3.3 0 0 1 .3-.3h10.2a.3.3 0 0 1 .3.3v5.1h-10.8z"/><path stroke="#00503A" stroke-width="1.188" d="M70.393 105.811a.3.3 0 0 1 .3-.3h10.2a.3.3 0 0 1 .3.3v5.1h-10.8z" mask="url(#path-10-inside-3_177_30133)"/><mask id="path-11-inside-4_177_30133" fill="#fff"><path d="M86.593 105.811a.3.3 0 0 1 .3-.3h10.2a.3.3 0 0 1 .3.3v5.1h-10.8z"/></mask><path fill="#DBD0B9" d="M86.593 105.811a.3.3 0 0 1 .3-.3h10.2a.3.3 0 0 1 .3.3v5.1h-10.8z"/><path stroke="#00503A" stroke-width="1.188" d="M86.593 105.811a.3.3 0 0 1 .3-.3h10.2a.3.3 0 0 1 .3.3v5.1h-10.8z" mask="url(#path-11-inside-4_177_30133)"/><mask id="path-12-inside-5_177_30133" fill="#fff"><path d="M102.793 105.811a.3.3 0 0 1 .3-.3h10.2a.3.3 0 0 1 .3.3v5.1h-10.8z"/></mask><path fill="#DBD0B9" d="M102.793 105.811a.3.3 0 0 1 .3-.3h10.2a.3.3 0 0 1 .3.3v5.1h-10.8z"/><path stroke="#00503A" stroke-width="1.188" d="M102.793 105.811a.3.3 0 0 1 .3-.3h10.2a.3.3 0 0 1 .3.3v5.1h-10.8z" mask="url(#path-12-inside-5_177_30133)"/><path fill="#00503A" stroke="#00503A" stroke-miterlimit="10" stroke-width=".594" d="M60.25 145.559a.675.675 0 1 0-1.35 0v22.952a.675.675 0 1 0 1.35 0zM118.993 29.735H91.99v5.57h27.003z"/><path fill="#EEEFEA" stroke="#00503A" stroke-miterlimit="10" stroke-width=".594" d="M65.105 29.735H54.304v5.57h10.801z"/><path fill="#FF681D" stroke="#00503A" stroke-miterlimit="10" stroke-width=".594" d="M86.71 29.735H75.908v5.57H86.71z"/><path fill="#DBD0B9" stroke="#00503A" stroke-miterlimit="10" stroke-width=".594" d="M145.995 29.735h-10.801v5.57h10.801z"/><path fill="#EEEFEA" d="M145.983 143.315h-10.802v5.401h10.802z"/><path fill="#00503A" d="M162.2 127.114h-10.802v5.401H162.2z"/><path fill="#FF681D" d="M145.995 127.114h-10.801v5.401h10.801z"/><mask id="path-21-inside-6_177_30133" fill="#fff"><path d="M151.393 138.211a.3.3 0 0 1 .3-.3h10.2a.3.3 0 0 1 .3.3v5.1h-10.8z"/></mask><path fill="#DBD0B9" d="M151.393 138.211a.3.3 0 0 1 .3-.3h10.2a.3.3 0 0 1 .3.3v5.1h-10.8z"/><path stroke="#00503A" stroke-width="1.188" d="M151.393 138.211a.3.3 0 0 1 .3-.3h10.2a.3.3 0 0 1 .3.3v5.1h-10.8z" mask="url(#path-21-inside-6_177_30133)"/><path fill="#FF681D" stroke="#00503A" stroke-miterlimit="10" stroke-width=".594" d="M144.644 170.993h-8.1a.675.675 0 0 0-.675.675v8.101c0 .373.302.675.675.675h8.1a.676.676 0 0 0 .676-.675v-8.101a.676.676 0 0 0-.676-.675Z"/><path fill="#DBD0B9" stroke="#00503A" stroke-miterlimit="10" stroke-width=".594" d="M144.644 154.792h-8.1a.675.675 0 0 0-.675.675v8.1c0 .373.302.676.675.676h8.1a.676.676 0 0 0 .676-.676v-8.1a.676.676 0 0 0-.676-.675Z"/><path fill="#00503A" stroke="#00503A" stroke-miterlimit="10" stroke-width=".594" d="M160.85 170.993h-8.101a.675.675 0 0 0-.675.675v8.101c0 .373.302.675.675.675h8.101a.675.675 0 0 0 .675-.675v-8.101a.675.675 0 0 0-.675-.675Z"/><path fill="#DBD0B9" stroke="#00503A" stroke-miterlimit="10" stroke-width=".594" d="M160.85 154.792h-8.101a.675.675 0 0 0-.675.675v8.1c0 .373.302.676.675.676h8.101a.676.676 0 0 0 .675-.676v-8.1a.675.675 0 0 0-.675-.675Z"/><path fill="#DBD0B9" stroke="#00503A" stroke-width=".594" d="M54.785 122.071h9.602c.167 0 .302.136.302.303v4.201a.303.303 0 0 1-.302.303h-9.602a.303.303 0 0 1-.303-.303v-4.201c0-.167.136-.303.303-.303Z"/><path fill="#EEEFEA" d="M81.192 110.912H70.39v5.401h10.802z"/><path fill="#FF681D" d="M97.392 110.912h-10.8v5.401h10.8z"/><path fill="#00503A" d="M113.581 110.912H102.78v5.401h10.801z"/><path fill="#DBD0B9" stroke="#00503A" stroke-miterlimit="10" stroke-width=".594" d="M79.558 148.051h-7.56a.945.945 0 0 1-.945-.945v-7.56c0-.522.423-.945.945-.945h7.56c.522 0 .945.423.945.945v7.56a.945.945 0 0 1-.945.945Z"/><path fill="#00503A" fill-rule="evenodd" d="M78.577 141.343c-.516-.615-1.163-.582-1.583-.203-.495.445-.752.76-1.652 1.469-.898.708-1.054.805-1.422 1.041a.55.55 0 0 0-.206.747c.173.313.28.626.33.791.024.08.077.147.146.195.452.32.74.662.878.847.053.07.153.08.218.022.146-.129.392-.326.574-.365.276-.058.356-.062.556-.052.252.014.48-.408.552-.934.068-.496.31-.977.397-1.162.151-.32.34-.543.61-.547.268-.003.587-.112.748-.298.336-.385.31-1.01-.146-1.551m-3.775 3.294c-.124.129-.275.149-.43.043a.4.4 0 0 0-.08-.067c-.123-.128-.075-.424.096-.527.347-.186.716.229.414.551m.44-1.387c.136-.139.31-.152.496-.023.037.024.07.054.097.081.148.15.11.482-.081.587-.39.19-.84-.3-.512-.645m.798 1.324c-.133-.033-.249-.238-.15-.357.09-.106.254-.121.345.001.135.195.014.383-.195.356m.656-1.65c-.265.216-.544.049-.525-.265.033-.201.315-.388.494-.25.16.126.197.37.031.515m.932-.687c-.249.025-.563-.25-.456-.507.098-.232.377-.354.603-.204.342.247.234.633-.147.711" clip-rule="evenodd"/><path fill="#FF681D" d="M77.125 140.541c-.037-.083-.011-.329.028-.422.039-.094.02-.179-.034-.236a.3.3 0 0 0-.055-.048c-.1-.073-.217-.094-.272-.01a.034.034 0 0 1-.051.008c-.074-.066-.198-.059-.274.003-.047.038-.069.112-.079.165a.3.3 0 0 0 .022.143c.006.013.002.044-.016.056a.3.3 0 0 0-.098.113c-.065.146.112.307.254.296.277-.002.37.036.422.066s.19-.052.153-.134M75.963 141.455c-.051-.145-.025-.238.027-.396a.26.26 0 0 0 .018-.126.223.223 0 0 0-.325-.154c-.029.023-.053.041-.074.024-.06-.046-.155-.017-.22.01-.136.077-.16.199-.115.295q.018.039-.02.057a.24.24 0 0 0-.113.122c-.064.145.14.325.255.296.116-.028.197-.042.382.057.04.021.222-.08.185-.185M74.814 142.378c-.015-.16-.04-.234.025-.459.066-.225-.157-.325-.316-.216-.037.025-.05.014-.063-.004-.06-.079-.177-.083-.275.002s-.2.231-.135.33c.01.016.011.044-.01.058a.2.2 0 0 0-.065.088c-.056.128.052.326.201.293a.6.6 0 0 1 .402.049c.1.059.25.019.236-.141M73.724 143.298c-.047-.154.014-.199.034-.352 0 0 .015-.247-.084-.328-.085-.069-.202-.043-.289.024-.01.008-.059.006-.074-.002a.26.26 0 0 0-.244.002c-.127.072-.27.254-.08.385.027.019.008.034-.004.039-.246.14.02.378.165.368.145-.009.255-.044.338.012s.286.006.238-.148M73.629 145.682c-.166.161-.961.777-1.036.86-.065.071-.059.261.073.266.427.018.899.015 1.194.011.208-.002.496.01.698-.009.176-.017.249-.248.118-.395-.167-.187-.44-.545-.664-.7-.068-.047-.262-.152-.383-.033"/><path fill="#DBD0B9" stroke="#00503A" stroke-miterlimit="10" stroke-width=".594" d="M79.558 164.251h-7.56a.945.945 0 0 1-.945-.945v-7.56c0-.522.423-.945.945-.945h7.56c.522 0 .945.423.945.945v7.56a.945.945 0 0 1-.945.945Z"/><path fill="#00503A" fill-rule="evenodd" d="M77.23 159.282a13 13 0 0 0-1.058-.012c-.011 0-.046-.019-.05-.052a4 4 0 0 1-.03-.495c0-.217-.001-.568.01-.902 0-.028.014-.081.054-.083.09-.004.145-.023.208-.041.034-.01.046-.042.04-.083-.056-.352-.18-.688-.166-1.058.001-.044.053-.085.09-.086.245-.006.473.004.709.016.034.002.062.047.064.07.037.395-.11.772-.158 1.143-.003.022.005.092.05.1.057.011.144.01.225.014.046.003.067.055.067.087.003.356-.011.998.005 1.334.001.035-.033.05-.06.048M78.597 159.291c-.101.026-.531.01-.847-.002a.084.084 0 0 1-.083-.085c.005-.34.006-.968.011-1.305 0-.027.034-.073.09-.073.086-.001.15.022.213-.001.04-.017.044-.088.036-.125a4.3 4.3 0 0 1-.125-1.135c.002-.039.027-.066.071-.066.195-.003.446-.039.63-.036.191.003.266.122.274.214.029.352-.02.831-.013 1.392.004.297.022.736-.006.977-.02.177-.141.217-.251.245M77.271 162.532c-.335-.02-.707-.021-1.058-.013-.012.001-.046-.018-.051-.051a4 4 0 0 1-.03-.495c0-.217 0-.569.01-.902.001-.028.014-.082.055-.083.09-.004.145-.024.208-.042.034-.009.045-.041.039-.082-.056-.352-.18-.688-.166-1.058.002-.044.053-.085.091-.086.245-.006.472.003.708.015.035.002.062.048.064.071.038.395-.11.772-.157 1.142-.003.022.005.093.049.101.058.011.145.01.226.014.046.003.067.055.067.087.003.355-.011.998.004 1.334.002.034-.033.049-.059.048M78.637 162.541c-.1.026-.53.01-.847-.002a.084.084 0 0 1-.082-.085c.005-.34.006-.968.01-1.305.001-.027.034-.073.09-.073.086-.002.15.021.213-.002.041-.016.044-.087.036-.124a4.3 4.3 0 0 1-.124-1.135c.002-.039.026-.066.07-.067.195-.002.447-.038.631-.035.19.002.266.121.273.213.03.353.015.892.022 1.453.004.297-.012.676-.04.917-.021.177-.142.217-.252.245" clip-rule="evenodd"/><path fill="#FF681D" d="M75.498 157.742a.3.3 0 0 1-.18-.057c-.01-.007-.021-.051-.016-.084.053-.354.138-.739.068-1.086a.06.06 0 0 0-.059-.048c-.1-.001-.312.014-.5.023-.107.005-.199.012-.309.015-.046.001-.065.043-.065.065.002.399.076.77.129 1.163.007.055-.004.106-.04.11a1 1 0 0 1-.25.001c-.038-.006-.052.041-.053.064-.005.326-.006.941-.01 1.289-.001.06.049.109.108.109.548.007.971-.017 1.293-.028a.114.114 0 0 0 .111-.115c.001-.379-.009-1.038-.006-1.378 0-.014-.04-.049-.071-.048zM73.49 157.697c.051-.364.142-.727.156-1.121.001-.04-.036-.071-.076-.072-.184-.005-.474-.01-.68-.013-.142-.003-.242.098-.237.255.002.085.006.187.011.297.015.311-.003.542-.014.714-.014.357-.036.847-.026 1.065.01.219.002.463.243.464.299.001.606.012.89.014a.075.075 0 0 0 .077-.077 59 59 0 0 1-.004-1.331c0-.031-.025-.063-.069-.06a.8.8 0 0 1-.226-.013c-.026-.007-.048-.093-.044-.122M75.539 160.992a.3.3 0 0 1-.18-.057c-.01-.007-.022-.051-.017-.084.053-.354.139-.739.069-1.086a.06.06 0 0 0-.06-.049c-.1 0-.311.015-.5.024-.107.005-.198.012-.308.015-.047.001-.065.043-.065.065.001.398.076.77.128 1.162.008.056-.004.107-.04.111a1 1 0 0 1-.25.001c-.037-.006-.052.04-.052.064-.005.326-.006.94-.011 1.289 0 .059.05.108.109.109.547.007.97-.017 1.292-.028a.115.115 0 0 0 .112-.115c0-.379-.01-1.038-.007-1.378 0-.014-.039-.049-.07-.048-.055 0-.1.004-.15.005M73.531 160.947c.05-.364.141-.727.155-1.122.002-.039-.036-.07-.075-.071-.185-.005-.475-.01-.681-.014-.142-.002-.242.099-.237.255.003.086-.002.23 0 .34.003.311-.005.475-.002.697.004.357-.037.821-.027 1.04s.003.463.243.464c.299.001.607.012.89.014a.075.075 0 0 0 .078-.077 59 59 0 0 1-.004-1.331c0-.032-.026-.063-.07-.061a.7.7 0 0 1-.225-.012c-.027-.008-.049-.094-.045-.122"/><path fill="#DBD0B9" stroke="#00503A" stroke-miterlimit="10" stroke-width=".594" d="M79.558 180.451h-7.56a.945.945 0 0 1-.945-.945v-7.56c0-.522.423-.945.945-.945h7.56c.522 0 .945.423.945.945v7.56a.945.945 0 0 1-.945.945Z"/><path fill="#FF681D" d="M78.09 173.947c-.632-.841-1.489-1.218-2.54-1.135-.49.039-1.27.204-1.917.933-.7.79-.947 2.378-.366 3.489.398.76 1.013 1.194 1.928 1.359 1.305.236 2.97-.412 3.312-1.922.25-1.097-.002-2.17-.417-2.724m-1.946 1.834c-.03.205-.171.409-.443.377s-.357-.293-.323-.486c.033-.182.176-.329.402-.309.227.019.396.189.364.418m.749-.778c-.233-.073-.285-.33-.145-.529.161-.229.501-.131.565.086.085.292-.097.544-.42.443"/><path fill="#DBD0B9" stroke="#00503A" stroke-miterlimit="10" stroke-width=".594" d="M79.558 131.851h-7.56a.945.945 0 0 1-.945-.945v-7.56c0-.522.423-.945.945-.945h7.56c.522 0 .945.423.945.945v7.56a.945.945 0 0 1-.945.945Z"/><path fill="#00503A" fill-rule="evenodd" d="M78.466 127.994a.26.26 0 0 1-.089.107c-.202.052-.43.199-.656.241-.249.047-.273-.018-.247-.223.027-.209.07-.508.072-.567.004-.096.043-.454.057-.814.014-.357.021-.615.003-.97-.007-.138-.048-.436.075-.562.059-.061.28-.154.355-.206.187-.128.221-.168.374-.311.182-.17.228.182.26.355.13.73.102 1.347.009 1.937-.03.19-.122.767-.213 1.013M76.726 125.437a7 7 0 0 1-1.605.109l-.022-.001c-.131-.002-.25-.018-.37-.033a5 5 0 0 1-1.646-.567v.005c-.132-.081-.268-.06-.298.1-.033.181-.059.297-.079.415-.026.156-.05.428-.053.49a5 5 0 0 0 0 .685 4.2 4.2 0 0 0 .282 1.221.35.35 0 0 0 .225.216c.354.108.8.321 1.165.379.72.115 1.258.119 1.983.081.08-.004.352-.02.45-.037.094-.017.26-.153.29-.316.036-.2.095-.449.108-.682.02-.326.075-.686.075-.973 0-.192-.03-.668-.032-.831-.001-.176-.161-.323-.473-.261M73.384 128.508c.797.354 1.107.408 1.277.429.325.038.689.052.999.052.217 0 .553-.012.809-.022.19-.008.33.074.296.248a10 10 0 0 1-.276 1.05c-.145.402-.156.503-.574.524a5 5 0 0 1-1.035-.056c-.22-.028-.51-.106-.608-.23a3.6 3.6 0 0 1-.557-.919c-.152-.339-.367-.683-.468-.965-.03-.084.071-.14.137-.111M78.29 128.938c.05-.128.184-.332.031-.341-.08-.004-.792.188-.854.208-.084.029-.152.152-.194.335-.047.203-.11.347-.144.525-.02.096-.101.371-.133.486-.028.099-.068.208-.125.378-.015.046-.007.136.093.119.153-.027.384-.126.417-.144a.4.4 0 0 0 .134-.132l.001.004c.297-.406.564-.892.774-1.438" clip-rule="evenodd"/><path fill="#FF681D" d="M73.843 124.814c-.463-.124-.593-.265-.685-.35-.078-.072-.077-.21-.06-.271.032-.122.129-.241.275-.342.496-.341 1.842-.435 2.14-.449.367-.016 1.125.061 1.494.114.346.05.727.158.91.214.138.042.419.192.394.429-.027.25-.307.401-.462.474-.39.184-.778.251-1.323.334a6.5 6.5 0 0 1-1.974.012 12 12 0 0 1-.709-.165"/><path fill="#EEEFEA" stroke="#00503A" stroke-miterlimit="10" stroke-width=".594" d="M95.76 148.136h-7.562a.945.945 0 0 1-.945-.945v-7.561c0-.522.424-.945.945-.945h7.561c.522 0 .945.423.945.945v7.561a.945.945 0 0 1-.945.945Z"/><path fill="#00503A" d="M92.79 145.135v.378a.19.19 0 0 1-.188.189h-.378a.19.19 0 0 0-.19.189v1.134a.19.19 0 0 1-.188.189h-.378a.19.19 0 0 1-.19-.189v-1.134a.19.19 0 0 0-.189-.189h-2.646a.19.19 0 0 1-.189-.189v-1.323c0-.679.26-1.269.567-1.701l.878-1.306c.288-.372.445-.825.445-1.466v.125c0-.035 0-.189.19-.189h1.512a.19.19 0 0 1 .189.189v4.915a.19.19 0 0 0 .189.189h.378a.19.19 0 0 1 .189.189m-1.511-.378v-.378a.19.19 0 0 0-.19-.189h-1.512a.567.567 0 0 0-.567.567.19.19 0 0 0 .19.189h1.89a.19.19 0 0 0 .189-.189"/><path fill="#EEEFEA" stroke="#00503A" stroke-miterlimit="10" stroke-width=".594" d="M111.965 148.136h-7.561a.945.945 0 0 1-.945-.945v-7.561c0-.522.423-.945.945-.945h7.561c.522 0 .945.423.945.945v7.561a.945.945 0 0 1-.945.945Z"/><path fill="#00503A" d="M108.237 142.111v-2.269a.19.19 0 0 0-.189-.189h-3.403a.19.19 0 0 0-.189.189v2.458c0 .626.508 1.134 1.135 1.134h1.512c.208 0 .378.169.378.378v.296h-.001a.47.47 0 0 1-.471.46h-1.418a.38.38 0 0 1-.379-.378v-.189a.19.19 0 0 0-.189-.189h-.378a.19.19 0 0 0-.189.189v1.284c0 1.03.808 1.9 1.837 1.928a1.89 1.89 0 0 0 1.944-1.889v-1.512c0-.627-.508-1.134-1.134-1.134h-1.796a.096.096 0 0 1-.095-.095v-.283h2.836a.19.19 0 0 0 .189-.189"/><path fill="#EEEFEA" stroke="#00503A" stroke-miterlimit="10" stroke-width=".594" d="M128.141 148.136h-7.561a.945.945 0 0 1-.945-.945v-7.561c0-.522.423-.945.945-.945h7.561c.521 0 .945.423.945.945v7.561a.946.946 0 0 1-.945.945Z"/><path fill="#00503A" d="M120.628 144.946v.378a1.89 1.89 0 0 0 1.943 1.889c1.03-.028 1.837-.898 1.837-1.928v-.717c0-.835-.677-1.512-1.512-1.512h-.742a1.5 1.5 0 0 0-.634.138.095.095 0 0 1-.136-.085v-.431a.387.387 0 0 1 .387-.378h2.192a.19.19 0 0 0 .189-.189v-2.269a.19.19 0 0 0-.189-.189h-.311a3.024 3.024 0 0 0-3.024 3.025v2.268m1.295-1.134h1.219a.38.38 0 0 1 .344.54.37.37 0 0 1-.344.216h-1.548a.21.21 0 0 1-.21-.21v-.007c0-.298.241-.539.539-.539"/><path fill="#EEEFEA" stroke="#00503A" stroke-miterlimit="10" stroke-width=".594" d="M95.765 164.336h-7.56a.945.945 0 0 1-.946-.945v-7.561c0-.522.424-.945.945-.945h7.561c.522 0 .945.423.945.945v7.561a.945.945 0 0 1-.945.945Z"/><path fill="#00503A" d="M89.017 156.238a.378.378 0 1 0-.756 0v6.805a.378.378 0 1 0 .756 0z"/><path fill="#EEEFEA" stroke="#00503A" stroke-miterlimit="10" stroke-width=".594" d="M111.947 164.336h-7.561a.945.945 0 0 1-.945-.945v-7.561c0-.522.423-.945.945-.945h7.561c.522 0 .945.423.945.945v7.561a.945.945 0 0 1-.945.945Z"/><path fill="#00503A" d="M106.707 158.506h.284c.257 0 .465.205.471.461a.35.35 0 0 1-.306.34l-.886.111a2.094 2.094 0 0 0-1.831 2.075v1.739c0 .104.084.189.189.189h3.402a.19.19 0 0 0 .189-.189v-2.268a.19.19 0 0 0-.189-.189h-2.435c-.08 0-.125-.096-.072-.156.209-.242.504-.409.841-.451l.886-.11c.554-.07.969-.54.969-1.098v-1.21a1.89 1.89 0 0 0-1.943-1.889c-1.03.028-1.837.899-1.837 1.929v1.389c0 .104.084.189.189.189h.378a.19.19 0 0 0 .189-.189v-.106c0-.313.254-.567.567-.567z"/><path fill="#EEEFEA" stroke="#00503A" stroke-miterlimit="10" stroke-width=".594" d="M128.153 164.336h-7.561a.945.945 0 0 1-.945-.945v-7.561c0-.522.423-.945.945-.945h7.561c.522 0 .945.423.945.945v7.561a.945.945 0 0 1-.945.945Z"/><path fill="#00503A" d="M120.64 156.049v2.268c0 .105.084.189.189.189h2.835v.378a.38.38 0 0 1-.378.378h-.936a.19.19 0 0 0-.189.189v.378c0 .105.085.189.189.189h.936c.221 0 .398.19.376.416a.39.39 0 0 1-.392.341h-1.241a.567.567 0 0 1-.567-.568.19.19 0 0 0-.189-.189h-.444a.19.19 0 0 0-.189.189v1.284c0 1.03.807 1.901 1.837 1.929a1.89 1.89 0 0 0 1.943-1.889v-.756c0-.417-.17-.795-.444-1.069a.093.093 0 0 1 0-.131c.274-.274.444-.652.444-1.069v-2.457a.19.19 0 0 0-.189-.189h-3.402a.19.19 0 0 0-.189.189"/><path fill="#EEEFEA" stroke="#00503A" stroke-miterlimit="10" stroke-width=".594" d="M95.753 180.536h-7.56a.945.945 0 0 1-.946-.945v-7.561c0-.522.423-.945.945-.945h7.561c.522 0 .945.423.945.945v7.561a.945.945 0 0 1-.945.945Z"/><path fill="#FF681D" d="M90.202 172.004h-1.386a.63.63 0 0 0-.63.63v1.386c0 .348.282.63.63.63h1.386a.63.63 0 0 0 .63-.63v-1.386a.63.63 0 0 0-.63-.63"/><path fill="#EEEFEA" stroke="#00503A" stroke-miterlimit="10" stroke-width=".594" d="M111.953 180.536h-7.561a.945.945 0 0 1-.945-.945v-7.561c0-.522.423-.945.945-.945h7.561c.522 0 .945.423.945.945v7.561a.945.945 0 0 1-.945.945Z"/><path fill="#00503A" d="M108.229 172.803v-.567a.19.19 0 0 0-.189-.189h-3.403a.19.19 0 0 0-.189.189v2.268a.19.19 0 0 0 .189.189h2.607a.19.19 0 0 1 .185.231 1.5 1.5 0 0 1-.501.801l-.907.757a2.27 2.27 0 0 0-.817 1.743v1.193c0 .105.085.189.189.189h.378a.19.19 0 0 0 .189-.189v-1.194c0-.448.2-.874.544-1.161l.909-.757a2.27 2.27 0 0 0 .816-1.742z"/><path fill="#EEEFEA" stroke="#00503A" stroke-miterlimit="10" stroke-width=".594" d="M128.432 171.211h-8.101a.675.675 0 0 0-.675.675v8.101c0 .373.303.675.675.675h8.101a.675.675 0 0 0 .675-.675v-8.101a.675.675 0 0 0-.675-.675ZM95.753 131.936h-7.56a.945.945 0 0 1-.946-.945v-7.561c0-.522.423-.945.945-.945h7.56c.523 0 .946.423.946.945v7.561a.945.945 0 0 1-.945.945Z"/><path fill="#00503A" d="M92.029 124.203v-.567a.19.19 0 0 0-.19-.189h-3.402a.19.19 0 0 0-.189.189v2.268a.19.19 0 0 0 .19.189h2.606c.121 0 .213.113.185.231a1.5 1.5 0 0 1-.5.801l-.909.757a2.27 2.27 0 0 0-.816 1.743v1.193c0 .105.085.189.19.189h.377a.19.19 0 0 0 .19-.189v-1.194c0-.448.199-.874.543-1.161l.909-.757a2.27 2.27 0 0 0 .816-1.742z"/><path fill="#EEEFEA" stroke="#00503A" stroke-miterlimit="10" stroke-width=".594" d="M111.941 131.936h-7.561a.945.945 0 0 1-.945-.945v-7.561c0-.522.423-.945.945-.945h7.561c.522 0 .945.423.945.945v7.561a.945.945 0 0 1-.945.945Z"/><path fill="#00503A" d="M106.323 131.007a1.89 1.89 0 0 1-1.891-1.89v-.756c0-.451.199-.857.514-1.134a1.5 1.5 0 0 1-.514-1.134v-.756a1.89 1.89 0 0 1 3.781 0v.756c0 .451-.199.857-.514 1.134.315.277.514.683.514 1.134v.756a1.89 1.89 0 0 1-1.89 1.89m-.369-3.402h-.387a.378.378 0 1 0 0 .756h1.512a.378.378 0 1 0 0-.756m-.388 0v-.756h.388a.378.378 0 1 0 0-.756h-1.512a.378.378 0 1 0 0 .756h1.512zm-.737-.756-.387.756h1.512"/><path fill="#EEEFEA" stroke="#00503A" stroke-miterlimit="10" stroke-width=".594" d="M128.147 131.936h-7.561a.945.945 0 0 1-.945-.945v-7.561c0-.522.423-.945.945-.945h7.561c.521 0 .945.423.945.945v7.561a.946.946 0 0 1-.945.945Z"/><path fill="#00503A" d="M124.414 125.715v-.378a1.89 1.89 0 0 0-1.943-1.89c-1.03.029-1.837.899-1.837 1.929v.717c0 .834.678 1.512 1.512 1.512h.742c.281 0 .544-.076.77-.209v.587a.387.387 0 0 1-.387.378h-2.192a.19.19 0 0 0-.189.189v2.268c0 .105.085.189.189.189h.302a3.033 3.033 0 0 0 3.033-3.024v-2.268m-1.295 1.134H121.9a.38.38 0 0 1-.344-.54.37.37 0 0 1 .344-.216h1.548a.21.21 0 0 1 .21.21v.007a.54.54 0 0 1-.539.539"/><path fill="#00503A" stroke="#00503A" stroke-miterlimit="10" stroke-width=".594" d="M156.799 116.313a5.4 5.4 0 1 0 0-10.802 5.4 5.4 0 0 0 0 10.802Z"/><path fill="#FF681D" stroke="#00503A" stroke-miterlimit="10" stroke-width=".594" d="M140.594 116.313a5.4 5.4 0 1 0 0-10.802 5.4 5.4 0 0 0 0 10.802Z"/><path fill="#EEEFEA" stroke="#00503A" stroke-miterlimit="10" stroke-width=".594" d="M59.586 116.313a5.4 5.4 0 1 0 0-10.802 5.4 5.4 0 0 0 0 10.802Z"/><path fill="#EEEFEA" stroke="#00503A" stroke-miterlimit="10" stroke-width=".594" d="M59.587 113.612a2.7 2.7 0 1 0 0-5.4 2.7 2.7 0 0 0 0 5.4Z"/><path fill="#FF681D" stroke="#00503A" stroke-miterlimit="10" stroke-width=".594" d="M140.596 113.612a2.7 2.7 0 1 0 0-5.4 2.7 2.7 0 0 0 0 5.4Z"/><path fill="#00503A" stroke="#00503A" stroke-miterlimit="10" stroke-width=".594" d="M156.796 113.612a2.7 2.7 0 1 0 0-5.4 2.7 2.7 0 0 0 0 5.4Z"/><path fill="#DBD0B9" stroke="#00503A" stroke-miterlimit="10" stroke-width=".594" d="M73.075 136.108a.675.675 0 1 0 0-1.35.675.675 0 0 0 0 1.35ZM89.276 136.108a.675.675 0 1 0 0-1.35.675.675 0 0 0 0 1.35ZM105.48 136.108a.675.675 0 1 0 0-1.35.675.675 0 0 0 0 1.35ZM121.682 136.108a.675.675 0 1 0 0-1.35.675.675 0 0 0 0 1.35ZM73.075 152.309a.675.675 0 1 0 0-1.35.675.675 0 0 0 0 1.35ZM89.276 152.309a.675.675 0 1 0 0-1.35.675.675 0 0 0 0 1.35ZM105.48 152.309a.675.675 0 1 0 0-1.35.675.675 0 0 0 0 1.35ZM121.682 152.309a.675.675 0 1 0 0-1.35.675.675 0 0 0 0 1.35ZM73.075 168.511a.675.675 0 1 0 0-1.35.675.675 0 0 0 0 1.35ZM89.276 168.511a.675.675 0 1 0 0-1.35.675.675 0 0 0 0 1.35ZM105.48 168.511a.675.675 0 1 0 0-1.35.675.675 0 0 0 0 1.35ZM137.883 168.511a.676.676 0 1 0 0-1.351.676.676 0 0 0 0 1.351ZM121.682 168.511a.675.675 0 1 0 0-1.35.675.675 0 0 0 0 1.35ZM143.282 168.511a.675.675 0 1 0 0-1.35.675.675 0 0 0 0 1.35ZM73.075 119.906a.675.675 0 1 0 0-1.35.675.675 0 0 0 0 1.35ZM89.276 119.906a.675.675 0 1 0 0-1.35.675.675 0 0 0 0 1.35ZM105.48 119.906a.675.675 0 1 0 0-1.35.675.675 0 0 0 0 1.35ZM121.682 119.906a.675.675 0 1 0 0-1.35.675.675 0 0 0 0 1.35Z"/><path stroke="#00503A" stroke-miterlimit="10" stroke-width=".594" d="M54.86 156.817h9.452"/><path stroke="#00503A" stroke-linecap="square" stroke-width=".594" d="M156.797 158.167v2.7M155.447 159.517h2.7M139.246 159.517h2.7"/><path fill="#DBD0B9" stroke="#00503A" stroke-miterlimit="10" stroke-width=".594" d="M59.587 159.517a2.7 2.7 0 1 0 0-5.4 2.7 2.7 0 0 0 0 5.4Z"/><path fill="#EEEFEA" d="M162.2 143.315h-10.802v5.401H162.2z"/><path fill="#00503A" d="M168.193 67.71H48.073v32.401h120.12z"/><g clip-path="url(#clip1_177_30133)"><path fill="#DBD0B9" d="M129.84 35.298h37.83v32.43h-37.83z"/><rect width="27.27" height="27.27" x="135.12" y="37.878" fill="#131213" rx="13.635"/><rect width="27.27" height="27.27" x="135.12" y="37.878" stroke="#131213" stroke-width=".5" rx="13.635"/><path fill="#DBD0B9" d="M129.84 35.298h37.83v2.951h-37.83z"/><path stroke="#00503A" stroke-width=".594" d="M129.84 35.298h37.83v2.951h-37.83z"/><path fill="#DBD0B9" d="M129.84 39.509h37.83v2.951h-37.83z"/><path stroke="#00503A" stroke-width=".594" d="M129.84 39.509h37.83v2.951h-37.83z"/><path fill="#DBD0B9" d="M129.84 43.72h37.83v2.951h-37.83z"/><path stroke="#00503A" stroke-width=".594" d="M129.84 43.72h37.83v2.951h-37.83z"/><path fill="#DBD0B9" d="M129.84 47.931h37.83v2.951h-37.83z"/><path stroke="#00503A" stroke-width=".594" d="M129.84 47.931h37.83v2.951h-37.83z"/><path fill="#DBD0B9" d="M129.84 52.143h37.83v2.951h-37.83z"/><path stroke="#00503A" stroke-width=".594" d="M129.84 52.143h37.83v2.951h-37.83z"/><path fill="#DBD0B9" d="M129.84 56.354h37.83v2.951h-37.83z"/><path stroke="#00503A" stroke-width=".594" d="M129.84 56.354h37.83v2.951h-37.83z"/><path fill="#DBD0B9" d="M129.84 60.565h37.83v2.951h-37.83z"/><path stroke="#00503A" stroke-width=".594" d="M129.84 60.565h37.83v2.951h-37.83z"/><path fill="#DBD0B9" d="M129.84 64.777h37.83v2.951h-37.83z"/><path stroke="#00503A" stroke-width=".594" d="M129.84 64.777h37.83v2.951h-37.83z"/></g><path stroke="#00503A" stroke-width=".594" d="M129.84 35.298h37.83v32.43h-37.83z"/><path fill="#EEEFEA" stroke="#00503A" stroke-miterlimit="10" stroke-width=".594" d="M129.827 35.28H48.763v32.404h81.064z"/><path stroke="#00503A" stroke-linejoin="round" stroke-width=".594" d="M51.487 39.355a1.35 1.35 0 1 0 0-2.7 1.35 1.35 0 0 0 0 2.7ZM51.487 66.358a1.35 1.35 0 1 0 0-2.7 1.35 1.35 0 0 0 0 2.7ZM127.096 39.355a1.35 1.35 0 1 0 0-2.7 1.35 1.35 0 0 0 0 2.7ZM127.096 66.358a1.35 1.35 0 1 0 0-2.7 1.35 1.35 0 0 0 0 2.7Z"/><path fill="#00503A" d="M62.678 54.77h-.607a.304.304 0 0 1-.304-.305V42.92c0-.167.136-.303.303-.303h.608c.168 0 .304.136.304.303v11.547a.304.304 0 0 1-.304.303m17.193-.305V42.92a.304.304 0 0 0-.303-.303h-.608a.304.304 0 0 0-.304.303v11.547c0 .167.136.303.304.303h.608a.304.304 0 0 0 .303-.303m-9.597-8.81v6.076a3.04 3.04 0 0 1-3.038 3.038H64.5a.304.304 0 0 1-.304-.304V42.92c0-.167.136-.303.304-.303h2.735a3.04 3.04 0 0 1 3.038 3.038m-1.22 3.159a1.823 1.823 0 0 0-1.818-1.945h-1.52a.304.304 0 0 0-.303.304v3.039c0 .167.136.303.304.303h1.456c.971 0 1.82-.732 1.882-1.701m8.454-3.16v6.077a3.04 3.04 0 0 1-3.038 3.038h-2.735a.304.304 0 0 1-.303-.304V42.92c0-.167.136-.303.303-.303h2.735a3.04 3.04 0 0 1 3.038 3.038m-1.219 3.16a1.823 1.823 0 0 0-1.82-1.945h-1.518a.304.304 0 0 0-.304.304v3.039c0 .167.136.303.304.303h1.457c.97 0 1.818-.732 1.881-1.701m-15.69-3.16v2.069c0 .505-.206.963-.54 1.293a.155.155 0 0 0-.011.21c.344.42.551.953.551 1.536v3.703a.304.304 0 0 1-.303.304h-.608a.304.304 0 0 1-.304-.304v-3.703c0-.671-.544-1.215-1.215-1.215h-2.43v4.918a.304.304 0 0 1-.305.304h-.607a.304.304 0 0 1-.304-.304V42.92c0-.167.136-.303.304-.303h2.734a3.04 3.04 0 0 1 3.039 3.038m-1.103 1.815c-.062-.356-.399-.6-.76-.6h-2.694a.304.304 0 0 0-.304.304v.855c0 .167.136.303.304.303h2.734c.447 0 .8-.4.72-.862m30.384-4.838c-1.36-.403-2.635.121-3.356 1.084-.721-.963-1.996-1.487-3.356-1.084-1.269.376-2.113 1.578-2.113 2.901v8.933c0 .168.136.304.303.304h.608a.304.304 0 0 0 .304-.304v-5.71c0-.971.733-1.819 1.702-1.882a1.823 1.823 0 0 1 1.944 1.82v5.772c0 .168.136.304.304.304h.608a.304.304 0 0 0 .303-.304v-5.71c0-.971.733-1.819 1.702-1.882a1.823 1.823 0 0 1 1.945 1.82v5.772c0 .168.135.304.303.304h.608a.304.304 0 0 0 .304-.304v-8.933c0-1.323-.845-2.525-2.113-2.9"/></g><defs><clipPath id="clip0_177_30133"><path fill="#fff" d="M48.193 29.14h120v163.206h-120z"/></clipPath><clipPath id="clip1_177_30133"><path fill="#fff" d="M129.84 35.298h37.83v32.43h-37.83z"/></clipPath></defs></svg>