<svg xmlns="http://www.w3.org/2000/svg" width="217" height="222" fill="none"><path fill="#00503A" d="M.125.992c0-.102 0-.19.004-.253A1 1 0 0 1 .14.633a.51.51 0 0 1 .105-.25.5.5 0 0 1 .395-.191h.027L.727.188l.23-.016.297-.02.3-.019q.317-.02.634-.02h.3l.301.004q.304.001.61.008l.3.004L4 .137q.322.007.645.043l.296.035.301.031q.226.026.453-.015l.602-.11q.381-.07.766-.011l.3.043.301.046q.225.037.45.004l.3-.043.3-.046a4.6 4.6 0 0 1 .673-.047h.601q.326.001.653.035l.297.031.3.031q.276.03.551.032h.3l.302.003q.27.002.539-.03l.3-.036.297-.035q.354-.043.707-.012l.301.031.3.028q.257.024.513.004l.601-.047q.316-.027.633-.031l.297-.004.3-.004q.346-.005.688.05l.602.102q.245.039.488.024l.3-.016.302-.02q.325-.018.652-.004l.297.012.3.016q.276.012.551-.004l.301-.02.3-.015a4 4 0 0 1 .688.023l.301.035.297.04q.247.03.492.003l.301-.03.297-.028c.228-.023.46-.028.687-.012l.297.02.301.023q.295.019.59.031l.602.031q.213.01.437-.054l.3-.086.298-.086c.295-.085.597-.081.89.012l.301.097.3.094a.5.5 0 0 0 .31.004l.296-.086.301-.086q.385-.113.781-.082l.602.047q.32.025.64.078l.602.102q.223.036.445.003l.301-.042.297-.043q.36-.053.719-.02l.601.055q.26.022.52.004l.3-.02.298-.02q.284-.02.57-.058l.3-.04.297-.042c.243-.033.488-.03.731 0l.3.035.302.04q.258.03.515.019l.602-.024q.36-.013.718.063l.301.058.301.063q.238.051.473.039l.297-.02.3-.015q.297-.016.594-.035l.3-.02.302-.023q.335-.023.672.004l.3.023.297.023c.168.013.34.008.508-.011l.297-.035.3-.032q.368-.043.735.012l.602.094q.228.034.457.004l.3-.04.297-.038q.315-.042.63-.067l.3-.023.3-.02q.317-.024.634-.027l.3-.004.297-.004q.315-.003.63.012l.6.031q.274.012.548-.004l.3-.016.301-.02a2.5 2.5 0 0 1 .754.079l.297.078.3.074q.237.062.466.059l.601-.016a2 2 0 0 0 .484-.066l.602-.156q.398-.101.8-.04l.298.044.3.046q.284.044.567.067l.3.023.298.028q.226.017.457-.032l.601-.125q.367-.076.738-.05l.301.023.297.02q.292.019.582.027l.3.012.298.007q.308.01.617.028l.3.015.298.02q.296.018.593.031l.301.016.3.012a1.7 1.7 0 0 0 .466-.043l.601-.133c.28-.063.563-.06.84.015l.602.164q.235.062.46.06l.602-.009.606-.004.297-.004h.3q.23 0 .465-.066l.602-.172q.414-.118.836-.035l.3.062.297.06q.213.041.422.007l.297-.05.3-.048q.356-.06.712-.039l.3.016.301.02q.278.014.555.003l.3-.008.302-.011q.367-.012.73.074l.3.07.298.07q.226.054.445.036l.3-.024.302-.027q.315-.025.633-.027l.601-.008q.249-.003.5-.059l.297-.066.3-.067q.377-.08.758-.043l.301.028.297.031q.316.03.633.082l.3.047.298.05q.267.043.53.048l.302.007.3.004q.26.005.52-.031l.3-.043.301-.039a3 3 0 0 1 .715-.016l.602.055q.287.028.574.043l.3.012.302.015q.263.013.527-.011l.3-.032.302-.027q.322-.03.644-.031h.3l.302-.004q.27-.001.539-.035l.3-.035.297-.04c.223-.028.45-.041.672-.039l.297.004.301.004q.28.005.563-.011l.3-.02.297-.02q.387-.024.766.079l.601.164a.66.66 0 0 0 .344.004l.3-.079.302-.074q.377-.096.761-.066l.301.027.3.024q.324.026.645.082l.301.054.301.051q.225.042.45.016l.3-.04.3-.034q.338-.043.677-.036l.3.012.301.008q.266.009.531-.02l.602-.062q.351-.038.703-.004l.297.031.301.031q.235.023.472-.015l.602-.094a2.5 2.5 0 0 1 .746-.004l.602.086q.253.037.507.027l.602-.023q.329-.013.656.012l.301.023.301.02q.235.018.472-.024l.297-.058.301-.055q.38-.07.762-.016l.601.086q.269.04.536.043l.3.004.297.004q.261.003.524-.035l.601-.086q.406-.056.805.055l.301.086.3.082q.178.05.352.007l.301-.066.301-.07q.366-.086.738-.067l.301.02.3.015q.321.018.641.063l.602.086q.232.034.464.004l.602-.078q.34-.045.68-.032l.3.008.301.012c.173.006.346.002.52-.02l.301-.039.3-.035a2.6 2.6 0 0 1 .746.016l.297.05.301.055q.243.04.484.024l.301-.02.297-.02q.297-.019.594-.042l.601-.047q.328-.026.657-.016l.3.012.301.008.594.02.301.011.301.008q.32.009.64.043l.301.031.297.031q.242.027.484-.004l.602-.078q.306-.038.613-.066l.301-.027.301-.032c.254-.024.51-.003.761.055l.297.066.301.07q.213.051.422.024l.601-.078q.36-.046.719-.008l.301.035.301.032q.281.031.562.043l.297.007.301.012q.294.01.59.012l.601.008q.296.004.59.004h.301l.301-.004q.226 0 .461-.067l.3-.086.301-.09q.362-.105.731-.109l.601-.008q.36-.003.715.078l.602.133q.23.052.457.035l.297-.02.3-.019a3.3 3.3 0 0 1 .711.028l.301.046.297.043q.234.036.469.008l.3-.031.301-.035a4 4 0 0 1 .692-.016l.297.02.3.02q.266.017.532 0l.601-.048q.317-.023.633-.023h.602q.254 0 .511-.047l.297-.055.301-.054q.382-.07.765-.012l.602.094q.23.034.457.004l.301-.04.297-.042q.371-.05.742.007l.301.043.3.047q.286.045.571.07l.301.028.3.031q.258.023.516.004l.301-.02.301-.023q.331-.023.664-.004l.3.016.297.015q.272.016.543 0l.301-.019.301-.016q.323-.02.644-.011l.301.011.301.008q.236.008.476-.043l.602-.133q.368-.08.738-.058l.297.02.301.019q.289.017.578.02l.297.007.301.004q.322.004.644.035l.297.028.301.03q.233.025.469-.015l.3-.05.297-.051q.417-.07.825.05l.3.086.301.09q.214.062.418.043l.301-.023.301-.028q.34-.026.679 0l.301.024.297.023q.278.022.555.016l.3-.004.297-.004q.295-.004.59-.016l.602-.023q.288-.012.578-.035l.601-.047q.281-.022.563-.066l.297-.047.301-.047q.38-.06.761.004l.602.101q.247.042.492.032l.602-.024q.346-.015.691.031l.297.04.301.042q.2.029.406-.027l.297-.078.301-.082q.388-.104.785-.059l.601.07q.265.03.528.02l.297-.008.3-.011q.313-.01.625-.004l.297.004.301.004q.327.002.652.039l.297.035.301.031q.224.027.449-.016l.301-.058.297-.059q.352-.07.707-.062l.301.004.3.007q.325.008.649.047l.601.07q.263.032.524.024l.601-.016q.33-.008.661.024l.3.027.297.028q.272.023.543.015l.602-.015q.328-.008.656.023l.602.055q.26.023.519.004l.301-.02.301-.023q.269-.018.539-.067l.301-.058.3-.055q.359-.067.719-.047l.602.031q.284.014.57.012h.301l.297-.004q.283.001.566-.02l.301-.023.297-.023q.324-.026.648-.02l.301.008.301.004q.318.006.636.035l.301.031.301.028q.26.024.519.007l.301-.015.301-.02q.348-.022.695.024l.602.078q.291.037.582.066l.301.031.301.028q.25.024.5 0l.3-.028.301-.03a4 4 0 0 1 .68-.012l.601.039q.26.016.52-.008l.601-.055q.305-.029.61-.05l.301-.02.3-.024q.33-.021.66-.004l.602.032q.265.013.531-.012l.297-.027.301-.024q.333-.03.668-.015l.601.03q.266.014.532-.01l.601-.056q.387-.032.766.067l.601.156c.227.058.468.186.606.422l.102.273.035.215.039.219q.048.285.035.621l-.024.602q-.01.27.012.539l.028.3.023.301q.024.291.059.582l.07.602q.045.394-.055.781l-.078.3-.074.302q-.055.212-.031.418l.035.3.031.301q.037.315.055.63l.015.3.012.3q.018.34-.019.68l-.032.301-.035.3a2.3 2.3 0 0 0 0 .493l.027.3.032.302q.032.31.05.62l.016.302.02.3q.02.363-.051.723l-.059.3-.062.302q-.05.255-.051.507l-.008.602q-.003.303-.012.605l-.015.602q-.007.225.054.457l.083.3.082.298q.106.396.05.8l-.086.602q-.04.287-.066.574l-.031.301-.028.3a3.3 3.3 0 0 0-.004.52l.04.602q.02.282.058.566l.039.301.043.3q.042.323.055.645l.015.297.012.301q.013.319.004.637l-.008.3-.008.297a3.5 3.5 0 0 1-.089.704l-.071.296-.07.301a1 1 0 0 0-.012.406l.051.297.051.301q.054.325.074.652l.02.297.019.301q.022.35-.023.7l-.078.6a5 5 0 0 0-.039.54l-.008.602q-.004.279.015.558l.039.602q.02.28.059.562l.039.3.043.302c.038.274.012.55-.07.816l-.09.297-.094.3a.8.8 0 0 0-.023.368l.05.3.055.302q.069.389-.004.777l-.054.297-.055.3a.7.7 0 0 0 .023.36l.098.297.094.3q.118.372.121.754v.598q0 .382-.117.754l-.196.602a1 1 0 0 0-.043.394l.032.3.027.302c.019.19.048.38.078.57l.094.602q.059.372.008.746l-.039.3-.043.301a2.6 2.6 0 0 0-.02.504l.031.602q.016.316.012.633l-.004.3-.004.297q-.004.276.02.55l.027.298.027.3q.03.309.047.618l.032.601q.02.35-.032.7l-.043.3-.047.301q-.042.287-.07.574l-.031.301-.027.3q-.03.286-.043.571l-.024.602q-.01.22.051.449l.082.297.082.3q.105.383.074.774l-.054.602a9 9 0 0 1-.075.632l-.093.602q-.03.194.023.395l.082.296.078.301q.106.389.063.785l-.032.301-.035.3q-.031.302-.066.602l-.035.301-.039.301q-.027.23.011.461l.051.3.047.298q.057.344.051.691l-.004.3-.008.302q-.006.309-.023.617l-.016.297-.016.3q-.014.258.016.516l.039.3.035.302q.038.33.035.66l-.007.601a4 4 0 0 1-.067.688l-.055.297-.054.3a1.8 1.8 0 0 0-.024.473l.024.297.023.3q.029.363-.031.724l-.051.3-.051.297a1.1 1.1 0 0 0 .008.418l.125.602q.082.394.012.789l-.109.601a1.2 1.2 0 0 0 0 .422l.054.3.051.298q.07.397-.012.793l-.058.297-.063.3a.8.8 0 0 0 .012.371l.078.297.082.301q.1.371.086.75l-.012.301-.011.297q-.011.308-.032.617l-.019.297-.02.3q-.017.252.016.505l.039.296.039.301a2.3 2.3 0 0 1-.031.774l-.067.3-.062.297a4 4 0 0 0-.078.532l-.02.296-.019.301a3.6 3.6 0 0 0 0 .528l.023.3.024.297q.028.346-.004.692l-.032.3-.027.297q-.022.226.023.453l.059.301.063.301q.069.342.078.688l.008.296.007.301a3 3 0 0 1-.07.719l-.066.3-.063.298a2 2 0 0 0-.047.484l.016.601q.005.252.058.508l.063.297.066.301c.058.272.056.549-.007.82l-.071.297-.07.3q-.05.212-.024.419l.043.3.04.302q.044.337.039.675l-.004.301-.004.297q-.005.322-.039.644l-.063.602a2.7 2.7 0 0 0-.004.504l.028.3.023.302q.028.306.047.613l.031.601q.018.298.039.594l.02.3.023.298q.024.352-.023.703l-.043.3-.039.297a2.4 2.4 0 0 0-.012.497l.047.601q.026.332.008.664l-.02.301-.015.301a8 8 0 0 0-.012.562l.008.301.004.301q.004.313-.008.625l-.012.301-.008.3q-.01.253.028.508l.086.602q.05.339.046.679l-.004.297-.003.301a3.6 3.6 0 0 1-.079.695l-.125.602q-.052.244-.046.484l.015.602q.005.259.051.519l.059.301.054.301q.073.392-.004.785l-.117.602a1.1 1.1 0 0 0-.004.414l.11.601a3.3 3.3 0 0 1 .054.707l-.011.297-.012.301c-.007.187-.003.375.004.563l.023.601q.014.365-.066.727l-.133.601a2 2 0 0 0-.051.485l.004.3.004.297q.006.244.066.492l.141.602q.096.403.02.809l-.059.3-.055.301a4 4 0 0 0-.062.528l-.016.3-.012.301q-.01.219.051.445l.082.301.082.297q.104.379.078.766l-.039.601q-.02.305-.046.61l-.024.296-.027.301a4 4 0 0 0-.004.532l.015.3.02.297q.017.303.031.606l.016.297.015.3q.019.323.008.645l-.023.601a9 9 0 0 1-.047.637l-.031.297-.031.301a6 6 0 0 0-.036.554l-.004.301-.003.297q-.004.255.039.512l.05.301.047.3q.065.379.008.758l-.047.301-.047.297q-.033.217.008.433l.055.301.058.301c.053.284.031.568-.058.844l-.196.601a.8.8 0 0 0-.027.364l.047.3.051.301q.054.326.074.653l.02.296.015.301q.02.329.004.656l-.016.297-.011.301q-.017.315-.051.629l-.063.602a2.6 2.6 0 0 0-.003.5l.054.601a8 8 0 0 0 .071.563l.046.3.051.301q.06.36.031.723l-.027.297-.023.3a6 6 0 0 0-.016.551l.008.602q.006.323-.02.644l-.019.301-.024.301a7 7 0 0 1-.082.648l-.05.301-.055.297q-.037.21.004.422l.054.301.059.3a2.1 2.1 0 0 1 0 .786l-.059.3-.054.301a.8.8 0 0 0 .019.367l.086.297.09.301q.11.375.098.758l-.008.297-.012.3a7 7 0 0 1-.051.645l-.07.602a3 3 0 0 0-.019.511l.019.301.016.297q.02.352-.031.703l-.043.301-.047.297a2 2 0 0 0-.012.484l.027.301.024.301q.025.288.062.578l.043.301.039.296a2.1 2.1 0 0 1-.054.793l-.157.602a.9.9 0 0 0-.019.387l.054.3.051.301q.051.307.094.614l.086.601q.055.4-.047.793l-.078.301-.074.301a1 1 0 0 0-.028.406l.086.601q.047.35.024.7l-.02.3-.015.297q-.018.264.004.528l.027.297.027.3q.03.335.016.668l-.016.301-.012.301q-.012.287-.011.574v.297l.004.301q0 .315-.016.629l-.012.3-.015.297q-.016.295-.024.59l-.004.301-.007.297a2.4 2.4 0 0 0 .039.5l.109.601q.068.382.008.766l-.043.297-.047.301q-.042.277-.059.554l-.039.602q-.015.266.004.531l.024.301.023.297q.025.33.012.66l-.016.301-.012.301q-.01.246.032.496l.047.3.05.301q.06.365.024.731l-.063.601q-.028.286-.039.571l-.015.3-.012.297q-.01.26.023.52l.039.297.036.3a2.7 2.7 0 0 1-.012.743l-.047.296-.047.301a5 5 0 0 0-.055.547l-.011.301-.016.297a3 3 0 0 0 .023.511l.043.301.04.301q.04.303.078.605l.035.297.039.301q.043.341.027.684l-.015.301-.012.3q-.017.34-.086.676l-.063.301-.058.301a.9.9 0 0 0 .004.386l.14.602q.09.391.032.785l-.094.602a1.6 1.6 0 0 0 0 .457l.039.3.043.297q.049.364.008.727l-.071.601a2.7 2.7 0 0 0-.011.504l.047.602q.025.358-.032.715l-.047.301-.05.3a2 2 0 0 0-.016.481l.023.297.024.3q.029.339.008.676l-.02.301-.019.297q-.016.251.015.504l.078.601q.047.364 0 .727l-.078.601q-.036.27-.039.54v.3l-.004.297q-.002.263.035.528l.086.601q.048.33.055.66l.008.297.004.301q.006.291.023.582l.02.301.015.301q.021.396-.101.781l-.094.297-.098.3a.57.57 0 0 0-.007.325l.074.3.078.301q.103.404.027.813l-.109.601q-.044.248-.035.492l.011.301.008.297c.007.201.018.405.024.606l.008.296.007.301q.012.325-.007.649l-.04.601q-.015.224.036.453l.14.602a2 2 0 0 1 .02.797l-.051.301-.055.3q-.044.263-.047.524l-.007.297-.004.3a9 9 0 0 1-.035.637l-.055.602a7 7 0 0 0-.031.562l-.004.297-.004.301q-.004.262.035.523l.043.301.039.301c.038.27.014.622-.266.871l-.148.133-.145.129c-.22.195-.504.256-.761.265l-.301.012-.297.008a4.5 4.5 0 0 1-.676-.024l-.601-.07a1.3 1.3 0 0 0-.434.027l-.301.067-.297.066a3.2 3.2 0 0 1-.71.078h-.602q-.307-.001-.613-.011l-.602-.016a10 10 0 0 1-.633-.039l-.297-.031-.3-.028a1.8 1.8 0 0 0-.473.016l-.301.051-.301.047q-.352.058-.707.039l-.3-.02-.301-.015a12 12 0 0 0-.578-.024l-.297-.004h-.301q-.287-.004-.574.008l-.301.012-.297.011a3 3 0 0 1-.722-.058l-.602-.125a.84.84 0 0 0-.379.012l-.301.074-.297.074a1.76 1.76 0 0 1-.836.004l-.3-.07-.297-.071a.8.8 0 0 0-.371.004l-.301.071-.297.074a1.7 1.7 0 0 1-.848-.012l-.601-.156a1.2 1.2 0 0 0-.422-.039l-.301.031-.301.027q-.286.028-.574.071l-.297.047-.301.042a2.3 2.3 0 0 1-.765-.011l-.301-.055-.297-.055a2.7 2.7 0 0 0-.508-.046l-.3.003h-.301a6 6 0 0 1-.652-.031l-.602-.062a2.4 2.4 0 0 0-.496.004l-.602.062q-.314.033-.629.047l-.601.023q-.337.014-.672-.019l-.297-.031-.301-.028a1.3 1.3 0 0 0-.433.028l-.301.07-.301.074a1.95 1.95 0 0 1-.805.02l-.601-.11a7 7 0 0 0-.559-.078l-.601-.062a1.4 1.4 0 0 0-.442.027l-.297.066-.3.067a2.4 2.4 0 0 1-.758.047l-.301-.028-.301-.031a4 4 0 0 0-.527-.012l-.301.016-.297.012c-.196.009-.394.025-.59.039l-.3.019-.301.024a8 8 0 0 1-.637.019h-.301l-.3-.004a4.3 4.3 0 0 1-.68-.058l-.297-.051-.301-.047a1.5 1.5 0 0 0-.449-.008l-.301.043-.297.043a3 3 0 0 1-.726.012l-.301-.031-.301-.035a7 7 0 0 0-.558-.039l-.602-.016a4 4 0 0 0-.535.016l-.301.031-.301.027a3 3 0 0 1-.714-.016l-.301-.039-.301-.043a1.5 1.5 0 0 0-.445.008l-.301.051-.297.055a2.2 2.2 0 0 1-.777-.004l-.301-.055-.301-.058a1 1 0 0 0-.402.007l-.301.063-.301.066q-.404.086-.808 0l-.602-.125a2.3 2.3 0 0 0-.488-.051l-.602.008a2 2 0 0 0-.476.067l-.301.078-.297.082a1.65 1.65 0 0 1-.859-.004l-.301-.078-.301-.082a.6.6 0 0 0-.328.004l-.301.09-.301.085a1.5 1.5 0 0 1-.89-.007l-.301-.094-.297-.098a.84.84 0 0 0-.379-.031l-.301.043-.3.047a3 3 0 0 1-.719.015l-.602-.054a3 3 0 0 0-.515-.008l-.602.039q-.348.024-.695-.019l-.301-.036-.301-.039a1.6 1.6 0 0 0-.453.012l-.301.047-.3.051a3.7 3.7 0 0 1-.7.047l-.297-.008-.3-.012a5 5 0 0 0-.543.016l-.602.047-.601.05-.297.024-.301.023q-.338.028-.676.004l-.601-.039q-.315-.022-.629-.062l-.297-.04-.301-.035a1.3 1.3 0 0 0-.43.02l-.3.062-.301.067c-.285.062-.572.05-.852-.035l-.301-.094-.3-.09a.95.95 0 0 0-.395-.039l-.297.039-.301.035q-.361.043-.722-.004l-.301-.035-.301-.039a1.1 1.1 0 0 0-.418.023l-.301.075-.3.07a1.85 1.85 0 0 1-.821.016l-.3-.067-.301-.062a1.7 1.7 0 0 0-.461-.035l-.301.019-.301.024a8 8 0 0 0-.562.054l-.602.086a2.3 2.3 0 0 1-.765-.023l-.602-.117a1.6 1.6 0 0 0-.461-.028l-.297.024-.301.027a9 9 0 0 0-.566.066l-.301.047-.301.043a2 2 0 0 1-.8-.039l-.301-.078-.297-.078a.7.7 0 0 0-.348 0l-.3.082-.301.078a2.7 2.7 0 0 1-.738.09l-.297-.008-.301-.004a4.3 4.3 0 0 1-.68-.066l-.301-.055-.296-.051a1.5 1.5 0 0 0-.454-.015l-.3.039-.301.035q-.332.04-.664.039l-.297-.004h-.301a4 4 0 0 1-.687-.062l-.301-.055-.297-.055a1.5 1.5 0 0 0-.449-.012l-.301.04-.297.039a6 6 0 0 1-.656.046l-.301.008-.301.004a11 11 0 0 1-.625-.004l-.601-.023q-.297-.01-.594-.016l-.602-.015a41 41 0 0 1-.605-.02l-.301-.012-.301-.015a4 4 0 0 0-.531.015l-.297.032-.3.027a7 7 0 0 1-.649.035h-.601q-.313-.001-.626-.019l-.601-.032a2 2 0 0 0-.481.035l-.296.059-.301.055a1.9 1.9 0 0 1-.821-.024l-.3-.078-.297-.074a1.2 1.2 0 0 0-.422-.031l-.301.035-.297.031a2.7 2.7 0 0 1-.738-.016l-.297-.046-.301-.047a.9.9 0 0 0-.382.023l-.301.09-.297.086q-.4.117-.809.062l-.601-.085a2.3 2.3 0 0 0-.492-.016l-.301.027-.301.024a3 3 0 0 1-.723-.035l-.3-.055-.301-.051a5 5 0 0 0-.543-.066l-.301-.016-.297-.02a2.2 2.2 0 0 0-.488.028l-.602.101a4.4 4.4 0 0 1-.675.063l-.602.008a3.4 3.4 0 0 1-.699-.067l-.301-.054-.301-.059a.9.9 0 0 0-.387.008l-.3.074-.301.07a2.3 2.3 0 0 1-.766.055l-.601-.062a5 5 0 0 0-.547-.028l-.3.004h-.302a5 5 0 0 0-.547.031l-.297.036-.3.031a2.2 2.2 0 0 1-.77-.047l-.601-.141a1.2 1.2 0 0 0-.426-.027l-.602.07q-.306.035-.613.063l-.3.027-.298.027a2.5 2.5 0 0 1-.753-.046l-.301-.063-.297-.066a1.8 1.8 0 0 0-.473-.039l-.3.011-.297.016a7 7 0 0 0-.56.051l-.3.039-.297.043q-.373.05-.746-.008l-.3-.047-.297-.047a2 2 0 0 0-.485-.019l-.601.047q-.285.023-.57.062l-.602.086a2.9 2.9 0 0 1-.727.004l-.3-.035-.301-.039a1.4 1.4 0 0 0-.45.015l-.296.055-.301.059a1.8 1.8 0 0 1-.836-.047l-.297-.09-.3-.086a.6.6 0 0 0-.333-.008l-.297.078-.3.082a1.7 1.7 0 0 1-.84.016l-.602-.141a.9.9 0 0 0-.39-.004l-.602.118a2.3 2.3 0 0 1-.766.019l-.601-.086a1.4 1.4 0 0 0-.438.012l-.3.055-.297.054a4 4 0 0 1-.684.071l-.602.007q-.315.005-.629-.007l-.297-.012-.3-.008a3 3 0 0 1-.715-.113l-.3-.086-.302-.082a1.6 1.6 0 0 0-.453-.059l-.3.008-.297.008a1.8 1.8 0 0 0-.473.074l-.3.086-.302.09a2.4 2.4 0 0 1-.758.097l-.601-.023a12 12 0 0 1-.625-.043l-.602-.055q-.306-.027-.613-.062l-.3-.035-.297-.035a1.3 1.3 0 0 0-.434.019l-.3.066-.302.071q-.368.081-.742.054l-.3-.023-.301-.02a4 4 0 0 0-.528 0l-.3.02-.301.023q-.392.028-.774-.082l-.3-.086-.301-.089a1.3 1.3 0 0 0-.43-.047l-.3.019-.302.016a4 4 0 0 0-.53.07l-.302.059-.3.062a4 4 0 0 1-.68.078l-.3.012-.298.008q-.322.012-.644-.004l-.297-.016-.3-.011a6 6 0 0 1-.653-.067l-.602-.093a2.4 2.4 0 0 0-.496-.024l-.297.016-.3.019a8 8 0 0 0-.563.051l-.3.043-.302.039a2.1 2.1 0 0 1-.789-.047l-.601-.156a1.2 1.2 0 0 0-.426-.035l-.3.031-.302.027a3.2 3.2 0 0 1-.707-.011l-.601-.071a1.8 1.8 0 0 0-.465.004l-.602.086q-.361.052-.722.016l-.301-.027-.297-.032a7 7 0 0 0-.559-.031l-.3-.004-.297-.004a3 3 0 0 0-.52.035l-.601.094a7 7 0 0 1-.64.07l-.302.02-.297.023q-.315.021-.629.024l-.601.008a4 4 0 0 1-.687-.055l-.301-.047-.301-.051a4 4 0 0 0-.527-.05l-.297-.004-.301-.008a4 4 0 0 0-.54.023l-.296.035-.3.032a2.7 2.7 0 0 1-.74-.02l-.296-.051-.3-.05a1.3 1.3 0 0 0-.43.003l-.301.051-.301.055a6 6 0 0 1-.66.078l-.297.016-.3.019a6 6 0 0 1-.65.004l-.6-.023a16 16 0 0 0-.583-.012l-.3-.004h-.301q-.294-.002-.586.004l-.301.004-.3.008a6 6 0 0 1-.657-.024l-.3-.031-.298-.027a5 5 0 0 0-.547-.02l-.297.004-.3.008a4 4 0 0 0-.532.047l-.601.093a2.4 2.4 0 0 1-.758 0l-.3-.05-.302-.047a17 17 0 0 0-.582-.086l-.3-.043-.301-.039a4 4 0 0 0-.531-.031l-.297.003-.301.004a18 18 0 0 1-.617-.004l-.297-.007-.3-.004a1.7 1.7 0 0 0-.466.054l-.3.075-.301.078q-.411.106-.825.023l-.3-.062-.297-.059a1.2 1.2 0 0 0-.422-.008l-.3.047-.302.051q-.368.06-.738.016l-.3-.036-.297-.035a5 5 0 0 0-.544-.031h-1.199l-.3.004h-.301q-.268 0-.535.035l-.301.035-.301.039q-.37.048-.738-.007l-.301-.047-.297-.043a3 3 0 0 0-.52-.039l-.601.007-.598.008-.601.008-.594.012-.602.015q-.293.006-.585.02l-.602.031a4.6 4.6 0 0 1-.672-.019l-.3-.028-.302-.031a1.4 1.4 0 0 0-.437.027l-.602.141a3 3 0 0 1-.71.078h-.602a21 21 0 0 1-.617-.015l-.602-.024q-.298-.01-.597-.019l-.602-.024a8 8 0 0 0-.563-.004l-.601.024a3.5 3.5 0 0 1-.7-.047l-.3-.051-.3-.047a3 3 0 0 1-.61-.164l-.211-.086-.211-.082a.78.78 0 0 1-.414-.383 1 1 0 0 1-.09-.5l.02-.301.023-.296a3 3 0 0 0-.008-.52l-.031-.301-.027-.3a3.7 3.7 0 0 1-.004-.692l.054-.601q.025-.288.035-.575l.012-.3.012-.297q.01-.261-.02-.524l-.07-.601a3.2 3.2 0 0 1-.004-.711l.035-.301.032-.301a1.7 1.7 0 0 0-.016-.461l-.047-.301-.05-.3a5 5 0 0 1-.067-.668l-.012-.301-.008-.297a2.7 2.7 0 0 1 .078-.734l.149-.602a.75.75 0 0 0 0-.363l-.074-.301-.07-.297a2.8 2.8 0 0 1-.079-.734l.008-.301.008-.297q.01-.336.066-.672l.051-.301.05-.296q.038-.228.009-.454l-.078-.601a3.2 3.2 0 0 1-.012-.711l.027-.297.027-.301a1.7 1.7 0 0 0-.019-.465l-.11-.601a2.8 2.8 0 0 1-.035-.731l.024-.3.027-.297q.024-.298.043-.594l.024-.301.02-.301q.019-.275.01-.55l-.007-.301-.008-.297a8 8 0 0 1 .004-.641l.031-.601q.015-.291.02-.582l.004-.301.008-.301a6 6 0 0 0-.016-.554l-.023-.297-.024-.301a3.6 3.6 0 0 1 .016-.699l.035-.297.039-.301a1.8 1.8 0 0 0-.008-.473l-.039-.3-.043-.301a2.4 2.4 0 0 1 .016-.758L.23 192l.055-.297q.045-.245.035-.488l-.015-.301-.012-.3-.023-.606-.012-.301-.008-.301a16 16 0 0 0-.031-.578l-.02-.3-.023-.301a13 13 0 0 1-.028-.625l-.003-.301L.137 187a4 4 0 0 1 .039-.679l.043-.297.043-.301q.03-.214-.016-.43l-.062-.301-.063-.296a3.5 3.5 0 0 1-.074-.704v-.296l-.004-.301a5 5 0 0 1 .043-.668l.078-.602q.04-.3.082-.601l.086-.602a1.7 1.7 0 0 0-.004-.461l-.039-.301-.043-.296a5 5 0 0 1-.047-.676l.004-.301v-.297l-.035-.531-.04-.301-.042-.297a1.9 1.9 0 0 1 .059-.808l.09-.301.085-.301q.062-.211.043-.414l-.031-.297-.027-.301a6 6 0 0 0-.078-.554l-.055-.301-.059-.301a2.3 2.3 0 0 1-.015-.762l.086-.601q.039-.267.043-.531v-.301l.003-.301q.002-.312.02-.625l.02-.301.015-.301q.016-.269 0-.539l-.02-.3-.015-.297q-.019-.291-.05-.582l-.032-.297-.031-.301a4 4 0 0 1-.008-.691l.047-.602q.02-.262.004-.523l-.024-.301-.02-.301-.038-.605-.016-.301-.02-.301a4 4 0 0 1 .024-.691l.039-.297.04-.301q.03-.26.022-.52l-.011-.3-.008-.301a6 6 0 0 0-.047-.555l-.035-.301-.04-.3a2.5 2.5 0 0 1 .02-.75l.11-.602q.048-.276.07-.551l.027-.301.024-.296q.021-.242-.016-.485l-.094-.601a2.4 2.4 0 0 1 .008-.758l.102-.602q.035-.208-.008-.418l-.059-.3-.062-.297a5 5 0 0 1-.086-.668l-.02-.301-.023-.297a6 6 0 0 1-.008-.652l.012-.301.008-.301a3.4 3.4 0 0 1 .101-.703l.078-.301.075-.297a.75.75 0 0 0 .004-.363l-.075-.301-.07-.301a1.9 1.9 0 0 1-.02-.808l.055-.301.059-.301q.043-.228.02-.453l-.032-.301-.031-.296a4 4 0 0 1-.012-.696l.027-.297.024-.3a6 6 0 0 0 .016-.551l-.008-.301L.258 145a5 5 0 0 0-.04-.547l-.038-.3-.04-.297a2.3 2.3 0 0 1 .036-.77l.066-.301.063-.3a.86.86 0 0 0 0-.379l-.14-.602a4 4 0 0 1-.099-.683l-.02-.301-.015-.301a2.7 2.7 0 0 1 .063-.738l.07-.301.066-.301q.053-.23.04-.457l-.02-.301-.016-.297a7 7 0 0 0-.058-.562l-.086-.602a3 3 0 0 1-.016-.714l.055-.602q.03-.317.082-.633l.047-.297.047-.3q.04-.257.035-.512l-.004-.301L.328 133q-.005-.291-.02-.582l-.03-.601q-.017-.313-.016-.625v-.602c0-.214.013-.427.031-.641l.023-.3.028-.301a1.6 1.6 0 0 0-.028-.457l-.062-.301-.059-.301a3.7 3.7 0 0 1-.07-.695l-.004-.301v-.297a13 13 0 0 0-.016-.578l-.03-.601a14 14 0 0 1-.016-.621l-.004-.301v-.301a31 31 0 0 0-.008-.59l-.016-.601a2.5 2.5 0 0 1 .098-.747l.172-.601a.8.8 0 0 0 .02-.375l-.055-.297-.055-.301a2.6 2.6 0 0 1-.031-.742l.062-.601a1.3 1.3 0 0 0-.027-.434l-.14-.602a2.2 2.2 0 0 1-.04-.777l.04-.301.038-.297a3 3 0 0 0 .024-.515l-.012-.297-.016-.301q-.013-.309-.015-.617l-.008-.602a25 25 0 0 1 0-.609l.008-.602q.004-.353.082-.703l.066-.301.067-.296c.032-.146.036-.291.02-.434l-.036-.301-.035-.297a6 6 0 0 1-.043-.66v-.601q.001-.291-.008-.582l-.023-.602a4.6 4.6 0 0 1 .027-.676l.035-.297.035-.3q.028-.233-.008-.465l-.093-.602a10 10 0 0 1-.082-.629l-.055-.601a2 2 0 0 1 .086-.797l.094-.297.093-.301a.7.7 0 0 0 .02-.351l-.063-.301-.058-.301a4.5 4.5 0 0 1-.082-.676l-.016-.297-.015-.3a8 8 0 0 1-.004-.641l.011-.301.008-.301q.012-.332.067-.664l.05-.3.047-.301q.04-.233.016-.465l-.063-.602a4 4 0 0 1-.011-.68l.015-.3.02-.3q.018-.29.023-.579l.004-.3.008-.302a6 6 0 0 0-.016-.554l-.02-.301-.023-.3a14 14 0 0 0-.05-.579l-.036-.3-.035-.297a7 7 0 0 1-.043-.645l-.015-.602a8 8 0 0 1 .008-.64l.019-.301.016-.3q.016-.278.007-.556l-.015-.601q-.01-.37.082-.734l.078-.301.074-.301a.8.8 0 0 0 .008-.375l-.059-.3-.062-.302a3.2 3.2 0 0 1-.066-.71l.007-.301.004-.301q.009-.3.016-.598l.004-.3.008-.301q.004-.338.058-.672l.051-.297.05-.3q.042-.252.032-.5l-.023-.602a2.6 2.6 0 0 0-.07-.5l-.15-.602a3.7 3.7 0 0 1-.097-.695l-.015-.297-.012-.3q-.017-.333.008-.665l.027-.3.023-.298q.022-.266.004-.53l-.02-.298-.019-.3a2.6 2.6 0 0 1 .059-.743l.07-.3.067-.301q.045-.205.011-.406l-.05-.301-.047-.301a4 4 0 0 1-.063-.676v-.3l-.004-.301a5 5 0 0 1 .04-.665l.034-.3.036-.297q.032-.278.039-.555l.015-.601a3 3 0 0 0-.027-.52l-.043-.297-.04-.3a4 4 0 0 1-.03-.692l.011-.3.016-.302q.015-.312.047-.625l.031-.3.027-.301a1.4 1.4 0 0 0-.023-.445l-.066-.297-.063-.301A3.3 3.3 0 0 1 0 66.39v-.602q.001-.37.105-.734l.086-.3.082-.298a.64.64 0 0 0 .008-.34l-.156-.601a3.3 3.3 0 0 1-.102-.711l-.007-.297-.008-.3a4.4 4.4 0 0 1 .031-.68l.04-.297.038-.301q.036-.289.059-.578l.023-.301.02-.297a1.8 1.8 0 0 0-.024-.469l-.058-.3-.059-.297a2.3 2.3 0 0 1-.02-.766l.087-.601c.025-.177.034-.355.035-.532l.004-.297v-.3q0-.339.05-.676l.043-.3.047-.298a.95.95 0 0 0-.023-.394l-.164-.602a3.2 3.2 0 0 1-.11-.71l-.023-.602a3.4 3.4 0 0 1 .047-.7l.05-.3.047-.301q.04-.233.016-.465l-.062-.602a2.8 2.8 0 0 1 .02-.726l.093-.602q.042-.27.05-.539l.012-.3.008-.301q.012-.284.004-.567l-.012-.3-.007-.301a4 4 0 0 0-.051-.54l-.043-.296-.047-.301a2.3 2.3 0 0 1 .004-.762l.054-.3.051-.301a2.4 2.4 0 0 0 .035-.496l-.023-.602a3 3 0 0 0-.059-.52l-.062-.3-.059-.297a1.73 1.73 0 0 1 .043-.844l.09-.3.09-.297a.8.8 0 0 0 .023-.372l-.054-.3-.055-.297a4 4 0 0 1-.055-.696v-.296l.004-.301q.004-.319.032-.637l.046-.602a23 23 0 0 1 .059-.613l.031-.297.031-.3q.029-.255.008-.508L.34 34.93l-.024-.297-.05-.602-.024-.296-.027-.301a5 5 0 0 1-.012-.664l.031-.602a4 4 0 0 0-.011-.531l-.055-.602-.027-.644v-.602q0-.273-.028-.547l-.031-.3-.027-.301a8 8 0 0 1-.04-.64l-.007-.302-.004-.3a2.7 2.7 0 0 1 .09-.735l.078-.3.082-.301q.055-.21.031-.414l-.035-.297-.04-.301a9 9 0 0 1-.05-.637l-.012-.3-.015-.297a3.7 3.7 0 0 1 .031-.696l.043-.3.043-.297q.04-.276.05-.551l.009-.3.011-.302a2 2 0 0 0-.043-.476l-.062-.297-.063-.3a5 5 0 0 1-.097-.673l-.02-.297-.023-.3a4 4 0 0 1 .011-.684l.028-.3.031-.302a2.6 2.6 0 0 0 0-.504l-.055-.601a5 5 0 0 1-.02-.664l.009-.297.011-.3q.012-.354.098-.704l.148-.601a.7.7 0 0 0 0-.352l-.082-.3-.078-.302a1.63 1.63 0 0 1 .008-.859l.164-.601q.06-.212.04-.415l-.063-.601q-.03-.285-.075-.57l-.093-.602a2 2 0 0 1 .035-.8l.156-.602q.053-.21.028-.414l-.036-.301-.039-.301a4 4 0 0 1-.023-.684l.031-.601a2.4 2.4 0 0 0-.031-.496l-.047-.297-.047-.3a5 5 0 0 1-.066-.665l-.012-.3-.008-.298q-.011-.33.016-.66l.023-.3.028-.301a7 7 0 0 0 .023-.559zm1 .598q0 .322-.027.645l-.028.296-.023.301q-.022.271-.012.543l.008.301.012.297q.008.27.05.539l.051.3.047.302q.056.35.04.703l-.013.3-.015.297q-.012.26.02.52l.035.297.035.3q.047.396-.051.786l-.078.297-.078.3a1 1 0 0 0-.02.399l.05.3.048.301q.05.313.082.625l.027.301.031.3q.041.398-.066.786l-.082.3-.086.298a.63.63 0 0 0 0 .34l.156.601c.074.28.078.566.008.848l-.074.3-.074.297a2.4 2.4 0 0 0-.07.5l-.012.297-.008.301q-.009.268.015.535l.055.602q.034.348 0 .695l-.062.602a3 3 0 0 0-.004.515l.02.301.019.297q.02.265.078.531l.062.301.067.3q.076.36.062.723l-.023.602a6 6 0 0 1-.055.648l-.086.602q-.036.256-.023.508l.012.297.015.3q.014.283.047.567l.035.3.035.297q.045.399-.058.79l-.078.296-.079.301a1.7 1.7 0 0 0-.058.465l.004.3.008.302q.004.277.03.554l.063.602q.033.326.032.652v.602q0 .275.023.55l.055.602q.029.334.011.668l-.011.3-.016.302q-.011.267.012.535l.023.297.024.3.05.602.047.602q.029.345-.007.691l-.032.3-.035.302q-.03.292-.055.586l-.046.601a8 8 0 0 0-.028.563l-.004.3v.301q-.002.253.043.508l.051.3.055.298c.05.279.03.56-.051.832l-.18.601a.73.73 0 0 0-.02.36l.06.296.062.301q.067.34.078.68l.023.602q.012.352-.05.703l-.102.601a1.3 1.3 0 0 0-.004.438l.047.297.043.3q.052.331.063.664l.007.297.012.301q.008.316-.004.633l-.008.3-.011.301q-.012.33-.063.66l-.047.297-.047.301a1.8 1.8 0 0 0-.011.473l.03.3.032.297q.039.368-.023.735l-.102.602a2.4 2.4 0 0 0-.031.496l.023.601q.009.242.075.488l.164.602q.107.399.046.805l-.042.3-.047.301q-.04.263-.04.524v.3l-.003.301q0 .335-.047.668l-.086.602q-.03.216.012.433l.117.602q.07.363.043.73l-.047.602q-.025.313-.067.625l-.035.3-.039.298q-.032.262-.023.523l.015.602q.008.24.07.488l.157.601c.073.286.068.576-.012.86l-.172.601a1.7 1.7 0 0 0-.066.465v.598q0 .246.055.496l.062.3.067.298q.08.376.043.757l-.063.602c-.02.19-.03.38-.039.57l-.031.602q-.012.253.023.508l.043.3.04.301q.046.34.038.68l-.008.3-.007.298a7 7 0 0 1-.047.648l-.07.602a4 4 0 0 0-.032.535l.004.3v.301q.002.26.047.52l.102.601q.066.398-.024.793l-.07.301-.067.297a1.6 1.6 0 0 0-.039.457l.04.602q.021.336-.004.671l-.047.602q-.022.268-.012.535l.016.301.011.3q.012.25.074.505l.075.3.07.301q.085.345.102.696l.023.601c.01.234-.009.467-.047.7l-.047.3-.05.3A4 4 0 0 0 1.18 85l-.004.301-.008.3q-.005.302-.012.602l-.004.301-.007.297q-.005.243.046.488l.059.301.063.3q.084.415-.02.825l-.074.3-.078.298q-.059.235-.051.465l.015.601q.01.32-.007.64l-.02.302-.016.3q-.015.28-.007.559l.008.3.007.298c.005.185.014.373.035.558l.036.301.035.297q.036.31.058.62l.04.602q.024.323.019.645l-.008.3-.004.302q-.007.31-.027.62l-.016.298-.02.3a3 3 0 0 0 .012.52l.032.3.031.297q.037.369-.023.735l-.051.3-.047.301a4 4 0 0 0-.055.536l-.012.3-.007.297q-.01.28.004.559l.015.301.012.3q.013.263.066.528l.059.297.062.3a1.7 1.7 0 0 1-.046.848l-.188.602a1 1 0 0 0-.043.402l.055.602q.026.282.07.566l.05.301.048.301a2.7 2.7 0 0 1 .015.734l-.07.601q-.032.263-.023.524l.011.301.008.3q.011.309.012.618v.597q.001.272.035.543l.035.301.035.297q.048.387-.035.769l-.133.602a2.4 2.4 0 0 0-.058.496l-.008.602q-.003.292 0 .586l.008.601q.003.291.015.582l.012.301.016.301q.014.344-.032.687l-.039.301-.039.297q-.026.209.024.422l.07.301.067.3q.089.38.05.766l-.031.301-.031.297q-.024.229.02.461l.054.3.055.297c.05.277.034.556-.043.828l-.172.602a1.5 1.5 0 0 0-.059.449l.016.602q.007.305.008.609v.301l.004.297q0 .289.015.578l.031.601q.015.311.016.622v.3l.004.301q.001.25.05.504l.06.301.062.301q.074.367.043.738l-.028.301-.023.3a7 7 0 0 0-.027.559v.598q0 .287.015.574l.032.601q.014.307.02.614l.007.3.004.301q.007.345-.047.688l-.047.301-.05.3q-.044.283-.071.567l-.055.601q-.021.24.012.481l.043.301.04.3q.045.32.065.641l.02.297.02.301a2.6 2.6 0 0 1-.063.742l-.07.301-.067.3a1.7 1.7 0 0 0-.039.461l.016.301.016.297q.014.256.074.516l.14.601q.096.408.008.817l-.066.3-.063.301a1.3 1.3 0 0 0-.023.434l.039.297.039.3q.04.326.047.653l.004.3.008.301a7 7 0 0 1-.02.649l-.047.601q-.021.254.004.508l.031.301.035.297q.04.374-.03.746l-.118.601a.9.9 0 0 0 .012.391l.07.301.074.297c.067.278.062.562-.008.84l-.148.601a2.4 2.4 0 0 0-.074.496l-.008.297-.012.301a5 5 0 0 0 .008.551l.02.296.02.301q.016.268.07.535l.062.301.059.301q.078.39.011.781l-.101.602a1.4 1.4 0 0 0-.004.437l.094.602q.053.356.023.715l-.047.601a7 7 0 0 1-.086.649l-.11.601q-.04.224-.01.446l.038.3.035.301q.04.323.051.645l.024.601q.011.34-.032.68l-.039.301-.039.297a3 3 0 0 0-.016.511l.016.297.02.301q.017.297.039.594l.039.601q.022.336-.004.672l-.047.602q-.02.253.008.508l.062.601q.032.31.051.621l.04.602q.019.33 0 .66l-.02.297-.016.301q-.017.287-.02.574l-.003.301v.3a5 5 0 0 1-.051.668l-.043.301-.047.297q-.03.218.012.437l.054.301.059.301q.06.322.09.645l.027.3.027.297c.025.265.001.531-.074.789l-.086.297-.09.301a.9.9 0 0 0-.027.394l.04.301.042.297q.045.335.043.672l-.004.301v.301q-.001.263.035.527l.043.297.043.301q.052.368 0 .738l-.043.301-.039.3q-.042.299-.082.598l-.039.297-.039.301a4 4 0 0 0-.035.535l.004.297v.301q.001.248.055.5l.125.601q.08.383.027.77l-.086.601a3 3 0 0 0-.031.52l.004.3.007.301q.006.288.028.574l.039.602q.023.31.035.617l.008.301.012.301.035.89.011.301a3.2 3.2 0 0 1-.046.715l-.055.297-.055.301a1.4 1.4 0 0 0-.008.441l.04.301.042.301q.051.363.008.726l-.035.301-.039.301q-.03.25-.012.5l.047.601q.026.325.02.649l-.008.301-.004.296q-.006.309-.02.618l-.015.3-.016.297a7 7 0 0 0-.004.563l.016.601q.01.325-.012.649l-.023.301-.02.3q-.021.303-.047.606l-.023.301-.027.296q-.02.236.023.473l.055.301.054.297q.066.365.032.734l-.055.602q-.023.243.008.488l.078.602q.048.373-.016.746l-.101.601q-.044.267-.051.531l-.008.301-.012.297a1.8 1.8 0 0 0 .051.469l.149.601a1.75 1.75 0 0 1-.004.836l-.075.301-.07.301a1.7 1.7 0 0 0-.05.465l.007.301.008.296q.009.267.055.536l.05.3.051.297q.062.368.02.739l-.063.601a2.2 2.2 0 0 0 0 .488l.035.297.036.301q.04.34.027.68l-.012.297-.012.3q-.011.313-.039.625l-.054.602a3 3 0 0 0 .004.508l.027.297.027.3q.034.343.012.684l-.02.301-.015.234.082.035.207.082q.147.06.41.106l.3.051.298.05q.25.042.5.032l.3-.012.301-.008a9 9 0 0 1 .637 0l.602.024.597.023.602.023q.291.012.582.012h.598q.241.002.488-.055l.3-.07.301-.066q.379-.089.762-.051l.297.031.3.031q.265.026.528.012l.3-.015.298-.012q.307-.015.613-.024l.602-.015q.303-.007.605-.012l.297-.004 1.504-.019q.34-.003.68.05l.3.043.301.047q.231.035.461.004l.297-.035.3-.039a5 5 0 0 1 .665-.043h.3l.301-.004h1.2c.22 0 .44.009.66.035l.297.035.3.039q.23.027.461-.011l.301-.051.3-.047q.39-.062.778.016l.3.058.302.063a.8.8 0 0 0 .375-.012l.3-.078.301-.074a2.7 2.7 0 0 1 .735-.086l.3.004.301.007q.291.007.582.004l.602-.007q.336-.003.672.043l.297.039.3.039q.31.04.617.09l.297.05.301.047q.221.035.442 0l.601-.094q.333-.052.668-.058l.3-.008.302-.004q.328-.007.656.024l.297.027.3.031q.272.025.544.02l.3-.008.301-.004q.307-.006.613-.004h.297l.301.004q.31 0 .617.012l.602.023q.275.012.55-.004l.301-.015.301-.02q.27-.015.54-.062l.3-.055.3-.051q.386-.07.77-.008l.301.051.297.051q.232.04.465.015l.3-.035.301-.031q.332-.036.664-.031l.297.008.301.004q.337.006.672.062l.602.102q.256.042.511.039l.602-.008q.285-.004.57-.024l.602-.039q.278-.019.558-.062l.297-.047.3-.047q.343-.052.684-.047l.301.004.297.004q.322.004.645.035l.601.063q.238.022.477-.012l.601-.086q.365-.054.73-.012l.302.039.3.036q.247.03.493.007l.3-.027.297-.031q.391-.036.774.062l.601.156q.207.053.407.024l.601-.078a8 8 0 0 1 .637-.063l.3-.015.301-.02a3.4 3.4 0 0 1 .703.035l.602.094q.274.042.547.055l.3.015.301.012q.28.013.56.004l.3-.008.297-.012q.258-.007.52-.058l.3-.063.3-.058q.335-.066.669-.086l.3-.02.297-.019q.391-.024.77.086l.3.086.302.089c.145.042.286.053.425.043l.602-.039q.334-.022.668 0l.3.02.301.023q.226.016.458-.035l.296-.066.301-.071q.383-.084.77-.039l.296.036.301.035q.295.035.59.062l.297.028.3.031q.287.026.575.035l.297.012.3.011q.217.008.442-.058l.3-.086.302-.09q.36-.105.726-.113l.602-.016q.376-.01.746.094l.3.086.301.082q.246.068.485.078l.3.012.297.011q.287.01.575.004l.601-.007a3 3 0 0 0 .516-.051l.3-.059.297-.055q.381-.069.762-.015l.602.086q.216.03.433-.012l.301-.059.297-.062q.406-.078.809.016l.3.066.301.07q.178.042.36-.008l.601-.156c.29-.076.584-.073.871.012l.297.09.3.09a.8.8 0 0 0 .368.019l.3-.055.302-.058q.374-.069.75-.024l.3.04.301.035q.234.028.469-.004l.3-.043.301-.039q.315-.044.63-.071l.3-.023.297-.023q.36-.03.719.027l.3.047.297.047q.23.034.457.004l.301-.04.301-.042q.322-.044.645-.059l.296-.012.301-.015q.369-.017.73.062l.301.063.301.066q.225.048.446.027l.601-.054q.292-.026.586-.059l.602-.07q.389-.045.773.047l.3.07.298.07q.217.05.43.028l.3-.036.301-.031q.326-.037.652-.039h.301l.3-.004q.327.002.653.035l.297.028.301.031q.214.021.434-.031l.3-.071.301-.074q.405-.097.813-.019l.296.058.301.059q.252.049.5.047l.602-.008q.26-.003.523-.047l.297-.051.301-.051q.354-.059.711-.039l.301.016.3.02q.328.017.657.074l.3.054.301.051q.238.042.473.024l.601-.047a3.3 3.3 0 0 1 .707.023l.301.039.301.043a.9.9 0 0 0 .391-.031l.3-.086.301-.09q.403-.116.817-.051l.601.094q.233.038.465.012l.297-.035.301-.031q.394-.045.781.054l.301.074.3.079a.9.9 0 0 0 .379.011l.301-.058.301-.055a3 3 0 0 1 .723-.051l.296.016.301.015q.287.016.575.016h.601q.276 0 .551-.027l.297-.032.301-.031q.335-.032.671-.015l.297.011.301.012q.296.012.594.02l.301.007.296.008q.304.008.606.02l.301.008.3.011q.286.01.571.004l.301-.004.3-.008a5 5 0 0 0 .547-.039l.301-.039.297-.039q.378-.048.754.02l.601.109q.257.046.512.047l.301.004h.301q.267.002.535-.031l.301-.035.3-.04q.375-.046.746.02l.602.109q.263.047.523.051l.297.004.301.008q.229.004.465-.059l.301-.078.297-.078c.282-.075.572-.077.855-.004l.297.078.301.078a1 1 0 0 0 .402.02l.297-.043.301-.047q.316-.048.633-.074l.3-.027.301-.024a2.7 2.7 0 0 1 .738.039l.301.063.301.058q.218.043.434.012l.3-.043.297-.039q.319-.045.637-.066l.601-.04q.37-.023.735.055l.601.125a.84.84 0 0 0 .379-.004l.297-.074.301-.074q.388-.093.781-.043l.301.039.301.035q.239.031.476.004l.301-.035.301-.039q.408-.048.805.074l.3.09.301.094q.179.053.348.015l.297-.066.3-.067q.383-.082.77-.031l.301.035.301.039q.285.036.57.055l.301.023.3.02q.262.017.524-.004l.601-.047q.3-.025.598-.051l.602-.046q.327-.029.656-.02l.301.012.297.008q.25.009.503-.032l.602-.101q.371-.062.742-.016l.301.039.301.035q.252.033.504.016l.297-.02.3-.023q.343-.022.684.012l.301.027.297.031c.159.016.32.008.48-.015l.602-.086q.415-.06.82.066l.602.188a.5.5 0 0 0 .308.004l.301-.086.301-.09a1.6 1.6 0 0 1 .871-.008l.297.078.3.082a.65.65 0 0 0 .344 0l.297-.078.301-.082q.358-.095.722-.098l.602-.008q.357-.004.711.071l.297.062.301.067a.9.9 0 0 0 .39-.004l.602-.125q.397-.085.797-.012l.3.055.297.054q.214.041.426.004l.297-.054.301-.051q.376-.067.754-.016l.601.086q.243.033.485.008l.297-.027.3-.028q.332-.032.664-.023l.602.016q.318.01.637.046l.3.032.301.035q.238.026.477-.008l.297-.043.3-.043q.378-.054.754.008l.301.051.297.05q.262.043.523.043l.301.004h.297q.282.002.563-.019l.3-.02.301-.023q.305-.021.609-.035l.602-.032q.336-.014.672.02l.301.027.301.032q.218.02.441-.032l.301-.066.297-.067q.378-.085.761-.046l.602.062q.319.032.637.09l.601.109a.9.9 0 0 0 .395-.008l.3-.074.297-.07a2.3 2.3 0 0 1 .766-.051l.301.031.301.028q.265.027.531.015l.297-.011.3-.012q.285-.013.571-.043l.297-.031.3-.032q.351-.035.704 0l.3.032.301.027q.273.028.547.027h.301l.297-.003q.348-.001.695.062l.297.055.301.054q.22.04.437.008l.301-.043.297-.047q.314-.047.629-.078l.297-.027.3-.031q.393-.038.778.066l.3.082.301.078a.7.7 0 0 0 .352.004l.301-.07.3-.074c.276-.067.556-.069.832-.004l.297.07.301.07a.76.76 0 0 0 .367-.004l.602-.148c.271-.067.547-.072.82-.016l.301.059.297.062q.241.05.48.039l.301-.011.297-.012q.314-.012.629-.008l.301.004h.3q.31.004.621.024l.301.019.301.016q.243.015.488-.024l.602-.101q.362-.06.726-.024l.301.032.301.027q.284.027.566.035l.301.008.297.008q.295.01.59.011h.598q.243.001.492-.054l.297-.067.3-.066q.381-.086.766-.043l.301.035.301.031q.262.03.523.02l.301-.008.301-.012a.6.6 0 0 0 .128-.015c.02-.007.017-.011.004 0l.149-.129.086-.082c-.001-.01.002-.023 0-.035l-.043-.297-.043-.301a4.4 4.4 0 0 1-.043-.676l.008-.601q.004-.32.035-.641l.027-.297.027-.301a8 8 0 0 0 .032-.562l.004-.301.007-.301q.005-.338.063-.676l.055-.3.05-.301a1 1 0 0 0-.011-.402l-.067-.301-.07-.297a2.7 2.7 0 0 1-.063-.746l.02-.301.02-.297a6 6 0 0 0 .007-.555l-.007-.3-.008-.297-.02-.598-.023-.601a3.2 3.2 0 0 1 .051-.707l.058-.301.055-.301a.9.9 0 0 0-.016-.387l-.078-.297-.074-.3a1.57 1.57 0 0 1 .023-.875l.098-.301.094-.301q.07-.218.058-.422l-.019-.297-.016-.3a16 16 0 0 1-.023-.618l-.016-.601a5 5 0 0 0-.043-.539l-.086-.602a4.6 4.6 0 0 1-.047-.672l.004-.3v-.301q.003-.332.047-.66l.078-.602q.03-.237 0-.473l-.039-.297-.039-.3a3.6 3.6 0 0 1-.019-.696l.039-.601a4 4 0 0 0-.008-.528l-.024-.296-.027-.301a3 3 0 0 1 .031-.723l.047-.297.047-.3a2 2 0 0 0 .023-.485l-.046-.601a3.7 3.7 0 0 1 .015-.692l.07-.601a2 2 0 0 0-.007-.473l-.039-.301-.043-.301a2.5 2.5 0 0 1 .004-.742l.093-.601a1.1 1.1 0 0 0-.019-.414l-.071-.297-.066-.301a1.9 1.9 0 0 1-.012-.813l.063-.3.058-.301a3.4 3.4 0 0 0 .067-.524l.015-.296.012-.301a3 3 0 0 0-.019-.516l-.039-.301-.036-.3a40 40 0 0 0-.078-.594l-.078-.602q-.046-.344-.031-.687l.012-.301.015-.301q.015-.327.067-.652l.093-.602q.035-.23.004-.461l-.035-.3-.039-.297a4 4 0 0 1-.031-.684l.016-.301.011-.3q.012-.315.043-.629l.063-.602q.023-.233-.016-.469l-.047-.297-.051-.3a3.5 3.5 0 0 1-.043-.703l.016-.301.012-.301q.012-.27-.008-.539l-.047-.602a5 5 0 0 1-.004-.668l.016-.3.019-.297q.02-.325.071-.649l.047-.297.042-.3a1.3 1.3 0 0 0-.003-.438l-.055-.297-.055-.301a3.5 3.5 0 0 1-.054-.703l.007-.297.008-.3q.006-.307.02-.614l.031-.601q.013-.285.012-.57l-.004-.301v-.301q-.002-.312.011-.625l.016-.301.012-.301a4 4 0 0 0-.012-.531l-.027-.301-.028-.296a4.4 4.4 0 0 1-.007-.68l.019-.297.02-.301a2.5 2.5 0 0 0-.02-.5l-.043-.301-.039-.3a2 2 0 0 1 .047-.793l.078-.301.074-.301q.055-.205.028-.402l-.086-.602a20 20 0 0 0-.094-.586l-.051-.297-.051-.3a1.9 1.9 0 0 1 .036-.813l.082-.301.078-.3q.054-.207.027-.407l-.078-.601a15 15 0 0 1-.07-.621l-.024-.301-.027-.297a3 3 0 0 1 .019-.719l.043-.301.047-.296c.025-.167.029-.335.02-.5l-.031-.602a4 4 0 0 1 .023-.688l.07-.601q.034-.278.043-.555l.012-.301.008-.296a1.5 1.5 0 0 0-.059-.446l-.086-.301-.09-.3a1.8 1.8 0 0 1-.043-.832l.059-.301.055-.301a1.1 1.1 0 0 0 0-.414l-.055-.297-.059-.301a2.2 2.2 0 0 1-.004-.781l.051-.297.055-.301q.046-.275.066-.55l.047-.602a6 6 0 0 0 .016-.555l-.004-.3-.004-.297a7 7 0 0 1 .02-.653l.023-.296.023-.301q.02-.24-.019-.481l-.047-.3-.051-.297a9 9 0 0 1-.078-.637l-.055-.602q-.031-.347.004-.695l.032-.301.035-.3q.03-.286.043-.571l.015-.301.012-.3a5 5 0 0 0 0-.547l-.019-.297-.02-.301a5 5 0 0 0-.059-.547l-.101-.601a1.76 1.76 0 0 1 .066-.836l.098-.301.094-.301a.7.7 0 0 0 .027-.351l-.055-.301-.058-.301a2.3 2.3 0 0 1-.012-.766l.094-.601q.032-.22-.004-.442l-.102-.601a4 4 0 0 1-.05-.688l.007-.601q.004-.323.039-.645l.032-.3.035-.301q.03-.281.039-.563l.023-.601q.01-.278-.004-.555l-.031-.602q-.016-.299-.035-.597l-.016-.301-.019-.297a5 5 0 0 1 .008-.672l.027-.301.023-.3q.024-.296.043-.59l.024-.301.019-.301a1.3 1.3 0 0 0-.047-.433l-.164-.602a2.5 2.5 0 0 1-.086-.754l.012-.301.016-.296q.014-.337.078-.672l.117-.602a.9.9 0 0 0-.012-.391l-.07-.296-.07-.301a3.3 3.3 0 0 1-.09-.711l-.008-.297-.004-.301a3.2 3.2 0 0 1 .074-.715l.133-.601q.052-.239.043-.473l-.023-.601a9 9 0 0 1-.004-.637l.012-.297.011-.301a2.3 2.3 0 0 0-.039-.492l-.109-.602a2.1 2.1 0 0 1 .008-.785l.117-.601a1.1 1.1 0 0 0 0-.414l-.055-.297-.054-.301a4 4 0 0 1-.071-.68l-.015-.601a3 3 0 0 1 .066-.711l.125-.602q.054-.253.059-.504l.007-.601a3 3 0 0 0-.035-.52l-.086-.601a4 4 0 0 1-.039-.688l.012-.301.008-.3q.012-.287.008-.575l-.004-.3-.008-.301a9 9 0 0 1 .016-.633l.031-.601a4 4 0 0 0-.008-.532l-.047-.601a3.4 3.4 0 0 1 .02-.707l.043-.297.039-.301q.033-.25.015-.5l-.019-.3-.02-.298-.039-.609-.019-.3-.016-.298a19 19 0 0 0-.043-.586l-.023-.3-.028-.301a3.7 3.7 0 0 1 .008-.695l.031-.301.032-.297a7 7 0 0 0 .031-.559l.004-.297.004-.3a4 4 0 0 0-.032-.528l-.039-.297-.039-.3a2.2 2.2 0 0 1 .035-.782l.141-.601a.9.9 0 0 0 .004-.383l-.063-.297-.062-.3a4 4 0 0 1-.082-.692l-.016-.602a3 3 0 0 1 .071-.718l.062-.297.066-.301q.054-.244.047-.484l-.007-.301-.008-.297a3 3 0 0 0-.059-.512l-.062-.3-.059-.301a2.5 2.5 0 0 1-.039-.75l.027-.301.032-.297q.024-.256.003-.512l-.046-.601a4.4 4.4 0 0 1-.004-.672l.019-.3.024-.302q.022-.337.093-.672l.133-.601q.047-.215.02-.426l-.043-.3-.039-.302a3.6 3.6 0 0 1-.024-.699l.02-.297.019-.3q.02-.293.032-.586l.023-.602a1.5 1.5 0 0 0-.051-.45l-.164-.6a1.8 1.8 0 0 1-.023-.833l.062-.3.063-.297q.041-.207.004-.41l-.051-.301-.055-.301a2.2 2.2 0 0 1 0-.777l.11-.602q.035-.204-.008-.41l-.059-.297-.062-.3a2.1 2.1 0 0 1-.016-.786l.047-.297.051-.3q.039-.242.019-.481l-.023-.3-.024-.298a2.8 2.8 0 0 1 .039-.73l.055-.301.059-.3q.045-.258.047-.513l.007-.601a4 4 0 0 0-.031-.535l-.07-.602a4 4 0 0 1-.02-.683l.032-.602q.014-.291.019-.582l.008-.3.004-.301a3 3 0 0 0-.035-.508l-.102-.602a2.7 2.7 0 0 1-.016-.738l.071-.602q.036-.297.07-.593l.031-.301.035-.301a1.1 1.1 0 0 0-.035-.414l-.078-.3-.082-.302a1.95 1.95 0 0 1-.047-.804l.094-.602q.043-.284.066-.566l.028-.301.023-.297a1.2 1.2 0 0 0-.039-.43l-.082-.297-.082-.3a2.5 2.5 0 0 1-.086-.754l.012-.301.015-.297q.013-.315.043-.629l.032-.3.027-.301q.031-.313.078-.625l.043-.297.047-.301q.038-.25.023-.5l-.015-.3-.02-.302q-.015-.29-.043-.582l-.027-.296-.027-.301a6 6 0 0 1-.024-.653l.008-.601a8 8 0 0 0-.012-.567l-.015-.3-.016-.297a4 4 0 0 1 .027-.696l.086-.601a1.5 1.5 0 0 0-.007-.453l-.047-.301-.047-.297q-.05-.315-.082-.629l-.063-.601a2 2 0 0 1 .09-.805l.094-.297.097-.3q.072-.229.071-.446v-.602q.001-.219-.071-.449l-.097-.3-.094-.297a1.74 1.74 0 0 1-.059-.844l.11-.602q.04-.21.004-.422l-.055-.3-.051-.301c-.049-.28-.033-.56.051-.832l.094-.301.09-.3a.9.9 0 0 0 .035-.384l-.043-.3-.039-.301a9 9 0 0 1-.067-.633l-.039-.601a8 8 0 0 1-.015-.641l.004-.297.004-.3q.003-.331.046-.661l.079-.601q.034-.251.019-.5l-.039-.602a6 6 0 0 0-.066-.547l-.102-.601a2 2 0 0 1 .027-.797l.071-.301.07-.297q.057-.252.062-.5l.012-.3.008-.302a8 8 0 0 0-.008-.566l-.012-.297-.011-.3a6 6 0 0 0-.051-.555l-.039-.301-.043-.3a10 10 0 0 1-.063-.634l-.019-.3-.024-.297a4.3 4.3 0 0 1 .008-.684l.028-.297.031-.3q.028-.314.07-.626l.086-.601q.027-.196-.027-.399l-.078-.3-.082-.297a2.6 2.6 0 0 1-.09-.746l.008-.297.007-.301q.009-.297.012-.594l.008-.601q.003-.347.07-.692l.063-.297.058-.3q.047-.24.032-.477l-.016-.297-.02-.3a14 14 0 0 0-.042-.579l-.063-.601a3.3 3.3 0 0 1 .004-.707l.031-.297.035-.301q.03-.26.016-.52l-.031-.601a10 10 0 0 0-.047-.567l-.071-.601a2.2 2.2 0 0 1 .059-.781l.074-.301.078-.297q.056-.213.032-.418l-.071-.602a18 18 0 0 1-.062-.617l-.027-.3-.024-.297a6 6 0 0 1-.016-.66l.024-.602a2 2 0 0 0-.02-.414l-.039-.219-.023-.117-.285-.074-.301-.078a1.3 1.3 0 0 0-.43-.04l-.601.055q-.334.03-.668.012l-.297-.012-.301-.015a4 4 0 0 0-.531.011l-.301.024-.301.027q-.335.03-.672.012l-.297-.016-.3-.015q-.27-.016-.539.003l-.301.024-.297.023q-.295.021-.59.047l-.601.055q-.34.031-.68.012l-.297-.02-.301-.02a3 3 0 0 0-.519.008l-.301.028-.301.03a3.6 3.6 0 0 1-.695 0l-.301-.03-.301-.028q-.309-.03-.617-.07l-.297-.039-.301-.04a2.6 2.6 0 0 0-.503-.019l-.602.04q-.34.02-.68-.012l-.297-.028-.3-.03a7 7 0 0 0-.563-.032l-.301-.008-.3-.004a6 6 0 0 0-.551.016l-.602.047a9 9 0 0 1-.633.023l-.3.004h-.301q-.315.001-.629-.016l-.602-.03a2 2 0 0 0-.48.03l-.301.059-.297.055q-.328.061-.66.086l-.301.02-.297.019a4 4 0 0 1-.679-.004l-.301-.028-.301-.03a5 5 0 0 0-.543-.016l-.297.007-.3.008a6 6 0 0 1-.661-.023l-.3-.028-.297-.023a5 5 0 0 0-.543-.02l-.301.008-.297.008a4.6 4.6 0 0 1-.676-.031l-.601-.07a6 6 0 0 0-.547-.04l-.301-.007-.301-.004a2.3 2.3 0 0 0-.492.043l-.601.117a2.5 2.5 0 0 1-.754.031l-.297-.035-.301-.035a6 6 0 0 0-.551-.031l-.601-.008a13 13 0 0 0-.575.004l-.3.011-.301.008a5 5 0 0 1-.672-.027l-.301-.035-.301-.032a1.1 1.1 0 0 0-.414.032l-.3.078-.301.082q-.395.102-.797.047l-.297-.04-.301-.042a3 3 0 0 0-.511-.024l-.301.016-.297.012a3.4 3.4 0 0 1-.707-.043l-.602-.102a1.4 1.4 0 0 0-.437-.004l-.301.047-.297.047a8 8 0 0 1-.64.078l-.602.047a15 15 0 0 1-.617.035l-.301.012-.301.008q-.305.012-.609.02l-.602.007a7 7 0 0 1-.648-.02l-.297-.023-.301-.024a3 3 0 0 0-.519 0l-.301.028-.301.023a2.1 2.1 0 0 1-.781-.082l-.301-.086-.301-.09a.8.8 0 0 0-.375-.023l-.3.05-.297.052q-.367.061-.735.027l-.3-.031-.301-.028a7 7 0 0 0-.555-.03l-.301-.005-.301-.008a13 13 0 0 1-.625-.023l-.3-.016-.297-.02a1.7 1.7 0 0 0-.465.036l-.297.066-.301.067q-.359.078-.722.066l-.301-.008-.301-.011a6 6 0 0 0-.555.007l-.3.02-.297.016a6 6 0 0 1-.66.003l-.297-.015-.301-.02a4 4 0 0 0-.539.004l-.297.024-.301.02a4 4 0 0 1-.683-.005l-.301-.03-.301-.028q-.312-.03-.625-.078l-.301-.043-.301-.047a1.6 1.6 0 0 0-.457-.004l-.3.039-.301.043a2.6 2.6 0 0 1-.742-.008l-.602-.094a1.3 1.3 0 0 0-.433.008l-.301.055-.297.054a4 4 0 0 1-.691.063h-.598q-.283.002-.567.023l-.3.02-.301.023a5 5 0 0 1-.668 0l-.602-.039a3 3 0 0 0-.507.012l-.602.07a2.8 2.8 0 0 1-.731-.015l-.3-.043-.301-.047a2.2 2.2 0 0 0-.488-.02l-.301.024-.301.02a2.6 2.6 0 0 1-.742-.06l-.301-.066-.301-.07a2 2 0 0 0-.484-.05l-.301.003-.297.004q-.23.003-.468.07l-.301.086-.301.09a2.7 2.7 0 0 1-.734.106l-.301.004h-.301q-.305 0-.609-.004l-.297-.004-.301-.004q-.307-.003-.613-.012l-.297-.012-.301-.007a8 8 0 0 1-.637-.047l-.3-.035-.301-.032a2 2 0 0 0-.481.004l-.601.078a2.2 2.2 0 0 1-.778-.039l-.3-.07-.297-.07a1.4 1.4 0 0 0-.442-.032l-.3.028-.297.031q-.294.026-.586.062l-.602.079q-.357.045-.715.007l-.3-.03-.301-.036a7 7 0 0 0-.559-.035l-.301-.012-.3-.008-.602-.02-.301-.007-.3-.012a5 5 0 0 0-.543.012l-.301.023-.297.024q-.305.024-.609.043l-.301.023-.297.02q-.361.024-.719-.04l-.601-.1a1.6 1.6 0 0 0-.454-.013l-.3.036-.301.039a4 4 0 0 1-.68.027l-.297-.012-.3-.011a3 3 0 0 0-.52.027l-.297.039-.301.035q-.367.048-.734-.004l-.301-.043-.301-.039a7 7 0 0 0-.554-.055l-.301-.019-.301-.016a1.6 1.6 0 0 0-.461.04l-.301.07-.296.07a1.7 1.7 0 0 1-.848-.02l-.301-.085-.301-.082a.95.95 0 0 0-.394-.028l-.602.086q-.337.048-.676.043l-.3-.004-.297-.004a5 5 0 0 1-.668-.05l-.297-.043-.301-.043a1.3 1.3 0 0 0-.437.007l-.602.11q-.362.067-.726.043l-.602-.047a5 5 0 0 0-.543-.008l-.301.012-.297.011a4 4 0 0 1-.691-.035l-.602-.086a1.5 1.5 0 0 0-.453 0l-.301.047-.296.047a3 3 0 0 1-.727.02l-.301-.028-.3-.03a2.4 2.4 0 0 0-.497 0l-.3.034-.301.031q-.333.034-.668.024l-.301-.008-.301-.012a3.4 3.4 0 0 0-.519.028l-.301.035-.3.039q-.377.046-.75-.02l-.298-.054-.3-.051a6 6 0 0 0-.555-.074l-.3-.024-.302-.027a1.3 1.3 0 0 0-.433.039l-.301.074-.3.078c-.285.072-.574.07-.856-.007l-.301-.083-.297-.082a1.3 1.3 0 0 0-.437-.046l-.301.02-.297.019a8 8 0 0 1-.64.015l-.602-.008a4 4 0 0 0-.532.032l-.296.039-.301.035q-.33.042-.66.043l-.301.004h-.3q-.278 0-.556.027l-.3.027-.297.032a5 5 0 0 1-.672.015l-.3-.015-.302-.012q-.312-.016-.625-.047l-.297-.027-.3-.031a2 2 0 0 0-.485.011l-.3.043-.297.043a4.3 4.3 0 0 1-.68.04l-.3-.005-.302-.007a5 5 0 0 1-.668-.063l-.601-.094q-.285-.045-.57-.074l-.301-.031-.297-.031a1.4 1.4 0 0 0-.446.027l-.601.133q-.348.076-.7.082l-.6.008a8 8 0 0 0-.563.027l-.602.047q-.38.032-.754-.055l-.3-.074-.301-.07a1.8 1.8 0 0 0-.47-.047l-.3.011-.3.008q-.323.011-.645-.008l-.301-.015-.297-.02q-.243-.014-.488.028l-.602.101q-.392.065-.78-.015l-.302-.059-.3-.063a.76.76 0 0 0-.364.016l-.601.172a2.7 2.7 0 0 1-.735.105h-.297l-.3.004-.598.004-.3.004-.298.004a2.7 2.7 0 0 1-.738-.094l-.3-.082-.298-.078a.75.75 0 0 0-.363-.012l-.297.07-.3.067a2.8 2.8 0 0 1-.735.067l-.3-.016-.302-.012-.605-.031-.3-.02-.298-.02a20 20 0 0 0-.586-.023l-.3-.011-.301-.008a16 16 0 0 1-.621-.031l-.297-.02-.3-.02a1.7 1.7 0 0 0-.466.032l-.297.062-.3.063a2.6 2.6 0 0 1-.743.047l-.3-.024-.301-.027a9 9 0 0 1-.637-.074l-.297-.047-.3-.043a1 1 0 0 0-.399.02l-.602.156q-.354.09-.714.097l-.301.008-.297.004a2.7 2.7 0 0 1-.738-.086l-.301-.074-.297-.078a1.5 1.5 0 0 0-.45-.047l-.3.016-.3.02a6 6 0 0 1-.65 0l-.3-.013-.3-.015q-.285-.015-.571-.012l-.602.008a9 9 0 0 0-.566.023l-.3.024-.298.023q-.286.021-.574.059l-.601.078a2.6 2.6 0 0 1-.743-.008l-.297-.047-.3-.047a1.8 1.8 0 0 0-.469-.008l-.297.036-.3.035q-.348.04-.696.011l-.602-.046a4 4 0 0 0-.527 0l-.602.039q-.302.021-.605.039l-.3.015-.298.016a2.8 2.8 0 0 1-.73-.055l-.602-.125a2 2 0 0 0-.476-.039l-.602.024q-.34.014-.68-.028l-.3-.039-.301-.035a1.8 1.8 0 0 0-.473 0l-.297.04-.3.042q-.316.041-.633.063l-.3.02-.302.023q-.338.022-.675-.008l-.602-.055a2 2 0 0 0-.484.012l-.301.047-.297.043a2.5 2.5 0 0 1-.758-.008l-.297-.05-.3-.052a7 7 0 0 0-.56-.07l-.6-.047a1.2 1.2 0 0 0-.419.043l-.3.09-.297.086c-.297.087-.6.082-.895-.012l-.3-.094-.297-.097a.52.52 0 0 0-.313-.004l-.3.086-.298.086c-.25.072-.508.106-.765.093l-.297-.015-.3-.016q-.306-.014-.61-.035l-.301-.02-.3-.023a3 3 0 0 0-.517.012l-.3.027-.301.031q-.354.035-.707-.007l-.3-.036-.302-.039a3 3 0 0 0-.511-.015l-.602.031a7 7 0 0 1-.648.004l-.602-.024a5 5 0 0 0-.547.004l-.3.016-.301.02q-.355.019-.707-.04l-.301-.046-.301-.051a3 3 0 0 0-.512-.04l-.601.009a9 9 0 0 0-.567.027l-.601.047a4 4 0 0 1-.684-.004l-.3-.027-.301-.032a2.4 2.4 0 0 0-.496.008l-.297.035-.301.035q-.331.04-.664.04l-.297-.004h-.3a7 7 0 0 1-.65-.04l-.3-.027-.3-.031a6 6 0 0 0-.548-.031h-.601q-.263 0-.528.039l-.3.043-.297.043q-.376.054-.75-.004l-.602-.094a1.3 1.3 0 0 0-.43.008l-.3.054-.301.06a2.5 2.5 0 0 1-.746.026l-.602-.07a6 6 0 0 0-.554-.035l-.602-.016q-.295-.004-.59-.004l-.297-.003h-.3a9 9 0 0 0-.567.02l-.3.019-.196.011z"/><g clip-path="url(#clip0_177_30471)"><path fill="#EEEFEA" stroke="#00503A" stroke-miterlimit="10" d="M192.761 21.986H23.614a4.126 4.126 0 0 0-4.126 4.125v167.687a5.5 5.5 0 0 0 5.501 5.501h166.397a5.5 5.5 0 0 0 5.501-5.501V26.111a4.126 4.126 0 0 0-4.126-4.125Zm-50.43 44.81v.006a6.864 6.864 0 0 1-6.867 6.86h-54.56a6.863 6.863 0 0 1-6.86-6.866V40.9h68.287z"/><path fill="#FF681D" d="M62.794 87.924h-8.67a.963.963 0 0 0-.962.963v36.605c0 .532.431.963.963.963h.822a.963.963 0 0 0 .963-.963v-15.531h9.901a3.85 3.85 0 0 1 3.851 3.851v11.68c0 .532.432.963.963.963h.838a.963.963 0 0 0 .964-.963v-11.74c0-1.849-.66-3.542-1.749-4.871a.49.49 0 0 1 .038-.665 5.76 5.76 0 0 0 1.71-4.098v-6.561c0-5.32-4.312-9.633-9.632-9.633m3.96 19.288h-9.88a.964.964 0 0 1-.963-.964v-3.875c0-.532.431-.963.963-.963h9.88a2.9 2.9 0 1 1 0 5.802M76.667 87.924h-.823a.963.963 0 0 0-.963.963v36.605c0 .532.43.963.963.963h.823a.963.963 0 0 0 .963-.963V88.887a.963.963 0 0 0-.963-.963M124.409 87.924h-.822a.963.963 0 0 0-.963.963v36.605c0 .532.431.963.963.963h.822a.964.964 0 0 0 .964-.963V88.887a.964.964 0 0 0-.964-.963M89.716 87.924h-8.67a.963.963 0 0 0-.963.963v36.605c0 .532.431.963.963.963h8.67c5.32 0 9.633-4.313 9.633-9.633V97.557c0-5.32-4.313-9.633-9.633-9.633m6.871 19.408c-.199 3.072-2.887 5.394-5.965 5.394h-6.804a.963.963 0 0 1-.964-.963v-9.633c0-.532.432-.963.964-.963h7.002a5.78 5.78 0 0 1 5.767 6.164zM110.644 87.924h-8.67a.964.964 0 0 0-.963.963v36.605c0 .532.432.963.963.963h8.67c5.32 0 9.633-4.313 9.633-9.633V97.557c0-5.32-4.313-9.633-9.633-9.633m6.871 19.65c-.199 3.072-2.887 5.395-5.965 5.395h-6.804a.964.964 0 0 1-.964-.963v-9.633c0-.532.432-.963.964-.963h7.002a5.78 5.78 0 0 1 5.767 6.164M155.815 87.973c-4.312-1.279-8.353.384-10.639 3.436-2.286-3.052-6.327-4.715-10.639-3.436-4.022 1.193-7.151 5.004-7.151 9.198v28.321c0 .532.431.963.963.963h.822a.964.964 0 0 0 .964-.963v-17.209a6.873 6.873 0 0 1 13.745-.001v17.21c0 .532.431.963.963.963h.845a.963.963 0 0 0 .963-.963v-17.221a6.861 6.861 0 0 1 13.722 0v17.221c0 .532.432.963.964.963h.822a.963.963 0 0 0 .963-.963v-28.32c0-4.196-3.286-8.007-7.308-9.199z"/></g><defs><clipPath id="clip0_177_30471"><path fill="#fff" d="M19.145 21.642H197.23v178H19.144z"/></clipPath></defs></svg>