<svg xmlns="http://www.w3.org/2000/svg" width="217" height="222" fill="none"><path fill="#00503A" d="M215.348 135.194a2.2 2.2 0 0 0-.059-.488l-.066-.301-.07-.301a4 4 0 0 1-.098-.679l-.019-.301-.016-.297a2.7 2.7 0 0 1 .055-.738l.062-.297.066-.301q.058-.272.083-.543l.027-.301.027-.297q.018-.218-.035-.441l-.141-.602a2 2 0 0 1-.023-.8l.051-.297.054-.301a1.1 1.1 0 0 0-.007-.41l-.067-.301-.062-.297a2.2 2.2 0 0 1-.028-.777l.086-.602q.04-.271.047-.543l.008-.301.008-.296a2.7 2.7 0 0 0-.031-.508l-.051-.301-.047-.301a2.7 2.7 0 0 1-.02-.734l.036-.301.035-.297q.03-.283.043-.566l.011-.301.016-.301a2.3 2.3 0 0 0-.035-.492l-.051-.297-.055-.301a3.3 3.3 0 0 1-.046-.711l.011-.3.016-.301q.013-.297.023-.594l.024-.601a6 6 0 0 1 .066-.661l.047-.3.051-.301q.038-.237.015-.473l-.027-.301-.031-.3c-.02-.21-.029-.42-.035-.629l-.012-.301-.008-.301q-.01-.351.051-.699l.051-.301.054-.301q.044-.256.043-.511v-.602q.002-.217-.07-.445l-.195-.602a2.2 2.2 0 0 1-.102-.781l.016-.297.015-.301q.017-.323.063-.644l.086-.602q.032-.239.008-.476l-.032-.301-.031-.297a5 5 0 0 1-.027-.668l.008-.301.007-.297q.01-.312.032-.625l.019-.297.024-.3a2.3 2.3 0 0 0-.02-.492l-.086-.602a2.1 2.1 0 0 1 .031-.781l.133-.602q.047-.21.016-.414l-.086-.601q-.048-.311-.082-.622l-.031-.3-.032-.297a2.1 2.1 0 0 1 .067-.79l.172-.6q.065-.24.066-.47l.008-.601a2.3 2.3 0 0 0-.051-.488l-.066-.301-.063-.301a4.5 4.5 0 0 1-.094-.672l-.019-.3-.016-.301a18 18 0 0 1-.027-.618l-.016-.601a10 10 0 0 1 .008-.633l.012-.3.016-.302q.013-.307.035-.613l.019-.3.024-.298q.021-.298.039-.597l.015-.297.02-.3q.016-.255-.016-.509l-.078-.601a5 5 0 0 1-.039-.664l.004-.301v-.3q.004-.317.027-.634l.02-.297.023-.3q.018-.282.016-.563v-.601a39 39 0 0 0-.008-.594l-.004-.3-.004-.298a12 12 0 0 0-.027-.578l-.02-.3-.019-.297a7 7 0 0 1-.012-.645l.008-.3.004-.302q.008-.307.023-.613l.012-.297.016-.3q.014-.321.054-.641l.039-.301.036-.297q.036-.291.062-.582l.055-.601q.022-.26.004-.52l-.02-.3-.023-.302a16 16 0 0 1-.035-.617l-.008-.297-.012-.3a7 7 0 0 1 .008-.649l.031-.601q.017-.287.02-.575l.007-.601a2.5 2.5 0 0 0-.046-.5l-.059-.297-.059-.3a3.3 3.3 0 0 1-.058-.712l.008-.297.007-.3q.009-.303.02-.606l.023-.601q.011-.305.028-.61l.015-.3.02-.297a2.3 2.3 0 0 0-.028-.497l-.046-.296-.051-.301a5 5 0 0 1-.055-.676l-.004-.297-.004-.3q-.003-.362.078-.72l.071-.3.066-.297q.052-.226.031-.445l-.027-.301-.027-.297a8 8 0 0 1-.032-.64l-.007-.602a7 7 0 0 0-.032-.555l-.031-.3-.027-.301a3.7 3.7 0 0 1-.004-.692l.023-.3.028-.297q.021-.268.008-.536l-.012-.3-.016-.301q-.014-.347.035-.692l.039-.3.043-.301q.036-.25.02-.5l-.016-.301-.019-.3a7 7 0 0 1-.008-.645l.008-.301.011-.297a8 8 0 0 0-.003-.562l-.012-.301-.016-.301a8 8 0 0 0-.043-.566l-.062-.602a3 3 0 0 1 .004-.715l.078-.601a1.5 1.5 0 0 0-.016-.446l-.055-.3-.058-.301a3.8 3.8 0 0 1-.063-.692v-.601q.002-.352.075-.7l.125-.601q.054-.26.066-.52l.016-.3.011-.301a1.7 1.7 0 0 0-.043-.465l-.066-.297-.07-.3a2.7 2.7 0 0 1-.071-.739l.016-.297.016-.3q.014-.315.046-.63l.032-.3.035-.301q.032-.31.074-.617l.086-.602a.8.8 0 0 0-.035-.37l-.098-.302-.101-.3a1.5 1.5 0 0 1-.02-.891l.086-.3.082-.302a.86.86 0 0 0 .02-.379l-.051-.296-.051-.301a2.3 2.3 0 0 1-.004-.766l.047-.3.051-.301a1.2 1.2 0 0 0-.012-.418l-.062-.301-.063-.297a2 2 0 0 1 0-.805l.125-.601q.05-.243.043-.48l-.012-.301-.011-.297a8 8 0 0 0-.043-.563l-.071-.601a2.6 2.6 0 0 1 .024-.743l.109-.601q.038-.21 0-.422l-.109-.602a3 3 0 0 1-.043-.714l.031-.602a3 3 0 0 0-.019-.504l-.04-.3-.043-.302a5 5 0 0 1-.046-.664v-.601q-.001-.322.027-.645l.055-.601q.026-.308.062-.617l.039-.297.035-.301q.031-.248.008-.496l-.027-.3-.028-.298q-.03-.36.024-.719l.043-.3.047-.301q.038-.264.039-.527l.004-.301v-.301q0-.261-.039-.523l-.086-.602a2.6 2.6 0 0 1 0-.742l.086-.602q.037-.255.027-.508l-.012-.3-.011-.297q-.013-.292-.036-.582l-.027-.301-.023-.3a5 5 0 0 1-.012-.661l.016-.3.011-.302q.014-.302.032-.605l.015-.3.016-.298a1.9 1.9 0 0 0-.035-.472l-.063-.301-.066-.297a4 4 0 0 1-.086-.68l-.012-.3-.016-.301a4.6 4.6 0 0 1 .02-.672l.062-.602q.026-.261.012-.523l-.031-.602q-.018-.353.039-.703l.051-.3.047-.301q.04-.255.035-.508l-.004-.301-.008-.3a5 5 0 0 0-.039-.552l-.035-.296-.039-.301a6 6 0 0 1-.043-.656l-.008-.602a14 14 0 0 0-.016-.578l-.031-.602-.027-.59-.012-.285-.004-.078-.101.008-.301.012a2.6 2.6 0 0 0-.504.066l-.297.074-.301.07q-.384.091-.773.048l-.301-.032-.297-.035q-.314-.037-.629-.09l-.301-.05-.296-.047a1 1 0 0 0-.399.015l-.301.074-.296.075q-.36.09-.723.09l-.301.003h-.297q-.312 0-.625-.015l-.301-.012-.296-.012-.602-.027-.301-.016-.301-.011q-.308-.015-.617-.04l-.301-.023-.3-.027a3 3 0 0 0-.508.004l-.301.031-.301.027a2.8 2.8 0 0 1-.73-.023l-.602-.102a3.5 3.5 0 0 0-.523-.047l-.301-.003-.301-.008q-.304-.003-.609-.012l-.301-.012-.297-.011a10 10 0 0 0-.574-.004l-.301.008-.297.007a1.7 1.7 0 0 0-.464.075l-.301.093-.301.09a2.4 2.4 0 0 1-.758.106l-.601-.016-.606-.02-.601-.023a4.3 4.3 0 0 1-.676-.082l-.301-.059-.301-.062a1.7 1.7 0 0 0-.465-.027l-.3.023-.301.02a3.6 3.6 0 0 1-.699-.016l-.297-.04-.301-.034a3 3 0 0 0-.52-.024l-.601.024a2.6 2.6 0 0 0-.504.066l-.297.074-.301.07a2.7 2.7 0 0 1-.734.075l-.301-.016-.301-.012a8 8 0 0 0-.562 0l-.301.012-.301.008a4 4 0 0 1-.687-.04l-.602-.085a1.6 1.6 0 0 0-.457 0l-.601.086a2.3 2.3 0 0 1-.77-.027l-.301-.063-.3-.058a1.4 1.4 0 0 0-.438-.02l-.602.07a8 8 0 0 1-.636.055l-.301.012-.297.015q-.293.014-.586.035l-.601.047q-.354.027-.707-.023l-.602-.086a3.5 3.5 0 0 0-.523-.035l-.301.004-.297.004a17 17 0 0 1-.621-.008l-.301-.008-.297-.008a5 5 0 0 0-.543.02l-.301.027-.3.023a2.4 2.4 0 0 1-.754-.05l-.301-.067-.301-.07a1.4 1.4 0 0 0-.437-.027l-.301.03-.301.028a6 6 0 0 1-.66.028l-.301-.008-.301-.004a2.4 2.4 0 0 0-.496.039l-.301.055-.3.058a1.8 1.8 0 0 1-.821-.035l-.3-.086-.301-.082a.63.63 0 0 0-.34 0l-.301.082-.297.078a2.3 2.3 0 0 1-.765.074l-.301-.02-.301-.022a5 5 0 0 0-.543-.008l-.601.023q-.299.01-.598.024l-.297.011-.301.016a3 3 0 0 1-.722-.055l-.301-.062-.297-.059a1.4 1.4 0 0 0-.441-.016l-.602.07q-.306.039-.613.067l-.602.055a3.4 3.4 0 0 1-.703-.004l-.297-.035-.301-.035a5 5 0 0 0-.543-.032l-.3.004h-.301q-.312 0-.625-.015l-.602-.032q-.25-.012-.504.024l-.601.086a2.1 2.1 0 0 1-.785-.04l-.297-.07-.301-.074a1.3 1.3 0 0 0-.437-.031l-.301.031-.297.028q-.328.03-.656.027l-.301-.004h-.301q-.315-.004-.629-.027l-.601-.047a1.5 1.5 0 0 0-.45.035l-.3.07-.301.067q-.399.091-.801.02l-.602-.11a1 1 0 0 0-.402.004l-.601.133a3 3 0 0 1-.715.07l-.602-.016a9 9 0 0 1-.637-.035l-.296-.027-.301-.028a6 6 0 0 0-.555-.027h-.297l-.301.004q-.297 0-.593.004l-.602.008a6 6 0 0 0-.551.035l-.3.031-.297.035a2.8 2.8 0 0 1-.735-.015l-.601-.094a1.4 1.4 0 0 0-.446 0l-.3.047-.297.047q-.406.062-.805-.043l-.601-.157a.9.9 0 0 0-.391-.02l-.301.052-.297.05a2.1 2.1 0 0 1-.797-.023l-.297-.07-.3-.067a1.3 1.3 0 0 0-.43-.023l-.301.035-.297.04q-.361.043-.722 0l-.301-.04-.301-.035a1 1 0 0 0-.406.031l-.297.082-.301.082q-.365.1-.738.098h-.301l-.902-.012-.297-.004-.301-.004a6 6 0 0 1-.66-.047l-.602-.078a7 7 0 0 0-.558-.054l-.301-.012-.301-.016q-.286-.015-.574-.015l-.301-.004h-.3q-.26-.002-.52.039l-.602.094a3.2 3.2 0 0 1-.707.035l-.601-.04a6 6 0 0 0-.555-.007l-.297.008-.301.007q-.275.009-.55.043l-.602.079a2.1 2.1 0 0 1-.789-.055l-.601-.156a1 1 0 0 0-.399-.024l-.297.047-.301.047a3 3 0 0 1-.718.023l-.602-.054a4 4 0 0 0-.531-.012l-.602.031a6 6 0 0 0-.554.051l-.301.043-.301.039a2 2 0 0 1-.789-.043l-.301-.078-.301-.074a1.3 1.3 0 0 0-.429-.04l-.602.055a6 6 0 0 1-.656.024l-.301-.004-.301-.008a3 3 0 0 0-.515.031l-.602.086q-.404.056-.801-.05l-.296-.079-.301-.082a.9.9 0 0 0-.387-.015l-.301.05-.297.051a3.4 3.4 0 0 1-.707.051l-.297-.012-.3-.011a7 7 0 0 0-.563.003l-.297.012-.3.016q-.32.014-.637.004l-.602-.016a6 6 0 0 1-.648-.055l-.602-.078a.95.95 0 0 0-.394.032l-.301.09-.301.085a2.5 2.5 0 0 1-.746.102l-.301-.004-.301-.008a3.5 3.5 0 0 1-.699-.082l-.3-.066-.297-.067a3 3 0 0 0-.52-.074l-.602-.031a5 5 0 0 0-.546 0l-.301.015-.297.016q-.259.014-.52.07l-.601.133a2.7 2.7 0 0 1-.734.063l-.301-.016-.297-.016a6 6 0 0 0-.555-.003l-.297.015-.3.012a2.9 2.9 0 0 1-.727-.063l-.602-.125a2 2 0 0 0-.472-.043l-.602.024q-.292.013-.586.035l-.3.02-.297.02c-.24.016-.484.005-.723-.036l-.297-.05-.3-.052a.84.84 0 0 0-.38.02l-.3.09-.297.086a1.9 1.9 0 0 1-.809.058l-.601-.086a1.7 1.7 0 0 0-.465 0l-.602.078q-.356.047-.71.012l-.602-.062a5 5 0 0 0-.543-.02l-.297.004-.301.008a6 6 0 0 1-.656-.024l-.297-.027-.3-.027a2 2 0 0 0-.477.015l-.301.051-.301.047q-.406.063-.805-.043l-.601-.156a1.3 1.3 0 0 0-.43-.04l-.3.024-.301.028a4 4 0 0 1-.68 0l-.602-.047a2.3 2.3 0 0 0-.492.011l-.3.04-.301.042q-.337.046-.676.04l-.301-.008-.3-.004a9 9 0 0 1-.638-.04l-.3-.027-.297-.027a3.4 3.4 0 0 0-.524-.012l-.601.04q-.338.02-.676-.012l-.602-.055a3 3 0 0 0-.507-.004l-.602.055q-.315.027-.629.035l-.601.015a3 3 0 0 0-.516.055l-.602.117q-.406.077-.808-.02l-.602-.14q-.256-.059-.508-.07l-.601-.031a1.6 1.6 0 0 0-.457.043l-.3.074-.298.074q-.368.091-.742.074l-.602-.031-.605-.031-.297-.016-.3-.015a6 6 0 0 0-.552-.004l-.3.011-.301.016q-.295.012-.59.031l-.3.02-.297.02q-.343.021-.684-.012l-.3-.032-.298-.03q-.295-.03-.59-.052l-.601-.047q-.297-.023-.594-.043l-.602-.039q-.232-.015-.468.032l-.297.058-.3.063q-.397.08-.794.004l-.601-.118a1.3 1.3 0 0 0-.43-.007l-.3.046-.302.043a2.3 2.3 0 0 1-.77-.015l-.6-.117a.8.8 0 0 0-.376.011l-.601.157q-.38.1-.766.07l-.3-.02-.298-.023q-.291-.024-.586-.04l-.3-.01-.301-.016-.598-.028-.3-.015-.301-.012a3 3 0 0 0-.52.015l-.297.036-.3.035a3.3 3.3 0 0 1-.708.004l-.3-.028-.301-.03a2 2 0 0 0-.48.007l-.301.043-.297.043a5 5 0 0 1-.672.047h-.598a3.5 3.5 0 0 1-.703-.07l-.3-.063-.302-.059a.8.8 0 0 0-.374.008l-.301.074-.301.079a2 2 0 0 1-.8.035l-.302-.047-.3-.051a5 5 0 0 0-.543-.055l-.602-.03q-.24-.013-.48.034l-.301.055-.297.059c-.242.046-.49.06-.734.042l-.297-.023-.301-.02a3.5 3.5 0 0 0-.527 0l-.297.024-.301.023a9 9 0 0 1-.637.024l-.3.004h-.297a5 5 0 0 1-.672-.043l-.602-.086q-.299-.04-.598-.078l-.3-.043-.301-.04a2 2 0 0 0-.48-.007l-.602.062q-.33.034-.66.028l-.297-.004-.3-.008h-.888l-.3.004q-.294 0-.586.012l-.301.011-.297.012a7 7 0 0 1-.649-.004l-.601-.031A7 7 0 0 0 22 1.108l-.601.016a3 3 0 0 0-.508.062l-.3.063-.298.062a2.2 2.2 0 0 1-.777.028l-.3-.047-.302-.043a2 2 0 0 0-.48-.016l-.602.055q-.337.03-.675.012l-.297-.016-.301-.02a5 5 0 0 1-.672-.09l-.297-.058-.3-.063a.8.8 0 0 0-.368.016l-.601.164a2.2 2.2 0 0 1-.774.074l-.601-.046-.606-.055-.3-.031-.301-.028a1.5 1.5 0 0 0-.446.028l-.3.062-.301.066a1.8 1.8 0 0 1-.82-.011l-.301-.07-.301-.075a.9.9 0 0 0-.383-.008l-.3.063-.301.059q-.408.08-.813-.016l-.602-.14a1.3 1.3 0 0 0-.43-.028l-.6.062q-.302.034-.602.067l-.301.031-.297.031a7 7 0 0 1-.652.032l-.297.003H3.39a3 3 0 0 1-.723-.085l-.601-.149a1 1 0 0 0-.403-.02l-.3.047-.036.004-.007.211-.008.301q-.011.309-.031.617l-.02.297-.02.3q-.017.273-.003.544l.015.297.016.3q.016.333-.008.665l-.023.3-.02.297q-.023.3-.043.598l-.039.601a7 7 0 0 0-.016.56l.004.3.008.297q.006.331-.031.664l-.035.3-.031.297a4 4 0 0 0-.024.536l.016.601q.006.233.074.473l.172.601q.12.419.027.844l-.133.602a1.1 1.1 0 0 0-.011.414l.043.3.046.301q.06.38-.003.758l-.047.3-.051.298q-.045.271-.059.543l-.015.3-.012.301a4 4 0 0 0 .012.528l.054.601q.026.282.075.563l.054.3.051.297q.061.35.05.704l-.01.3-.009.297q-.01.34-.07.676l-.055.297-.054.3q-.037.202.007.407l.067.297.066.3q.084.375.051.754l-.027.301-.028.297q-.022.256 0 .512l.055.601q.035.4-.082.79l-.09.296-.09.301a.7.7 0 0 0-.02.36l.06.3.062.297c.05.25.06.506.031.758l-.035.3-.035.298q-.025.216.023.437l.133.602c.062.283.048.569-.035.847l-.18.602a.52.52 0 0 0 0 .312l.09.297.094.301q.116.379.097.77l-.03.601a4.4 4.4 0 0 1-.087.68l-.066.297-.063.3q-.046.227-.023.45l.031.3.028.297q.03.31.05.617l.02.301.023.301q.025.376-.062.746l-.07.3-.07.298a1.9 1.9 0 0 0-.048.472l.016.602q.008.283.035.566l.027.301.032.297q.028.289.07.578l.086.602q.051.357.02.715l-.055.601q-.023.246.008.492l.039.301.035.3c.028.23.04.46.027.688l-.016.297-.015.301q-.016.299-.027.598l-.016.297-.012.3q-.013.317-.047.633l-.031.301-.035.3q-.031.294-.055.587l-.027.3-.024.301q-.02.252.008.504l.063.602q.033.308.054.617l.024.3.023.298q.021.304.035.609l.02.3.016.302q.016.34-.02.68l-.031.296-.031.3q-.026.27-.02.54l.004.3.008.301q.004.28.031.56l.027.3.032.3q.035.376-.04.747l-.062.3-.059.301a1.2 1.2 0 0 0-.011.426l.047.3.046.298q.054.348.04.699l-.012.297-.012.3q-.011.26.02.52l.035.3.039.302c.03.252.017.504-.031.754l-.055.3-.059.301a6 6 0 0 0-.082.551l-.027.3-.031.302q-.025.263-.012.527l.012.3.015.301q.014.309.016.618l.004.3v.301q.003.31-.008.621l-.008.301-.011.3q-.01.294-.012.587l-.004.3v.297q-.003.25.047.5l.058.301.063.297q.073.361.055.727l-.032.601q-.016.278-.008.555l.012.297.012.3q.012.292.035.583l.024.3.023.297q.027.36-.031.719l-.047.3-.051.302a1.4 1.4 0 0 0 0 .441l.047.297.05.3q.055.342.051.684l-.003.301v.3a3.3 3.3 0 0 1-.086.708l-.067.3-.07.301q-.058.254-.066.504l-.024.602q-.011.265.016.531l.031.297.031.3q.035.317.047.634l.008.3.012.301q.011.33-.016.66l-.023.297-.024.3a3 3 0 0 0 0 .517l.055.601.05.602.028.297.027.3q.031.367-.031.73l-.055.298-.05.3a3.6 3.6 0 0 0-.051.528l-.008.3-.004.297q-.006.304-.016.606l-.011.3-.008.301q-.008.252.031.504l.05.301.048.301q.054.346.047.691l-.008.297-.008.301q-.006.315-.031.629l-.028.3-.023.301q-.022.27-.012.54l.024.601q.011.326-.012.653l-.02.3-.019.297q-.017.272-.004.543l.012.3.015.302q.013.277.051.554l.04.301.042.3q.044.319.063.638l.02.3.015.297q.021.349-.024.696l-.039.3-.035.301q-.04.295-.074.59l-.031.3-.035.302q-.022.204.035.418l.156.601q.1.39.05.785l-.034.301-.04.301a4 4 0 0 0-.027.527l.016.602q.007.33-.028.66l-.062.601q-.023.233.016.465l.101.602q.066.404-.035.805l-.074.296-.078.301a.7.7 0 0 0 .004.352l.156.601q.096.363.094.731l-.008.601a8 8 0 0 1-.035.641l-.032.301-.027.301a9 9 0 0 0-.039.57l-.008.297-.012.3q-.008.263.024.528l.031.297.035.3q.043.36 0 .719l-.039.301-.035.301q-.034.287-.055.574l-.023.301-.02.301q-.018.253.008.507l.063.602q.037.362-.012.723l-.04.3-.042.297a1.2 1.2 0 0 0 .016.426l.132.602q.072.332.098.668l.023.296.024.301q.03.391-.074.774l-.086.3-.082.301a1 1 0 0 0-.028.395l.043.301.043.296q.046.315.075.629l.023.301.027.301a2.2 2.2 0 0 1-.07.773l-.164.602q-.062.234-.059.461l.004.297.004.3q.005.27.043.54l.043.3.04.301q.048.355.019.711l-.024.301-.027.297a8 8 0 0 0-.027.566l-.004.301-.004.297q-.003.285.011.57l.016.301.016.297q.016.298.035.597l.016.301.02.301q.018.338-.013.676l-.03.297-.028.3q-.021.236.02.473l.05.301.05.297c.044.255.042.514-.003.769l-.055.301-.05.301a1.7 1.7 0 0 0-.02.461l.062.601q.039.362-.011.723l-.043.297-.043.301a4 4 0 0 0-.035.527v.602q0 .239.058.484l.074.301.07.3c.056.233.09.468.094.704l.004.3.008.301a3 3 0 0 1-.074.723l-.066.301-.07.296a2 2 0 0 0-.052.485v.301l.004.3q.004.276.036.551l.062.602q.038.343.016.687l-.02.297-.023.301q-.02.3-.04.601l-.023.301-.02.301a5 5 0 0 0-.007.543l.012.301.015.297q.014.303.024.605l.011.301.012.297q.012.318 0 .636l-.023.602a2.7 2.7 0 0 0 .03.504l.095.602q.06.4-.04.796l-.148.602a.8.8 0 0 0-.008.375l.125.602q.078.365.055.734l-.039.601q-.02.307-.05.614l-.056.601a5 5 0 0 0-.023.547v.301l.004.297q.003.281.027.562l.028.301.023.301q.027.3.05.601l.028.301.024.301q.024.31.035.621l.012.301.011.297q.014.336-.02.672l-.03.297-.032.3q-.024.238.012.477l.047.301.043.297q.052.337.054.675v.602q0 .305-.007.609l-.008.301-.004.301a31 31 0 0 0-.008.59v.3l-.004.301q0 .322-.031.645l-.027.301-.032.3q-.028.299-.054.598l-.028.301-.027.297q-.02.228.023.461l.055.3.059.301q.07.374.027.75l-.07.602q-.03.262-.02.523l.012.297.012.301q.013.361-.059.719l-.059.3-.062.301a1.3 1.3 0 0 0-.012.43l.086.601q.052.365.008.731l-.035.297-.04.3q-.025.212.024.426l.14.602q.084.354.083.715l-.004.3v.301q-.001.305-.008.61l-.008.3-.007.297a5 5 0 0 1-.06.668l-.046.301-.047.297a5 5 0 0 0-.055.547l-.015.301-.012.296q-.01.232.043.469l.07.301.07.297c.064.276.06.556-.007.832l-.149.601q-.06.245-.062.485l-.004.297v.3q-.003.29.008.579l.023.601q.01.266.055.531l.055.301.05.301q.059.334.067.672l.016.601q.008.345-.043.688l-.094.601q-.035.233-.008.465l.035.301.031.301q.038.312.059.625l.016.301.02.3a5 5 0 0 1 0 .664l-.024.301-.02.301q-.017.254.012.508l.035.301.035.296q.04.355.004.711l-.031.297-.031.301a5 5 0 0 0-.024.543l.004.301.004.297q.006.296.016.593l.007.301.012.301a2.6 2.6 0 0 1-.086.738l-.156.602a.94.94 0 0 0-.02.394l.094.602q.05.306.09.613l.043.301.04.301q.046.376-.02.75l-.051.301-.051.296a6 6 0 0 0-.074.559l-.024.297-.027.301a4 4 0 0 0-.004.527l.04.602q.018.312.023.625v.3l.003.301q.002.253.051.508l.117.602q.08.414-.03.824l-.079.301-.082.3a.8.8 0 0 0-.012.368l.063.296.062.301q.077.365.055.735l-.04.601a8 8 0 0 1-.065.641l-.047.301-.043.3a1.7 1.7 0 0 0-.008.465l.035.301.04.301q.033.299.07.597l.078.602q.04.35.011.703l-.023.297-.028.301q-.02.248.012.496l.078.601.004.024.203.094c-.007-.004.005.002.047.007q.063.009.184.004l.297-.008.3-.007q.333-.01.665.019l.296.028.301.027q.319.028.637.082l.601.101q.186.033.38-.023l.296-.086.301-.086q.38-.111.77-.09l.3.02.301.015q.276.018.55.008l.298-.011.3-.012q.38-.015.75.086l.301.078.301.082q.179.048.356.008l.601-.141q.391-.09.785-.031l.602.094q.256.037.512.031l.601-.016q.333-.01.664.024l.301.035.3.031q.214.023.43-.027l.602-.141q.378-.09.762-.055l.3.032.301.027q.294.03.586.051l.301.023.3.02.595.039.3.019.301.016q.219.015.445-.043l.301-.078.301-.074q.377-.098.762-.071l.297.024.3.023q.337.028.672.102l.297.066.3.067a.8.8 0 0 0 .372-.008l.297-.074.3-.079q.39-.098.786-.05l.297.035.3.035q.23.026.461-.012l.301-.047.301-.05a2.8 2.8 0 0 1 .73-.02l.301.031.297.032q.283.027.566.035l.301.011.301.008q.287.01.574.004l.301-.004.297-.008q.316-.005.633.008l.3.016.301.012q.287.013.575.011h.3l.297-.004q.295 0 .59-.007l.3-.012.302-.008q.275-.006.55-.039l.602-.078c.248-.031.499-.022.746.019l.297.051.3.051q.25.042.497.031l.601-.023q.321-.013.641 0l.3.012.298.011q.315.014.629.047l.3.027.301.032q.255.026.508.004l.297-.028.3-.027q.321-.028.641-.031l.602-.008a6 6 0 0 1 .648.027l.301.031.3.028q.257.025.512.004l.297-.028.301-.027q.33-.028.66-.016l.301.008.3.012q.255.008.509-.031l.601-.086a10 10 0 0 1 .63-.074l.3-.024.3-.027q.4-.032.786.086l.601.179q.232.07.453.071h.301l.301-.004q.271-.001.543-.031l.3-.032.302-.035q.292-.032.586-.074l.3-.043.297-.043q.34-.048.68-.043l.601.008q.35.007.696.082l.601.125a.85.85 0 0 0 .38-.004l.3-.074.297-.071q.368-.087.742-.07l.602.031q.27.014.543-.004l.601-.039q.312-.017.625-.019l.297-.004.3-.004q.304-.005.606-.008h.598q.36-.002.715.078l.601.141q.253.058.5.062l.297.008.301.004q.295.007.59.008h.601q.26.002.52-.039l.3-.051.298-.047q.387-.063.773.008l.3.059.298.054q.232.043.46.02l.301-.031.301-.028q.297-.029.594-.062l.297-.035.3-.036q.33-.036.66-.035l.298.004h.3q.293.002.586-.004l.602-.015q.35-.008.7.054l.6.11q.239.041.473.023l.297-.023.301-.024q.308-.023.617-.035l.301-.015.3-.012q.28-.015.56-.051l.3-.035.3-.039a3.2 3.2 0 0 1 .712-.008l.601.063q.29.029.579.046l.3.016.301.02q.319.018.637.062l.3.039.297.043q.243.032.485.008l.3-.031.301-.028q.301-.03.602-.058l.602-.055q.372-.034.742.039l.601.117q.257.05.512.055l.602.016q.256.004.515-.036l.301-.043.297-.043q.316-.047.633-.074l.3-.027.301-.024q.316-.027.633-.035l.297-.004.3-.003q.317-.007.633.007l.301.016.301.012q.339.016.676.086l.601.125q.23.046.457.027l.301-.027.301-.024a7 7 0 0 1 .645-.027l.296.004h.301q.25.002.5-.047l.301-.059.3-.062q.397-.079.794 0l.3.058.301.063q.263.051.524.062l.297.012.3.012a1.9 1.9 0 0 0 .473-.043l.297-.067.3-.066q.371-.083.747-.059l.3.02.297.023q.284.02.567.02h.301l.3.004q.335 0 .668.047l.301.043.301.039c.182.025.365.045.547.051l.297.007.3.012q.274.008.547-.016l.297-.023.301-.023q.313-.024.625-.032l.602-.015q.333-.009.668.027l.3.031.297.032q.24.026.481-.004l.3-.043.301-.039q.347-.048.696-.028l.3.02.297.015q.286.018.571.016h.601q.293-.002.586-.012l.602-.015q.26-.007.523-.055l.602-.109q.356-.066.714-.047l.602.031q.31.017.617.047l.301.027.297.028c.181.016.366.019.547.015l.297-.008.3-.004q.273-.006.547-.043l.602-.078q.356-.046.711-.011l.301.027.3.031q.257.025.512.004l.602-.047q.338-.025.675 0l.301.024.297.023q.295.022.59.035l.601.032q.311.013.622.043l.601.062q.22.022.445-.027l.301-.063.301-.066a3.3 3.3 0 0 1 .711-.071l.297.004.301.004q.316.004.632.028l.301.019.297.024q.302.022.605.046l.602.047q.289.025.578.039l.602.024.597.023.301.016.301.012q.279.01.559 0l.601-.024q.256-.011.516-.066l.301-.063.296-.066q.394-.084.789-.016l.301.055.301.051q.264.044.527.05l.602.016q.267.007.535-.019l.301-.028.301-.031a3 3 0 0 1 .714.012l.301.039.297.039q.237.03.473 0l.601-.078q.315-.04.629-.059l.602-.039q.363-.025.722.039l.297.055.301.054q.217.041.434.008l.301-.05.3-.047q.36-.057.723-.024l.301.028.301.031q.226.021.457-.024l.601-.117q.389-.074.777-.008l.301.055.301.051q.25.041.496.031l.301-.012.297-.011q.358-.014.715.054l.3.055.297.059q.23.042.457.019l.602-.062q.318-.032.637-.039l.601-.016q.272-.006.543-.043l.602-.086q.35-.049.703-.023l.601.046q.276.02.551.012l.301-.004.301-.008q.358-.007.715.067l.296.066.301.063q.18.037.363-.016l.297-.082.301-.086q.371-.104.75-.094l.602.016q.312.01.625.035l.3.028.301.023q.248.021.496-.012l.297-.039.301-.039a1.9 1.9 0 0 1 .809.07l.3.094.301.09q.232.069.453.066h.598q.282-.002.562-.027l.301-.023.297-.028q.33-.026.66-.015l.301.008.301.011q.225.007.457-.054l.297-.079.301-.078c.281-.074.569-.075.851-.004l.301.079.297.074q.233.06.461.054l.3-.011.301-.008q.283-.01.567-.039l.3-.027.301-.032a5 5 0 0 1 .668-.019l.301.015.301.012q.283.011.566.004l.301-.004.301-.008q.324-.008.648.016l.301.023.297.02q.27.02.539.008l.301-.012.3-.016q.322-.014.645 0l.602.024q.244.01.492-.031l.601-.102q.394-.067.785.016l.602.125q.244.048.484.043l.301-.008.301-.004q.274-.006.547-.043l.301-.039.296-.039q.338-.045.676-.039l.301.004.297.007q.322.006.644.039l.301.028.297.031q.274.03.547.027l.297-.004.301-.003q.31-.003.621.007l.3.008.301.012q.265.009.532-.02l.601-.062q.34-.035.68-.016l.301.02.3.015q.254.018.508-.011l.301-.039.301-.036q.338-.041.675-.031l.301.008.297.012q.345.009.688.078l.601.125a.7.7 0 0 0 .352-.02l.297-.093.3-.09c.274-.085.556-.105.836-.055l.301.055.301.051q.291.052.582.093l.301.043.297.043q.201.03.41-.019l.301-.078.3-.075q.346-.085.696-.101l.3-.016.301-.012q.37-.017.735.067l.3.066.297.071q.202.046.403.011l.601-.109q.366-.064.735-.027l.3.027.301.031q.281.028.563.035l.601.016q.267.008.535-.02l.602-.062a8 8 0 0 1 .64-.039l.301-.008.301-.004q.31-.005.621.004l.602.016q.34.01.679.078l.301.054.301.059q.252.049.5.047h.301l.297-.004q.236-.003.48-.066l.301-.075.301-.078c.285-.073.575-.071.859.008l.301.082.297.086q.158.044.32-.008l.297-.09.301-.093q.384-.12.781-.094l.601.039q.313.02.625.055l.297.035.301.035c.04.005.064.002.074 0l.157-.148.144-.145q.003-.016 0-.055l-.031-.3-.035-.297a2.4 2.4 0 0 1 .031-.758l.059-.297.062-.301q.044-.225.02-.449l-.032-.301-.035-.301a3 3 0 0 1 .004-.711l.035-.3.039-.301a1.5 1.5 0 0 0-.015-.449l-.11-.602a5 5 0 0 1-.074-.668l-.012-.301-.015-.296q-.014-.307-.02-.614l-.004-.301-.008-.3q-.006-.315.008-.629l.024-.602q.013-.278 0-.554l-.016-.301-.012-.301a3 3 0 0 1 .051-.719l.059-.301.058-.296q.043-.212.008-.422l-.051-.297-.054-.301a2.3 2.3 0 0 1 0-.77l.101-.601a1.7 1.7 0 0 0 .016-.461l-.063-.602a3.5 3.5 0 0 1-.004-.703l.032-.3.031-.297a1.5 1.5 0 0 0-.023-.45l-.125-.601a2.8 2.8 0 0 1-.055-.731l.019-.3.016-.301q.016-.278.008-.555l-.008-.301-.008-.297a3.3 3.3 0 0 1 .055-.71l.117-.602a1 1 0 0 0-.008-.395l-.133-.601a1.75 1.75 0 0 1 .016-.836l.078-.301.082-.301q.053-.204.024-.402l-.039-.301-.043-.297a3.3 3.3 0 0 1-.024-.707l.047-.601q.02-.28.02-.559l-.004-.301v-.3q0-.313.015-.625l.012-.301.016-.301a6 6 0 0 0 0-.551l-.032-.601q-.014-.301-.027-.602l-.023-.601q-.013-.34.027-.68l.035-.297.035-.301q.031-.261.02-.523l-.012-.301-.012-.297a5 5 0 0 0-.054-.543l-.094-.601a3 3 0 0 1-.02-.723l.055-.602a2.2 2.2 0 0 0-.008-.488l-.039-.301-.039-.297a6 6 0 0 1-.051-.656l-.007-.601a4 4 0 0 1 .039-.676l.039-.301.043-.301q.032-.234.004-.468l-.036-.301-.039-.301a8 8 0 0 1-.05-.641l-.024-.601a3.2 3.2 0 0 1 .051-.711l.055-.301.058-.297a1.7 1.7 0 0 0 .02-.465l-.024-.3-.027-.301a8 8 0 0 1-.031-.641l-.004-.301v-.296a5 5 0 0 1 .039-.668l.078-.602a1.6 1.6 0 0 0-.008-.453l-.101-.602a3.7 3.7 0 0 1-.051-.691l.004-.297.004-.301q.005-.32.035-.64l.031-.297.027-.301a2.5 2.5 0 0 0-.004-.5l-.062-.602a4.5 4.5 0 0 1-.02-.675l.016-.301.012-.301q.013-.283.008-.566l-.004-.297-.008-.301a11 11 0 0 0-.027-.574l-.024-.297-.023-.301a5 5 0 0 1-.008-.664l.015-.297.012-.301a5 5 0 0 0-.004-.546l-.019-.297-.02-.301a3.2 3.2 0 0 1 .035-.715l.102-.602q.043-.262.047-.523l.008-.301.004-.301a2.4 2.4 0 0 0-.047-.492l-.059-.3-.062-.297a3 3 0 0 1-.059-.719l.023-.602a8 8 0 0 0 .004-.57l-.007-.301-.008-.297a3 3 0 0 1 .066-.714l.063-.301.066-.301q.056-.269.074-.535l.024-.301.023-.297a3 3 0 0 0-.008-.515l-.054-.602a8 8 0 0 0-.075-.563l-.101-.601a3.2 3.2 0 0 1-.043-.707l.031-.602a5 5 0 0 0-.004-.547l-.031-.601a25 25 0 0 1-.027-.61l-.016-.601a2.5 2.5 0 0 1 .098-.754l.089-.301.086-.301a1 1 0 0 0 .036-.398l-.071-.602q-.034-.288-.082-.578l-.101-.601a3 3 0 0 1-.028-.723l.028-.301.023-.3q.027-.288.039-.575l.008-.3.012-.301a5 5 0 0 0-.008-.543l-.024-.301-.023-.297-.02-.64v-.301l.004-.301q.002-.31.016-.621l.031-.602q.014-.293.02-.586l.008-.3.007-.297q.007-.333.055-.664l.047-.301.043-.301a3.4 3.4 0 0 0 .039-.523zm.699-85.293.055.3.059.302q.07.375.023.754l-.078.601a2 2 0 0 0-.004.485l.031.296.035.301q.034.316.047.633l.012.3.016.298q.014.32.003.64l-.011.297-.008.3q-.009.278.008.556l.015.3.02.301q.021.35-.027.7l-.043.3-.043.297q-.035.255-.024.508l.016.3.012.301q.016.332-.012.665l-.028.3-.023.301q-.021.254.004.508l.027.3.032.301q.03.32.035.641l.007.602q.004.279.028.558l.055.602q.034.381-.051.758l-.071.3-.066.297a2 2 0 0 0-.055.485l.008.601q.002.261.043.524l.051.3.047.301q.055.353.035.707l-.031.602q-.016.294-.028.59l-.011.3-.012.297-.02.598-.007.297-.008.3a2.2 2.2 0 0 0 .039.493l.117.601q.069.349.066.7l-.004.3-.003.297q-.002.313-.02.625l-.016.301-.019.3a6 6 0 0 0-.004.552l.008.3.012.301q.01.291.031.582l.023.3.02.302q.025.34-.004.68l-.028.296-.027.301q-.027.31-.066.621l-.035.297-.039.3a7 7 0 0 0-.047.563l-.016.301-.016.297q-.013.295-.019.59l-.004.3-.008.297q-.006.28.012.56l.019.3.02.297q.021.312.027.625l.008.601q.006.303.008.606v.601q.002.318-.02.637l-.019.3-.024.298q-.02.285-.023.57v.3l-.004.302a4 4 0 0 0 .031.53l.078.602q.042.345.02.692l-.016.3-.019.301-.039.606-.02.297-.023.3q-.02.296-.031.59l-.016.297-.012.301a9 9 0 0 0-.008.566l.008.301.008.297q.007.291.023.582l.039.602q.015.262.071.527l.066.297.063.3q.076.355.074.712l-.004.3-.004.297a2.8 2.8 0 0 1-.105.735l-.086.296-.082.301q-.06.21-.039.41l.035.301.031.301q.032.289.074.578l.043.301.047.301q.057.392-.031.781l-.067.301-.07.3q-.047.211-.016.418l.086.602q.052.353.028.707l-.02.301-.019.297q-.022.289-.032.578l-.015.601q-.006.267.023.536l.063.601q.036.361-.016.723l-.043.297-.043.3q-.04.277-.054.555l-.032.602q-.011.204.059.422l.098.296.093.301q.12.371.121.754v.602q0 .342-.058.683l-.055.301-.051.301a2.5 2.5 0 0 0-.035.5l.008.297.008.3q.008.286.035.571l.031.301.028.296q.032.365-.028.727l-.047.301-.05.301q-.043.27-.051.539l-.012.296-.012.301q-.01.303-.023.606l-.016.301-.011.3q-.012.243.031.489l.054.3.051.301q.062.353.047.707l-.023.602q-.015.316-.051.633l-.035.3-.032.301q-.026.232.012.465l.047.297.047.301q.056.346.047.695l-.008.301-.008.297a6 6 0 0 1-.058.66l-.086.601a1.2 1.2 0 0 0 .015.422l.063.297.066.301c.057.262.062.529.016.793l-.051.301-.055.296a1 1 0 0 0 .012.403l.07.297.075.3q.09.379.054.762l-.027.301-.027.297q-.031.33-.102.66l-.062.301-.067.301a1.7 1.7 0 0 0-.035.464l.02.297.019.301q.016.258.074.52l.067.3.07.301q.08.353.082.711v.598a4.4 4.4 0 0 1-.047.676l-.047.3-.043.301a4 4 0 0 0-.047.535l-.015.602c-.005.204-.009.409-.02.613l-.031.602q-.014.289-.016.578l-.004.297v.3a7 7 0 0 0 .02.559l.02.301.023.301q.024.327.012.656l-.024.601q-.012.31-.039.621l-.023.301-.028.301q-.02.237.02.477l.047.3.051.297q.052.313.089.625l.036.297.035.301q.048.405-.067.801l-.089.3-.086.297a1.4 1.4 0 0 0-.059.446l.016.601q.009.293.027.586l.031.602q.017.326 0 .652l-.015.301-.012.301q-.013.245.027.492l.051.297.051.3q.053.319.086.637l.027.301.027.297q.033.344.008.687l-.023.301-.024.297a5 5 0 0 1-.093.668l-.063.301-.062.297a2 2 0 0 0-.047.488l.008.297.007.301q.008.316-.004.632l-.011.297-.012.301q-.01.238.039.481l.063.3.058.301q.073.352.067.707l-.004.301-.008.301a4.5 4.5 0 0 1-.063.672l-.047.3-.05.301a2 2 0 0 0-.028.484l.039.602q.023.329.008.656l-.015.301-.012.297q-.013.27.008.539l.019.301.024.301q.024.314.031.628l.008.297.004.301q.006.32-.008.637l-.016.297-.012.301a3.5 3.5 0 0 0 .016.523l.063.602q.037.349.003.699l-.027.301-.031.296a7 7 0 0 0-.031.563l-.008.601q-.006.253.035.508l.102.602q.062.372.015.746l-.039.301-.039.297a4 4 0 0 0-.031.535v.297l.004.3q.002.282.027.563l.027.297.024.301a2.7 2.7 0 0 1-.035.734l-.11.601q-.045.246-.035.489l.024.601q.01.28.043.559l.039.301.035.297q.045.364-.004.73l-.086.602a3 3 0 0 0-.031.519l.007.301.004.301q.007.27.043.543l.078.601q.047.355.012.711l-.054.602c-.015.158-.014.317.011.476l.047.301.047.297q.053.33.066.66l.012.297.012.301q.013.34-.028.679l-.035.301-.035.297q-.03.262-.019.524l.011.3.012.297.027.598.016.301.012.3c.01.215.014.43.004.645l-.032.602q-.012.286-.011.574v.301l.004.3q0 .32-.024.637l-.023.301-.02.301q-.018.245.016.492l.039.301.043.3q.055.403-.051.797l-.156.602a.74.74 0 0 0-.008.359l.133.602c.06.266.063.537.012.804l-.055.301-.059.297q-.047.248-.039.492l.016.602q.01.322-.008.644l-.02.297-.015.301a1.8 1.8 0 0 0 .035.469l.063.301.058.3c.051.249.068.499.043.75l-.062.602a2.4 2.4 0 0 0 0 .496l.031.301.035.301q.039.368-.023.734l-.055.301-.051.3q-.035.215.004.43l.102.602q.067.391-.008.781l-.059.301-.058.297q-.05.24-.04.48l.032.602q.014.321 0 .644l-.024.602a10 10 0 0 0-.008.566l.008.301.004.301q.006.292.02.586l.011.3.016.301q.01.266.059.531l.109.602q.068.374.023.75l-.035.301-.039.297a2.2 2.2 0 0 0 0 .488l.032.301.031.297q.041.378-.031.754l-.063.3-.059.297a1.5 1.5 0 0 0-.019.445l.07.602c.035.302-.028.633-.285.879l-.164.156-.168.16c-.25.239-.57.292-.867.258l-.301-.031-.301-.035a12 12 0 0 0-.574-.055l-.602-.039a1.1 1.1 0 0 0-.417.051l-.301.094-.297.093c-.291.091-.59.094-.883.012l-.602-.164a.64.64 0 0 0-.339-.004l-.301.074-.301.078a3 3 0 0 1-.719.098l-.3.004h-.301a3.5 3.5 0 0 1-.699-.063l-.602-.117a3.3 3.3 0 0 0-.52-.058l-.296-.008-.301-.012a11 11 0 0 0-.578 0l-.297.004-.301.008a7 7 0 0 0-.559.031l-.601.063a5 5 0 0 1-.664.027l-.301-.008-.297-.008a9 9 0 0 1-.637-.039l-.3-.031-.301-.027a1.7 1.7 0 0 0-.461.015l-.602.11a2 2 0 0 1-.797-.02l-.3-.07-.301-.067a1.8 1.8 0 0 0-.465-.043l-.301.012-.3.016a2.6 2.6 0 0 0-.5.074l-.602.148a2.1 2.1 0 0 1-.793.043l-.297-.043-.301-.043a17 17 0 0 1-.617-.101l-.301-.051-.3-.055a.76.76 0 0 0-.364.024l-.601.187a1.7 1.7 0 0 1-.848.043l-.601-.125a3 3 0 0 0-.512-.058l-.301-.012-.301-.008a3.5 3.5 0 0 0-.523.024l-.301.035-.301.039a4 4 0 0 1-.691.019l-.297-.019-.301-.016a3 3 0 0 0-.519.012l-.301.031-.297.031a5 5 0 0 1-.668.024l-.301-.012-.301-.008q-.288-.01-.578-.007l-.601.007a6 6 0 0 1-.656-.031l-.297-.031-.301-.031a7 7 0 0 0-.559-.032l-.301-.007-.3-.004a3.5 3.5 0 0 0-.524.031l-.601.078a6 6 0 0 1-.653.051l-.3.004-.301.008a3.2 3.2 0 0 1-.715-.067l-.297-.062-.301-.063a1.1 1.1 0 0 0-.414-.008l-.601.102q-.35.061-.703.047l-.602-.024a7 7 0 0 0-.555 0l-.3.016-.301.012q-.33.016-.66-.008l-.301-.024-.297-.023a6 6 0 0 0-.551-.012l-.301.008-.3.004a10 10 0 0 1-.633-.004l-.301-.016-.301-.011a4 4 0 0 0-.527.015l-.301.028-.301.031q-.316.032-.633.043l-.3.008-.297.011a2.6 2.6 0 0 1-.742-.082l-.301-.078-.297-.078a.7.7 0 0 0-.352.004l-.601.156a2.6 2.6 0 0 1-.742.086l-.301-.011-.297-.008a5 5 0 0 0-.543.011l-.301.028-.301.023q-.318.028-.636.031h-.602a2.5 2.5 0 0 1-.746-.109l-.301-.09-.3-.093a.9.9 0 0 0-.391-.036l-.602.078a3.3 3.3 0 0 1-.703.016l-.601-.047a11 11 0 0 0-.575-.035l-.296-.008-.301-.008a1.5 1.5 0 0 0-.449.055l-.602.172c-.276.078-.56.086-.84.027l-.297-.062-.3-.063a2.2 2.2 0 0 0-.489-.047l-.301.008-.296.004a7 7 0 0 1-.649-.015l-.301-.024-.3-.019a2.3 2.3 0 0 0-.493.015l-.3.039-.301.043a6 6 0 0 1-.656.055l-.301.008-.301.004a7 7 0 0 0-.559.039l-.601.062a2.6 2.6 0 0 1-.742-.031l-.301-.059-.301-.054a2 2 0 0 0-.488-.039l-.297.011-.301.012a3.4 3.4 0 0 1-.707-.047l-.297-.051-.301-.05a1.1 1.1 0 0 0-.421.004l-.301.054-.297.059a2.6 2.6 0 0 1-.742.035l-.602-.055a2 2 0 0 0-.472.016l-.602.094a2.3 2.3 0 0 1-.766-.008l-.601-.11a2 2 0 0 0-.477-.027l-.601.039q-.285.02-.571.055l-.601.078a3 3 0 0 1-.727 0l-.301-.039-.296-.039a2.2 2.2 0 0 0-.489-.008l-.297.027-.3.032a5 5 0 0 1-.664.023l-.602-.016a5 5 0 0 1-.668-.066l-.602-.101a1.1 1.1 0 0 0-.41.007l-.3.063-.301.066a4 4 0 0 1-.684.086l-.601.024a8 8 0 0 1-.641-.004l-.297-.012-1.203-.047-.301-.016a14 14 0 0 1-.617-.035l-.301-.027-.301-.023a38 38 0 0 0-.593-.047l-.301-.02-.301-.023a9 9 0 0 0-.57-.024l-.297-.004-.301-.004a2.3 2.3 0 0 0-.492.051l-.297.063-.301.062a2.5 2.5 0 0 1-.754.043l-.3-.027-.301-.031a11 11 0 0 0-.574-.043l-.301-.016-.301-.012q-.305-.016-.609-.039l-.301-.023-.301-.02a3.5 3.5 0 0 0-.523 0l-.301.024-.301.019a4 4 0 0 1-.687-.004l-.602-.062a2 2 0 0 0-.484.012l-.602.078a6 6 0 0 1-.652.05l-.301.004-.297.008a6 6 0 0 1-.656-.023l-.301-.024-.301-.027a16 16 0 0 0-.582-.043l-.601-.031a2 2 0 0 0-.485.031l-.297.055-.3.054a4.6 4.6 0 0 1-.676.071l-.602.015a25 25 0 0 1-.609.012h-.602a10 10 0 0 1-.632-.016l-.297-.019-.301-.016a2.6 2.6 0 0 0-.504.02l-.602.078a3 3 0 0 1-.718.012l-.301-.032-.301-.035q-.266-.028-.531-.019l-.602.015q-.287.01-.574.032l-.301.023-.297.023a6 6 0 0 1-.656.012l-.301-.008-.3-.011a7 7 0 0 1-.653-.055l-.601-.086a4 4 0 0 0-.531-.035l-.301-.004h-.297a10 10 0 0 1-.637-.024l-.297-.019-.3-.023q-.227-.017-.457.035l-.301.07-.297.066a2.8 2.8 0 0 1-.73.067l-.301-.012-.301-.016a4.3 4.3 0 0 1-.676-.078l-.3-.062-.302-.059a1 1 0 0 0-.402 0l-.3.063-.302.058a3.4 3.4 0 0 1-.699.067h-.3l-.301-.004a6 6 0 0 0-.555.023l-.3.024-.301.027a2.6 2.6 0 0 1-.743-.047l-.297-.058-.3-.063a3.4 3.4 0 0 0-.524-.066l-.3-.016-.301-.012a8 8 0 0 0-.567-.011l-.3.007-.301.004a9 9 0 0 0-.567.032l-.3.023-.297.027q-.285.024-.57.067l-.302.043-.3.047a4 4 0 0 1-.684.043l-.3-.008-.297-.008a4 4 0 0 1-.688-.074l-.602-.117a1.6 1.6 0 0 0-.457-.024l-.296.027-.301.028q-.3.026-.598.054l-.602.063a3 3 0 0 1-.714-.016l-.602-.078a8 8 0 0 0-.562-.058l-.301-.016-.297-.02q-.311-.019-.621-.05l-.3-.028-.302-.031a2.2 2.2 0 0 0-.488.004l-.297.039-.3.035a8 8 0 0 1-.641.055l-.301.016-.297.011a19 19 0 0 0-.586.035l-.3.024-.297.023a2.8 2.8 0 0 1-.731-.035l-.3-.055-.298-.054a2.5 2.5 0 0 0-.5-.039l-.601.015q-.308.006-.614.004h-.3l-.301-.004q-.27 0-.54.032l-.3.031-.3.035q-.303.033-.606.062l-.602.063a2.7 2.7 0 0 1-.738-.031l-.3-.059-.302-.055a1.2 1.2 0 0 0-.43-.003l-.3.046-.297.047a4 4 0 0 1-.683.055h-.598q-.305 0-.61-.008l-.3-.008-.301-.004a3.5 3.5 0 0 1-.703-.089l-.297-.071-.3-.066a2 2 0 0 0-.485-.055h-.602q-.3.003-.597.008l-.297.004-.301.004a12 12 0 0 0-.578.019l-.297.02-.3.016a6 6 0 0 1-.657.003l-.3-.011-.302-.016a1.6 1.6 0 0 0-.457.043l-.3.07-.301.075a1.9 1.9 0 0 1-.82.011l-.297-.066-.301-.063a2.7 2.7 0 0 0-.504-.058l-.602-.008a3 3 0 0 0-.52.031l-.6.086q-.308.044-.614.078l-.602.071a6 6 0 0 1-.652.035l-.3.004h-.302a2.5 2.5 0 0 1-.746-.11l-.3-.093-.301-.09a1.1 1.1 0 0 0-.41-.047l-.301.027-.3.024a9 9 0 0 0-.571.066l-.297.043-.3.047q-.346.051-.692.039l-.301-.012-.297-.008a5 5 0 0 0-.543.012l-.3.027-.298.028q-.345.03-.691-.004l-.3-.027-.302-.032a5 5 0 0 0-.546-.023l-.602.008q-.279.002-.559.027l-.601.055q-.345.03-.692-.004l-.601-.063a10 10 0 0 0-.57-.039l-.602-.023a7 7 0 0 0-.559 0l-.601.023a3.4 3.4 0 0 1-.703-.047l-.297-.05-.3-.051a1.6 1.6 0 0 0-.458-.012l-.297.039-.3.039a7 7 0 0 1-.65.047l-.6.016q-.306.008-.61.011l-.3.004h-.302q-.312.003-.625-.011l-.3-.012-.297-.016q-.286-.012-.57-.008l-.301.004-.297.008a12 12 0 0 1-.625-.004l-.301-.011-.3-.008a10 10 0 0 1-.637-.043l-.297-.031-.301-.028a1.8 1.8 0 0 0-.469.012l-.3.051-.301.047a2.7 2.7 0 0 1-.739.015l-.601-.07a1.1 1.1 0 0 0-.418.027l-.297.078-.3.075q-.416.106-.833.015l-.602-.133a4 4 0 0 0-.527-.078l-.601-.047a1.4 1.4 0 0 0-.438.039l-.3.075-.302.078a2.5 2.5 0 0 1-.753.074l-.297-.02-.301-.015q-.303-.02-.606-.043l-.3-.02-.301-.023a25 25 0 0 1-.613-.051l-.301-.031-.297-.027a1.3 1.3 0 0 0-.437.031l-.602.14q-.38.09-.766.047l-.601-.062a4 4 0 0 0-.535-.024l-.297.012-.301.008q-.345.009-.688-.043l-.601-.094a1.1 1.1 0 0 0-.414.02l-.297.066-.3.07c-.281.065-.566.06-.845-.015l-.3-.078-.297-.082a1.5 1.5 0 0 0-.453-.051l-.301.012-.297.011a7 7 0 0 1-.652-.008l-.297-.019-.301-.016a1.3 1.3 0 0 0-.434.051l-.297.086-.3.086a1.84 1.84 0 0 1-.825.051l-.3-.051-.297-.051a7 7 0 0 0-.563-.074l-.601-.055a4 4 0 0 0-.54-.019l-.3.011-.297.008c-.225.007-.469-.011-.676-.105l-.152-.067-.152-.07c-.353-.161-.45-.526-.48-.762l-.079-.601a3.4 3.4 0 0 1-.016-.703l.028-.301.023-.301a2.4 2.4 0 0 0-.012-.496l-.035-.301-.039-.297q-.036-.3-.07-.601l-.04-.301-.034-.301a2.7 2.7 0 0 1 .007-.734l.047-.301.043-.297a7 7 0 0 0 .059-.558l.039-.602a1.7 1.7 0 0 0-.035-.465l-.125-.601a1.76 1.76 0 0 1 .027-.832l.078-.301.082-.301a.8.8 0 0 0 .016-.371l-.117-.602a4 4 0 0 1-.07-.691l-.004-.301v-.301q-.002-.285-.02-.57l-.039-.601a4.6 4.6 0 0 1 .004-.672l.027-.301.024-.301q.026-.323.082-.644l.054-.297.051-.301q.04-.225.012-.449l-.078-.602a21 21 0 0 0-.086-.586l-.051-.297-.047-.3q-.065-.406.04-.805l.155-.602q.061-.232.055-.457l-.012-.301-.007-.3a39 39 0 0 1-.016-.61l-.004-.297-.004-.3q-.006-.33.028-.66l.03-.301.032-.297a2.3 2.3 0 0 0-.004-.492l-.035-.301-.031-.301a4 4 0 0 1-.016-.691l.04-.602q.018-.267.003-.535l-.02-.297-.019-.301a11 11 0 0 0-.05-.574l-.071-.601a2.7 2.7 0 0 1 .016-.731l.093-.601q.04-.257.032-.512l-.008-.301-.004-.301a3.5 3.5 0 0 0-.055-.523l-.05-.301-.055-.301a5 5 0 0 1-.07-.668l-.012-.301-.012-.296-.008-.621v-.301l.004-.301q.002-.363.09-.719l.074-.297.074-.3a.8.8 0 0 0 .004-.368l-.066-.3-.07-.301a2.8 2.8 0 0 1-.07-.735l.015-.3.011-.297q.016-.329.067-.656l.094-.602q.04-.268.047-.535l.007-.297.008-.301q.007-.297.008-.594v-.296l.004-.301q.001-.24-.055-.485l-.14-.601a2.2 2.2 0 0 1-.043-.774l.035-.297.039-.3a1.8 1.8 0 0 0-.008-.469l-.043-.301-.039-.301a2.3 2.3 0 0 1 .02-.769l.062-.301.059-.297q.048-.244.039-.484l-.012-.301-.012-.297a4.4 4.4 0 0 1 .028-.68l.035-.3.031-.297a1.5 1.5 0 0 0-.016-.449l-.054-.301-.059-.301a2.6 2.6 0 0 1-.035-.738l.055-.602q.028-.3.058-.601l.028-.301.027-.297q.027-.277.027-.555l.004-.3v-.301q0-.305.008-.61l.004-.3.008-.297q.007-.295.007-.59v-.602q-.001-.26-.043-.523l-.042-.301-.047-.301a3 3 0 0 1-.016-.722l.027-.301.032-.301q.026-.266.015-.531l-.011-.301-.008-.301a14 14 0 0 0-.035-.578l-.024-.297-.027-.301-.051-.597-.023-.301-.028-.301a8 8 0 0 1-.031-.636l-.004-.301v-.301a6 6 0 0 1 .027-.652l.028-.301.027-.297q.028-.293.047-.586l.039-.602q.016-.23-.031-.464l-.063-.301-.062-.297a1.8 1.8 0 0 1 .015-.824l.149-.602q.05-.204.02-.402l-.048-.301-.046-.297a3.7 3.7 0 0 1-.043-.695l.023-.602a8 8 0 0 0 0-.562l-.023-.602q-.011-.297-.024-.593l-.015-.301-.012-.301a6 6 0 0 1 .008-.656l.023-.301.02-.301q.022-.298.043-.598l.039-.601q.018-.255-.008-.512l-.035-.301-.032-.296a7 7 0 0 1-.039-.649l-.004-.301v-.3q-.004-.36.075-.715l.07-.301.066-.301a2 2 0 0 0 .051-.476l-.008-.301-.004-.301a2.4 2.4 0 0 0-.066-.496l-.07-.297-.074-.301a3 3 0 0 1-.086-.715v-.601q-.001-.337.046-.672l.043-.301.04-.297a2 2 0 0 0 .011-.48l-.031-.301-.031-.297a2.7 2.7 0 0 1 .027-.742l.05-.297.056-.301a1.3 1.3 0 0 0 0-.429l-.102-.602a2.8 2.8 0 0 1-.027-.726l.03-.301.028-.301q.024-.262.008-.523l-.02-.301-.015-.301q-.019-.301-.035-.602l-.032-.601a10 10 0 0 1-.011-.633l.004-.301.004-.297a9 9 0 0 1 .03-.636l.028-.301.024-.301a2.2 2.2 0 0 0-.012-.488l-.086-.602a5 5 0 0 1-.05-.66l-.005-.301-.004-.297a2.7 2.7 0 0 1 .094-.742l.082-.297.082-.3q.058-.218.04-.426l-.028-.301-.024-.301q-.025-.285-.066-.57l-.086-.602q-.058-.407.05-.804l.087-.301.082-.297q.06-.22.043-.43l-.024-.3-.023-.297a4 4 0 0 0-.078-.535l-.067-.301-.066-.297a2.2 2.2 0 0 1-.031-.777l.043-.301.043-.297q.033-.24.008-.481l-.032-.3-.035-.297a4 4 0 0 1-.012-.692l.024-.3.02-.297q.022-.312.062-.625l.035-.301.04-.301q.028-.24 0-.48l-.071-.602a4.5 4.5 0 0 1-.028-.676l.012-.297.008-.3q.011-.317.043-.633l.031-.301.028-.301q.028-.278.03-.554l.009-.602a1.8 1.8 0 0 0-.059-.465l-.078-.301-.082-.3a1.7 1.7 0 0 1-.004-.848l.074-.301.078-.301a1 1 0 0 0 .016-.394l-.05-.301-.048-.301a2.7 2.7 0 0 1-.023-.73l.027-.301.031-.301q.03-.27.024-.539l-.008-.301-.004-.296a5 5 0 0 1 .031-.672l.04-.301.035-.301q.026-.203-.028-.414l-.078-.301-.078-.297a2.2 2.2 0 0 1-.059-.78l.036-.302.03-.3q.035-.305.075-.61l.04-.3.034-.297q.034-.255.02-.508l-.02-.297-.02-.3a8 8 0 0 0-.054-.567l-.039-.297-.043-.3a7 7 0 0 1-.059-.645l-.011-.301-.016-.301a6 6 0 0 1 .008-.656l.02-.301.019-.297q.018-.273.008-.547l-.024-.601q-.011-.33.016-.66l.047-.602q.024-.285.031-.57l.008-.301.008-.297a3 3 0 0 0-.035-.512l-.094-.601a3.7 3.7 0 0 1-.047-.692l.008-.3.011-.301q.01-.297.016-.594l.004-.3.008-.302q.008-.336.066-.672l.102-.601q.042-.237.023-.473l-.027-.3-.028-.297-.05-.602-.028-.3-.027-.298a4 4 0 0 1 0-.687l.023-.297.024-.3q.022-.272.012-.544l-.008-.3-.012-.297a9 9 0 0 0-.039-.567l-.062-.601a5 5 0 0 1-.024-.672l.012-.297.012-.3q.011-.35.09-.696l.07-.297.07-.3q.056-.249.059-.493v-.3l.003-.302a3 3 0 0 0-.039-.515l-.046-.301-.051-.3a2.4 2.4 0 0 1 0-.759l.05-.3.047-.301q.039-.242.02-.48l-.023-.301-.02-.301a16 16 0 0 1-.04-.617l-.007-.301-.012-.3a7 7 0 0 1 .004-.645l.032-.602a2 2 0 0 0-.036-.473l-.062-.3-.059-.301a3.4 3.4 0 0 1-.066-.703v-.297l.004-.301q0-.307.012-.613l.011-.301.008-.3q.01-.29.008-.579v-.3L.059 64.6a16 16 0 0 0-.016-.582l-.015-.3-.012-.301a5 5 0 0 1 .016-.672l.03-.3.028-.298q.031-.325.094-.648l.117-.602q.042-.224.016-.445l-.035-.297-.036-.3a4 4 0 0 1-.027-.68l.024-.602a2.6 2.6 0 0 0-.028-.504l-.047-.3-.047-.298c-.04-.258-.032-.52.02-.777l.059-.297.062-.3q.045-.23.024-.454l-.028-.3-.031-.301a8 8 0 0 1-.035-.637l-.008-.3-.004-.301q-.006-.33.027-.66l.063-.602q.025-.26.012-.52l-.032-.601q-.016-.295-.039-.59l-.02-.301-.023-.3q-.02-.292-.05-.583l-.036-.3-.03-.297a3.7 3.7 0 0 1-.009-.696l.024-.3.027-.301q.025-.308.059-.614l.062-.601q.03-.283.043-.567l.016-.296.012-.301q.011-.303.027-.606l.031-.601q.013-.255-.02-.512l-.035-.3-.039-.298a3.3 3.3 0 0 1-.011-.707l.054-.601q.023-.241-.011-.485l-.043-.297-.043-.3q-.046-.312-.078-.625L.09 39.74l-.031-.297a9 9 0 0 1-.04-.637l-.007-.3-.008-.297c-.007-.244.018-.49.074-.73l.07-.298.071-.3c.036-.153.045-.304.035-.453l-.039-.602a19 19 0 0 0-.05-.582l-.028-.3-.031-.302a2.5 2.5 0 0 1 .043-.754l.062-.297.063-.3q.057-.263.07-.524l.012-.3.015-.297q.011-.21-.054-.43l-.09-.3-.094-.302a1.5 1.5 0 0 1 0-.89l.09-.297.09-.3a.7.7 0 0 0 .015-.352l-.066-.297-.066-.301a2.3 2.3 0 0 1-.04-.766l.036-.3.035-.297q.025-.22-.02-.446l-.062-.3-.059-.301a1.7 1.7 0 0 1 .043-.84l.18-.602q.062-.21.043-.41l-.055-.601q-.03-.345 0-.688l.055-.601a1.5 1.5 0 0 0-.031-.45l-.067-.297-.066-.3a2 2 0 0 1-.016-.797l.11-.602q.046-.264.054-.527l.008-.3.012-.298a2.5 2.5 0 0 0-.035-.5l-.055-.3-.05-.301a8 8 0 0 1-.087-.637l-.054-.602a5 5 0 0 1-.016-.668l.016-.3.011-.301q.016-.33.07-.656l.102-.602a1.4 1.4 0 0 0 0-.441l-.047-.301-.043-.3a2.1 2.1 0 0 1 .024-.782l.133-.602a.7.7 0 0 0-.012-.355l-.172-.602a3 3 0 0 1-.113-.722l-.016-.602a5 5 0 0 1 .027-.664l.036-.3.03-.302q.031-.27.028-.539l-.008-.297-.004-.3a8 8 0 0 1 .016-.64l.02-.302.023-.3q.018-.301.04-.602l.046-.602q.019-.27.004-.539l-.016-.297-.015-.3q-.018-.33.004-.66l.02-.301.023-.301q.017-.291.027-.582l.012-.3L.332.99C.305.955.27.916.25.862A.503.503 0 0 1 .606.206C.633.199.664.194.684.19L.911.155l.601-.094q.4-.061.797.035l.297.075.3.074q.244.06.481.058h.297l.3-.003q.276 0 .552-.028L5.137.21q.299-.03.598-.063l.3-.031.297-.035q.388-.041.77.05l.601.141A.9.9 0 0 0 8.09.28l.301-.059.297-.062c.271-.055.546-.05.816.016l.301.074.3.07q.191.047.38.008l.297-.067.3-.062q.376-.08.754-.047l.301.031.297.028q.296.027.594.05l.3.028.301.023q.208.018.426-.043l.602-.164c.274-.075.554-.087.832-.031l.297.062.3.063q.267.052.532.066l.601.04q.262.014.524-.012l.601-.055q.36-.031.719.023l.297.043.3.043q.21.033.422-.011l.301-.063.301-.066q.345-.074.691-.082l.301-.008.3-.004q.319-.009.638.008l.601.031q.277.015.555.004l.297-.012.3-.011q.309-.01.618-.012l.3-.004h.91l.302.008.3.004q.27.005.54-.024l.6-.062a3 3 0 0 1 .716.011l.3.043.301.04q.3.04.602.082l.3.039.301.043q.265.036.528.035h.3l.301-.004q.282-.002.563-.024l.3-.02.301-.023q.338-.027.676-.004l.297.024.3.023q.234.018.47-.027l.601-.117q.358-.07.719-.05l.601.03q.327.018.653.07l.3.047.301.051a1 1 0 0 0 .399-.02l.297-.077.3-.075q.411-.103.825-.02l.3.063.301.059q.25.05.496.05h.602q.265.001.531-.034l.297-.043.3-.043a3 3 0 0 1 .723-.016l.297.031.301.032q.246.024.492-.004l.602-.07q.34-.04.68-.024l.3.015.301.012.598.028.601.03q.309.014.617.036l.297.023.301.024a1.3 1.3 0 0 0 .434-.04l.601-.155c.272-.072.55-.082.825-.028l.296.059.301.058q.216.042.43.008l.3-.047.301-.043q.386-.057.77.016l.297.059.3.054q.203.04.407 0l.3-.062.301-.059a2.8 2.8 0 0 1 .73-.047l.602.04.606.042.3.024.298.023q.306.024.613.055l.3.027.297.031q.26.027.52.008l.602-.039q.304-.019.609-.031l.3-.012.302-.015a7 7 0 0 1 .648.004l.3.02.298.015.597.03.301.013.3.015a1.6 1.6 0 0 0 .458-.047l.3-.07.298-.074q.37-.092.746-.074l.3.015.297.016q.347.017.692.098l.601.14q.197.045.39.008l.298-.055.3-.058q.341-.066.684-.075l.602-.015q.282-.007.566-.031l.602-.055q.343-.029.687.004l.602.055q.262.024.523.007l.301-.015.297-.02q.34-.021.68.012l.601.055q.281.027.563.035l.296.004.301.007q.261.005.524-.03l.3-.04.301-.043q.353-.047.707-.02l.301.028.297.023q.26.022.52 0l.3-.027.301-.023q.387-.031.766.07l.601.156q.2.051.395.02l.3-.047.297-.047c.24-.038.486-.049.727-.027l.297.027.3.027q.275.025.547.02l.301-.008.301-.004a6 6 0 0 1 .656.027l.301.028.3.031q.242.024.485-.008l.602-.078q.367-.048.734.004l.297.043.3.04a.9.9 0 0 0 .395-.028l.301-.086.297-.09c.27-.078.548-.094.824-.047l.301.055.3.05q.242.041.481.024l.297-.02.3-.023q.31-.022.618-.035l.297-.012.3-.012q.366-.014.727.063l.301.066.297.063q.24.05.477.039l.296-.012.301-.012a7 7 0 0 1 .649 0l.601.032a1.7 1.7 0 0 0 .465-.04l.602-.132q.338-.076.68-.094l.6-.031a6 6 0 0 1 .653 0l.301.015.3.02q.342.018.68.094l.301.066.297.067q.253.054.504.058l.301.008.297.004q.221.005.453-.063l.601-.172c.263-.076.532-.101.801-.066l.301.043.301.04q.276.034.55.042l.297.008.301.008q.284.008.567-.004l.296-.012.301-.016q.32-.014.641-.003l.601.023q.248.009.496-.035l.297-.05.301-.056c.273-.047.548-.032.817.04l.3.078.297.082q.205.053.403.023l.3-.043.301-.039q.34-.05.68-.043l.301.008.3.004q.272.006.543-.02l.301-.027.297-.024q.388-.036.77.059l.601.156q.207.052.406.024l.602-.086q.321-.045.644-.059l.301-.015.301-.012q.332-.017.664.012l.602.054q.239.022.48-.015l.602-.094q.404-.061.8.043l.301.082.301.078q.209.053.41.027l.297-.039.301-.039q.323-.04.648-.05l.602-.016q.322-.01.644.012l.301.02.301.015q.243.017.488-.02l.301-.05.301-.048q.34-.052.679-.05h.301l.301.004q.31 0 .621.015l.602.031q.32.016.64.06l.602.077q.27.036.539.04l.297.003.902.012.297.004h.301q.226.002.461-.063l.601-.164q.395-.108.797-.058l.297.035.301.039q.239.03.476 0l.301-.04.301-.034q.389-.049.773.039l.297.07.301.066q.204.047.406.012l.602-.101a1.9 1.9 0 0 1 .808.039l.602.156a1 1 0 0 0 .395.023l.601-.093q.377-.06.754 0l.301.046.297.047q.235.038.468.012l.301-.035.297-.035c.216-.025.436-.036.652-.04l.297-.003.301-.004q.303-.004.606-.004l.3-.004h.301q.325 0 .649.031l.3.028.297.027a8 8 0 0 0 .567.031l.296.008.301.008q.24.003.485-.05l.3-.063.301-.067a2 2 0 0 1 .793-.012l.602.11a1 1 0 0 0 .398-.012l.602-.133q.37-.085.746-.058l.301.023.3.02q.286.023.571.027l.297.004h.3q.273.005.547-.02l.301-.03.297-.028q.386-.039.765.05l.301.075.301.07q.21.049.414.02l.301-.043.301-.04q.345-.047.691-.03l.301.015.301.012q.287.016.574.015h.297l.301-.004q.33.001.66.04l.297.03.3.036q.25.028.5.004l.297-.028.301-.027q.293-.027.586-.062l.301-.036.3-.039q.381-.045.758.032l.301.058.301.063q.24.047.476.035l.301-.012.301-.015 1.203-.047q.328-.013.656.011l.297.02.301.023q.214.016.438-.043l.296-.082.301-.078c.286-.076.578-.078.863 0l.297.086.301.082a.84.84 0 0 0 .379.016l.297-.055.301-.058q.35-.064.703-.055l.301.004.3.008q.27.006.539-.02l.297-.031.301-.031a2.4 2.4 0 0 1 .762.05l.601.133q.224.05.442.031l.301-.023.3-.027a6 6 0 0 1 .657-.02l.601.016q.291.007.582.004l.301-.004.297-.004q.338-.005.676.043l.601.086q.248.035.492.015l.301-.023.301-.02q.306-.024.613-.039l.301-.011.301-.016q.281-.012.562-.047l.297-.035.301-.035q.382-.047.762.031l.601.125q.216.044.43.012l.297-.043.301-.04q.37-.052.742 0l.301.044.296.043q.26.036.516.027l.297-.008.301-.012q.318-.01.636.004l.602.024q.23.009.465-.047l.297-.07.3-.075q.349-.082.7-.093l.3-.012.297-.012q.34-.01.68.031l.301.036.301.039q.25.03.5.011l.3-.023.301-.02q.369-.028.735.043l.3.063.301.058q.26.052.52.063l.601.023q.297.012.594.02l.301.008.297.008q.214.005.441-.063l.301-.09.301-.094a2.7 2.7 0 0 1 .734-.117l.601-.015q.313-.008.625.004l.602.023q.295.011.59.016l.601.007q.34.006.676.063l.297.047.301.05q.235.041.469.02l.3-.031.301-.027q.344-.036.688-.008l.3.027.301.024q.292.022.582.035l.297.015.301.012.602.027.3.012.297.016q.289.012.578.011h.301l.301-.003q.238 0 .48-.06l.297-.073.301-.075q.4-.1.805-.035l.601.102q.285.047.571.078l.601.07q.212.025.43-.027l.297-.07.3-.075q.349-.082.7-.093l.3-.012.297-.012.285.032a.73.73 0 0 1 .489.437l.058.285.012.29.012.284.027.579.012.3.015.301q.017.311.02.621l.004.297.004.3q.003.274.035.548l.039.297.035.3q.04.326.047.653l.008.3.004.297q.007.347-.047.692l-.051.3-.047.301a2.4 2.4 0 0 0-.027.493l.031.601q.017.337-.019.676l-.028.3-.031.301q-.027.263-.016.524l.016.3.012.301q.012.26.066.52l.125.601q.077.364.059.731l-.02.297-.015.3q-.016.298-.028.594l-.015.301-.012.301q-.013.27.008.539l.027.3.024.298q.023.31.035.62l.015.302.012.296q.015.349-.035.696l-.047.3-.043.297a1.6 1.6 0 0 0 0 .457l.043.301.047.301q.047.336.047.672v.3l-.004.301a5 5 0 0 1-.051.672l-.043.301-.047.3q-.037.242-.015.481l.027.301.027.297a3.4 3.4 0 0 1-.011.707l-.036.3-.039.302q-.033.29-.058.582l-.028.3-.027.297q-.024.278-.023.555v.602q.001.266.039.535l.039.3.043.301q.047.345.027.692l-.019.3-.016.301q-.013.241.031.485l.055.296.055.301q.069.39 0 .778l-.11.601a1.6 1.6 0 0 0-.012.453l.036.301.031.3q.038.319.051.638l.011.3.008.301a3 3 0 0 1-.058.719l-.125.601a.9.9 0 0 0 0 .395l.125.602q.08.39.015.78l-.047.302-.05.3q-.035.218.003.434l.051.3.055.298c.048.275.033.554-.043.824l-.086.297-.082.3a.5.5 0 0 0 .008.31l.195.6c.088.27.117.546.078.825l-.086.601q-.041.291-.074.582l-.062.602q-.032.285-.047.57l-.012.301-.016.297q-.01.23.043.465l.141.601q.084.365.066.735l-.015.3-.012.301a4.4 4.4 0 0 1-.086.68l-.062.297-.063.3a2.5 2.5 0 0 0-.055.5v.598q0 .252.047.508"/><path fill="#DBD0B9" d="m156.411 53.058-70.94-.037c-.662 0-1.199.536-1.199 1.198v65.694c0 .661.537 1.198 1.199 1.198l70.94.037c.662 0 1.198-.536 1.198-1.198V54.256c0-.662-.536-1.198-1.198-1.198"/><path fill="#42464A" d="M140.78 64.867h-12.609v10.828h12.609z"/><path fill="#DBD0B9" stroke="#00503A" stroke-width=".2" d="M106.396 111.887v1.605h-3.409v-1.605z"/><path fill="#FF681D" d="M133.566 93.741h-3.609v1.805h3.609z"/><path fill="#00503A" d="M138.98 93.741h-3.61v1.805h3.61z"/><path fill="#DBD0B9" stroke="#00503A" stroke-width=".2" d="M133.465 99.255v2.605h-3.409v-2.606zM106.396 97.45v1.605h-3.409V97.45z"/><path stroke="#00503A" stroke-width=".2" d="M111.81 88.427v1.605h-3.409v-1.605zM117.224 88.427v1.605h-3.41v-1.605zM122.633 88.427v1.605h-3.409v-1.605z"/><path fill="#00503A" stroke="#00503A" stroke-miterlimit="10" stroke-width=".199" d="M104.913 101.709a.226.226 0 0 0-.451 0v7.67a.225.225 0 0 0 .451 0z"/><path fill="#00503A" d="M124.543 63.006h-9.024v1.86h9.024z"/><path fill="#EEEFEA" d="M106.536 63.006h-3.609v1.86h3.609z"/><path fill="#FF681D" d="M113.755 63.006h-3.61v1.86h3.61z"/><path fill="#DBD0B9" d="M133.566 63.006h-3.609v1.86h3.609z"/><path fill="#EEEFEA" stroke="#00503A" stroke-width=".2" d="M133.461 101.059v1.606h-3.409v-1.606z"/><path fill="#00503A" stroke="#00503A" stroke-width=".2" d="M138.879 95.645v1.606h-3.409v-1.606z"/><path fill="#FF681D" stroke="#00503A" stroke-width=".2" d="M133.465 95.645v1.606h-3.409v-1.606z"/><path fill="#DBD0B9" stroke="#00503A" stroke-miterlimit="10" stroke-width=".2" d="M138.875 99.254v2.606h-3.409v-2.606z"/><path fill="#FF681D" d="M133.115 110.208h-2.707a.226.226 0 0 0-.226.226v2.707c0 .124.101.225.226.225h2.707a.225.225 0 0 0 .225-.225v-2.707a.226.226 0 0 0-.225-.226"/><path stroke="#00503A" stroke-width=".2" d="M130.408 104.894h2.707c.069 0 .125.057.125.126v2.707a.125.125 0 0 1-.125.125h-2.707a.126.126 0 0 1-.126-.125v-2.707c0-.069.056-.126.126-.126Z"/><path fill="#00503A" d="M138.529 110.208h-2.707a.226.226 0 0 0-.226.226v2.707c0 .124.101.225.226.225h2.707a.225.225 0 0 0 .225-.225v-2.707a.226.226 0 0 0-.225-.226"/><path stroke="#00503A" stroke-width=".2" d="M135.822 104.894h2.707c.069 0 .126.057.126.126v2.707a.127.127 0 0 1-.126.126h-2.707a.126.126 0 0 1-.126-.126v-2.707c0-.069.056-.126.126-.126Z"/><path fill="#DBD0B9" stroke="#00503A" stroke-width=".2" d="M106.396 93.861v1.606h-3.409V93.86z"/><path fill="#EEEFEA" d="M111.91 90.132h-3.609v1.804h3.609z"/><path fill="#FF681D" d="M117.324 90.132h-3.609v1.804h3.609z"/><path fill="#00503A" d="M122.734 90.132h-3.609v1.804h3.609z"/><path fill="#DBD0B9" stroke="#00503A" stroke-width=".2" d="M108.752 99.48h2.707c.069 0 .125.057.125.126v2.707a.125.125 0 0 1-.125.125h-2.707a.126.126 0 0 1-.126-.125v-2.707c0-.07.057-.126.126-.126ZM108.752 104.894h2.707c.069 0 .125.057.125.126v2.707a.125.125 0 0 1-.125.125h-2.707a.126.126 0 0 1-.126-.125v-2.707c0-.069.057-.126.126-.126ZM108.752 110.308h2.707c.069 0 .126.057.126.126v2.707a.127.127 0 0 1-.126.126h-2.707a.127.127 0 0 1-.126-.126v-2.707c0-.07.057-.126.126-.126ZM108.752 94.066h2.707c.069 0 .126.057.126.126V96.9c0 .07-.057.126-.126.126h-2.707a.126.126 0 0 1-.126-.126v-2.707c0-.07.057-.126.126-.126Z"/><path fill="#EEEFEA" d="M116.869 99.417h-2.707a.226.226 0 0 0-.226.225v2.707c0 .125.101.226.226.226h2.707a.226.226 0 0 0 .225-.226v-2.707a.225.225 0 0 0-.225-.225M122.283 99.417h-2.707a.226.226 0 0 0-.226.225v2.707c0 .125.101.226.226.226h2.707a.226.226 0 0 0 .225-.226v-2.707a.225.225 0 0 0-.225-.225M127.697 99.453h-2.707a.226.226 0 0 0-.226.226v2.707c0 .124.101.225.226.225h2.707a.225.225 0 0 0 .225-.225v-2.707a.225.225 0 0 0-.225-.226M116.869 104.831h-2.707a.226.226 0 0 0-.226.225v2.707c0 .125.101.226.226.226h2.707a.226.226 0 0 0 .225-.226v-2.707a.225.225 0 0 0-.225-.225M122.283 104.831h-2.707a.226.226 0 0 0-.226.225v2.707c0 .125.101.226.226.226h2.707a.226.226 0 0 0 .225-.226v-2.707a.225.225 0 0 0-.225-.225M127.697 104.831h-2.707a.226.226 0 0 0-.226.225v2.707c0 .125.101.226.226.226h2.707a.226.226 0 0 0 .225-.226v-2.707a.225.225 0 0 0-.225-.225M116.869 110.281h-2.707a.226.226 0 0 0-.226.226v2.707c0 .124.101.225.226.225h2.707a.225.225 0 0 0 .225-.225v-2.707a.226.226 0 0 0-.225-.226M122.283 110.281h-2.707a.226.226 0 0 0-.226.226v2.707c0 .124.101.225.226.225h2.707a.225.225 0 0 0 .225-.225v-2.707a.226.226 0 0 0-.225-.226M127.697 110.281h-2.707a.226.226 0 0 0-.226.226v2.707c0 .124.101.225.226.225h2.707a.225.225 0 0 0 .225-.225v-2.707a.226.226 0 0 0-.225-.226M116.869 94.003h-2.707a.226.226 0 0 0-.226.225v2.708c0 .124.101.225.226.225h2.707a.225.225 0 0 0 .225-.225v-2.708a.225.225 0 0 0-.225-.225M122.283 94.003h-2.707a.226.226 0 0 0-.226.225v2.707c0 .125.101.226.226.226h2.707a.225.225 0 0 0 .225-.226v-2.707a.225.225 0 0 0-.225-.225M127.697 94.003h-2.707a.226.226 0 0 0-.226.225v2.707c0 .125.101.226.226.226h2.707a.225.225 0 0 0 .225-.226v-2.707a.225.225 0 0 0-.225-.225M128.171 64.867h-27.089v10.828h27.089z"/><path fill="#00503A" d="M137.175 91.936a1.805 1.805 0 1 0 0-3.61 1.805 1.805 0 0 0 0 3.61"/><path fill="#FF681D" d="M131.761 91.936a1.805 1.805 0 1 0 0-3.61 1.805 1.805 0 0 0 0 3.61"/><path fill="#EEEFEA" d="M104.692 91.936a1.805 1.805 0 1 0-.001-3.609 1.805 1.805 0 0 0 .001 3.61"/><path fill="#00503A" d="M140.784 75.695h-39.702v10.827h39.702z"/><g clip-path="url(#clip0_177_30300)"><path fill="#848484" d="M128.17 64.822h12.63V75.65h-12.63z"/><rect width="9.104" height="9.104" x="129.932" y="65.684" fill="#00503A" rx="4.552"/><rect width="9.104" height="9.104" x="129.932" y="65.684" stroke="#00503A" stroke-width=".167" rx="4.552"/><path fill="#DBD0B9" d="M128.17 64.822h12.63v1.605h-12.63z"/><path fill="#DBD0B9" d="M128.17 64.822h12.63v1.605h-12.63zM128.17 67.128h12.63v1.605h-12.63z"/><path fill="#DBD0B9" d="M128.17 67.128h12.63v1.605h-12.63zM128.17 69.433h12.63v1.605h-12.63z"/><path fill="#DBD0B9" d="M128.17 69.433h12.63v1.605h-12.63zM128.17 71.739h12.63v1.605h-12.63z"/><path fill="#DBD0B9" d="M128.17 71.739h12.63v1.605h-12.63zM128.17 74.044h12.63v1.605h-12.63z"/><path fill="#DBD0B9" d="M128.17 74.044h12.63v1.605h-12.63z"/></g><path fill="#00503A" stroke="#00503A" stroke-miterlimit="10" stroke-width=".199" d="M109.199 98.551a.226.226 0 1 0 0-.451.226.226 0 0 0 0 .451ZM114.613 98.551a.225.225 0 1 0 0-.45.225.225 0 0 0 0 .45ZM120.027 98.551a.225.225 0 1 0 0-.45.225.225 0 0 0 0 .45ZM125.441 98.551a.225.225 0 1 0 0-.45.225.225 0 0 0 0 .45ZM109.199 103.965a.226.226 0 1 0 0-.452.226.226 0 0 0 0 .452ZM114.613 103.965a.226.226 0 1 0-.001-.451.226.226 0 0 0 .001.451ZM120.027 103.965a.226.226 0 1 0-.001-.451.226.226 0 0 0 .001.451ZM125.441 103.965a.226.226 0 1 0-.001-.451.226.226 0 0 0 .001.451ZM109.199 109.379a.226.226 0 1 0 0-.452.226.226 0 0 0 0 .452ZM114.613 109.379a.226.226 0 1 0-.001-.451.226.226 0 0 0 .001.451ZM120.027 109.379a.226.226 0 1 0-.001-.451.226.226 0 0 0 .001.451ZM130.855 109.379a.226.226 0 1 0-.001-.451.226.226 0 0 0 .001.451ZM125.441 109.379a.226.226 0 1 0-.001-.451.226.226 0 0 0 .001.451ZM132.659 109.379a.226.226 0 1 0 0-.452.226.226 0 0 0 0 .452ZM109.199 93.137a.226.226 0 1 0 0-.451.226.226 0 0 0 0 .451ZM114.613 93.137a.225.225 0 1 0 0-.45.225.225 0 0 0 0 .45ZM120.027 93.137a.225.225 0 1 0 0-.45.225.225 0 0 0 0 .45ZM125.441 93.137a.225.225 0 1 0 0-.45.225.225 0 0 0 0 .45Z"/><path fill="#00503A" d="M105.386 70.278h-.174a.087.087 0 0 1-.088-.088V66.87c0-.049.039-.088.088-.088h.174c.049 0 .088.04.088.088v3.321a.087.087 0 0 1-.088.088m4.947-.088V66.87a.087.087 0 0 0-.088-.088h-.174a.087.087 0 0 0-.088.088v3.321c0 .049.039.088.088.088h.174c.049 0 .088-.04.088-.088m-2.761-2.535v1.749a.874.874 0 0 1-.874.874h-.787a.087.087 0 0 1-.087-.088V66.87c0-.049.039-.088.087-.088h.787c.482 0 .874.391.874.874m-.351.91a.524.524 0 0 0-.523-.56h-.437a.087.087 0 0 0-.088.087v.874c0 .049.039.088.088.088h.419c.279 0 .523-.21.541-.49m2.432-.91v1.749a.874.874 0 0 1-.874.874h-.787a.087.087 0 0 1-.087-.088V66.87c0-.049.039-.088.087-.088h.787c.483 0 .874.391.874.874m-.351.91a.524.524 0 0 0-.523-.56h-.437a.09.09 0 0 0-.088.087v.874c0 .049.04.088.088.088h.419c.279 0 .523-.21.541-.49m-4.514-.91v.596a.52.52 0 0 1-.155.372.044.044 0 0 0-.003.06c.099.12.158.274.158.442v1.065a.087.087 0 0 1-.087.088h-.175a.087.087 0 0 1-.087-.088v-1.065a.35.35 0 0 0-.35-.35h-.699v1.415a.087.087 0 0 1-.088.088h-.174a.087.087 0 0 1-.088-.088V66.87c0-.049.039-.088.088-.088h.786c.483 0 .874.391.874.874m-.317.523c-.018-.103-.115-.173-.219-.173h-.775a.087.087 0 0 0-.087.087v.246c0 .048.039.088.087.088h.787a.21.21 0 0 0 .207-.248m8.741-1.392a.88.88 0 0 0-.965.311.88.88 0 0 0-.966-.311.87.87 0 0 0-.608.834v2.57c0 .049.039.088.088.088h.175c.048 0 .087-.04.087-.088v-1.643c0-.279.211-.523.489-.54.306-.02.56.221.56.522v1.661c0 .049.039.088.087.088h.175c.048 0 .088-.04.088-.088v-1.643c0-.279.21-.523.489-.54.306-.02.56.221.56.522v1.661c0 .049.039.088.087.088h.175c.048 0 .087-.04.087-.088v-2.57a.87.87 0 0 0-.608-.834"/><path stroke="#00503A" stroke-miterlimit="10" stroke-width=".199" d="M103.113 105.471h3.158"/><path fill="#DBD0B9" stroke="#00503A" stroke-miterlimit="10" stroke-width=".199" d="M104.692 106.373a.902.902 0 1 0 0-1.804.902.902 0 0 0 0 1.804Z"/><path fill="#EEEFEA" stroke="#00503A" stroke-width=".2" d="M138.879 101.059v1.606h-3.409v-1.606z"/><path stroke="#00503A" stroke-width=".5" d="M102.082 63.256h37.703a.75.75 0 0 1 .75.75v52.138a.75.75 0 0 1-.75.75h-37.703a.75.75 0 0 1-.75-.75V64.006a.75.75 0 0 1 .75-.75Z"/><path fill="#00503A" d="m85.509 53.02 70.9-.006c.662 0 1.199.537 1.199 1.199v3.557l-73.298.006v-3.557c0-.662.537-1.198 1.199-1.198"/><path stroke="#DBD0B9" stroke-linecap="round" stroke-miterlimit="10" stroke-width="1.359" d="M109.022 55.488H87.274"/><path fill="#DBD0B9" stroke="#00503A" stroke-width=".5" d="M117.909 136.776v11.779a.95.95 0 0 1-.95.949h-31.53a.95.95 0 0 1-.95-.949v-11.779z"/><path fill="#00503A" stroke="#00503A" stroke-linejoin="round" stroke-width=".068" d="M85.408 133.45h31.522c.661 0 1.198.537 1.198 1.198v2.878H84.21v-2.878c0-.661.537-1.198 1.198-1.198Z"/><path stroke="#DBD0B9" stroke-linecap="round" stroke-miterlimit="10" stroke-width="1.359" d="M97.013 135.488h-9.614"/><path stroke="#00503A" stroke-linecap="round" stroke-miterlimit="10" stroke-width="1.359" d="M117.494 152.898H84.897M117.494 155.252H84.897M117.494 157.638H84.897"/><path fill="#DBD0B9" stroke="#00503A" stroke-width=".5" d="M157.284 136.776v11.779a.95.95 0 0 1-.95.949h-31.53a.95.95 0 0 1-.951-.949v-11.779z"/><path fill="#DBD0B9" stroke="#00503A" stroke-linejoin="round" stroke-width=".5" d="M125.025 133.45H156.1c.652 0 1.182.537 1.182 1.198v2.878h-33.438v-2.878a1.19 1.19 0 0 1 1.181-1.198Z"/><path stroke="#00503A" stroke-linecap="round" stroke-miterlimit="10" stroke-width="1.359" d="M136.388 135.488h-9.614M156.869 152.898h-32.597M156.869 155.252h-32.597M156.869 157.638h-32.597"/><path fill="#DBD0B9" stroke="#00503A" stroke-width=".5" d="M157.284 165.026v11.779a.95.95 0 0 1-.95.949h-31.53a.95.95 0 0 1-.951-.949v-11.779z"/><path fill="#DBD0B9" stroke="#00503A" stroke-linejoin="round" stroke-width=".5" d="M125.025 161.7H156.1c.652 0 1.182.537 1.182 1.198v2.878h-33.438v-2.878a1.19 1.19 0 0 1 1.181-1.198Z"/><path stroke="#00503A" stroke-linecap="round" stroke-miterlimit="10" stroke-width="1.359" d="M136.388 163.738h-9.614M156.869 181.149h-32.597M156.869 183.502h-32.597M156.869 185.888h-32.597"/><path fill="#DBD0B9" stroke="#00503A" stroke-width=".5" d="M117.847 165.026v11.779a.95.95 0 0 1-.951.949h-31.53a.95.95 0 0 1-.95-.949v-11.779z"/><path fill="#DBD0B9" stroke="#00503A" stroke-linejoin="round" stroke-width=".5" d="M85.588 161.7h31.075a1.19 1.19 0 0 1 1.181 1.198v2.878H84.407v-2.878c0-.661.529-1.198 1.18-1.198Z"/><path stroke="#00503A" stroke-linecap="round" stroke-miterlimit="10" stroke-width="1.359" d="M96.95 163.738h-9.614M117.432 181.149H84.835M117.432 183.502H84.835M117.432 185.888H84.835M117.619 123.024H85.022M117.619 125.377H85.022M117.619 127.763H85.022M156.744 123.024h-32.597M156.744 125.377h-32.597M156.744 127.763h-32.597"/><path fill="#FF681D" d="M92.72 48.019h-.608a.304.304 0 0 1-.304-.304V36.169c0-.168.136-.304.303-.304h.608c.168 0 .304.136.304.304v11.546a.304.304 0 0 1-.304.304m17.192-.304V36.169a.304.304 0 0 0-.303-.304h-.608a.304.304 0 0 0-.304.304v11.546c0 .168.136.304.304.304h.608a.304.304 0 0 0 .303-.304m-9.597-8.812v6.077a3.04 3.04 0 0 1-3.038 3.039h-2.735a.304.304 0 0 1-.304-.304V36.169c0-.168.136-.304.304-.304h2.735a3.04 3.04 0 0 1 3.038 3.038m-1.22 3.16a1.823 1.823 0 0 0-1.818-1.944h-1.52a.304.304 0 0 0-.303.304v3.038c0 .168.136.304.304.304h1.456c.971 0 1.82-.733 1.882-1.702m8.454-3.16v6.077a3.04 3.04 0 0 1-3.038 3.039h-2.735a.304.304 0 0 1-.303-.304V36.169c0-.168.136-.304.303-.304h2.735a3.04 3.04 0 0 1 3.038 3.038m-1.219 3.16a1.823 1.823 0 0 0-1.819-1.944h-1.519a.304.304 0 0 0-.304.304v3.038c0 .168.136.304.304.304h1.456c.971 0 1.819-.733 1.882-1.702m-15.69-3.16v2.07c0 .505-.206.962-.54 1.293a.154.154 0 0 0-.011.21c.344.419.552.953.552 1.536v3.703a.304.304 0 0 1-.304.304h-.608a.304.304 0 0 1-.304-.304V44.01c0-.671-.544-1.215-1.215-1.215h-2.43v4.919a.304.304 0 0 1-.305.304h-.607a.304.304 0 0 1-.304-.304V36.169c0-.168.136-.304.304-.304h2.734a3.04 3.04 0 0 1 3.039 3.038m-1.103 1.816c-.062-.357-.399-.6-.76-.6h-2.694a.304.304 0 0 0-.304.304v.854c0 .168.136.304.304.304h2.734c.447 0 .8-.4.72-.862m30.384-4.839c-1.361-.403-2.635.122-3.356 1.084-.721-.962-1.996-1.487-3.356-1.083-1.269.376-2.113 1.578-2.113 2.9v8.934c0 .168.136.304.303.304h.608a.304.304 0 0 0 .304-.304v-5.71c0-.972.733-1.82 1.702-1.882a1.823 1.823 0 0 1 1.944 1.819v5.773c0 .168.136.304.304.304h.608a.304.304 0 0 0 .303-.304v-5.71c0-.972.733-1.82 1.702-1.882a1.823 1.823 0 0 1 1.944 1.819v5.773c0 .168.137.304.304.304h.608a.304.304 0 0 0 .304-.304v-8.933c0-1.323-.845-2.525-2.113-2.901"/><path fill="#F0EFEA" d="M73.299 192.112H48.66v-73.53c.24.15.605.094.733-.239a.5.5 0 0 1 .184-.234l1.658-1.124c.212-.144.464-.219.72-.216l6.447.076a6.201 6.201 0 1 0 .002-12.4l-6.043.069a1.3 1.3 0 0 1-.568-.125l-1.89-.902a.57.57 0 0 1-.258-.244c-.224-.414-.769-.374-.985-.042v-73.53h24.639z"/><mask id="path-110-inside-1_177_30300" fill="#fff"><path d="M168.103 188.615a3.67 3.67 0 0 1-3.67 3.67H51.943a3.67 3.67 0 0 1-3.67-3.67v-68.534a3.67 3.67 0 0 1 3.67-3.67h6.966a5.765 5.765 0 1 0 0-11.531h-6.966a3.67 3.67 0 0 1-3.67-3.67V32.676a3.67 3.67 0 0 1 3.67-3.67h112.49a3.67 3.67 0 0 1 3.67 3.67z"/></mask><path fill="#00503A" d="M58.91 116.411v1zm0-11.531v-1zm105.523 87.405v-1H51.943v2h112.49zm-116.16-3.67h1v-68.534h-2v68.534zm3.67-72.204v1h6.966v-2h-6.966zm6.966 0v1a6.766 6.766 0 0 0 6.766-6.765h-2a4.765 4.765 0 0 1-4.766 4.765zm5.766-5.765h1a6.766 6.766 0 0 0-6.766-6.766v2a4.766 4.766 0 0 1 4.766 4.766zm-5.766-5.766v-1h-6.966v2h6.966zm-10.636-3.67h1V32.676h-2v68.534zm3.67-72.204v1h112.49v-2H51.943zm116.16 3.67h-1v155.939h2V32.676zm-3.67-3.67v1a2.67 2.67 0 0 1 2.67 2.67h2a4.67 4.67 0 0 0-4.67-4.67zm-116.16 3.67h1a2.67 2.67 0 0 1 2.67-2.67v-2a4.67 4.67 0 0 0-4.67 4.67zm0 87.405h1a2.67 2.67 0 0 1 2.67-2.67v-2a4.67 4.67 0 0 0-4.67 4.67zm3.67-15.201v-1a2.67 2.67 0 0 1-2.67-2.67h-2a4.67 4.67 0 0 0 4.67 4.67zm0 87.405v-1a2.67 2.67 0 0 1-2.67-2.67h-2a4.67 4.67 0 0 0 4.67 4.67zm112.49 0v1a4.67 4.67 0 0 0 4.67-4.67h-2a2.67 2.67 0 0 1-2.67 2.67z" mask="url(#path-110-inside-1_177_30300)"/><defs><clipPath id="clip0_177_30300"><path fill="#fff" d="M128.17 64.822h12.63V75.65h-12.63z"/></clipPath></defs></svg>